<?xml version="1.0" encoding="iso-8859-1"?>
<!-- Generator: Adobe Illustrator 19.0.0, SVG Export Plug-In . SVG Version: 6.00 Build 0)  -->
<svg version="1.1" id="Capa_1" xmlns="http://www.w3.org/2000/svg" xmlns:xlink="http://www.w3.org/1999/xlink" x="0px" y="0px"
	 viewBox="0 0 512 512" style="enable-background:new 0 0 512 512;" xml:space="preserve">
<g>
	<g>
		<path d="M94.796,367.97c-5.522,0-9.999,4.477-9.999,9.999v72.302c0,5.523,4.478,9.999,9.999,9.999s9.999-4.477,9.999-9.999
			v-72.302C104.795,372.446,100.319,367.97,94.796,367.97z"/>
	</g>
</g>
<g>
	<g>
		<path d="M101.862,332.704c-1.859-1.86-4.439-2.93-7.069-2.93c-2.63,0-5.21,1.07-7.068,2.93c-1.86,1.86-2.931,4.44-2.931,7.069
			c0,2.63,1.07,5.21,2.931,7.069c1.859,1.86,4.439,2.93,7.068,2.93c2.631,0,5.211-1.07,7.069-2.93c1.87-1.86,2.93-4.44,2.93-7.069
			C104.791,337.143,103.732,334.564,101.862,332.704z"/>
	</g>
</g>
<g>
	<g>
		<path d="M58.852,327.148c-5.522,0-9.999,4.477-9.999,9.999v113.124c0,5.523,4.478,9.999,9.999,9.999s9.999-4.477,9.999-9.999
			V337.147C68.851,331.625,64.374,327.148,58.852,327.148z"/>
	</g>
</g>
<g>
	<g>
		<path d="M143.624,288.191h-36.832V92.494l13.744-14.26c2.34-2.427,3.299-5.87,2.551-9.157L109.141,7.78
			C108.105,3.229,104.059,0,99.391,0H54.258c-4.668,0-8.714,3.229-9.75,7.78L30.561,69.077c-0.748,3.287,0.211,6.729,2.551,9.157
			l13.744,14.26V288.19H10.02c-5.522,0-9.999,4.477-9.999,9.999c0,5.523,4.478,9.999,9.999,9.999h2.605v139.605
			c0,35.38,28.784,64.164,64.234,64.164c35.38,0,64.164-28.784,64.164-64.164V308.19h2.602c5.522,0,9.999-4.477,9.999-9.999
			C153.623,292.668,149.147,288.191,143.624,288.191z M62.238,19.998h29.174l10.978,48.248L89.553,81.565
			c-2.003,2.078-2.962,4.872-2.758,7.65v198.976h-19.94V89.424c0.263-2.847-0.705-5.729-2.758-7.858L51.26,68.246L62.238,19.998z
			 M121.025,447.794c0,24.353-19.812,44.165-44.235,44.165c-24.352,0-44.165-19.812-44.165-44.165V308.19h88.401V447.794z"/>
	</g>
</g>
<g>
	<g>
		<path d="M296.046,232.582c-1.87-1.87-4.44-2.93-7.079-2.93c-2.629,0-5.209,1.06-7.069,2.93c-1.859,1.86-2.93,4.43-2.93,7.069
			c0,2.63,1.07,5.21,2.93,7.069c1.86,1.86,4.44,2.93,7.069,2.93c2.64,0,5.21-1.07,7.079-2.93c1.86-1.86,2.92-4.44,2.92-7.069
			C298.966,237.012,297.906,234.442,296.046,232.582z"/>
	</g>
</g>
<g>
	<g>
		<path d="M298.97,369.966v-89.657c0-5.523-4.478-9.999-9.999-9.999s-9.999,4.477-9.999,9.999v95.348
			c0,3.669,2.01,7.042,5.235,8.791c18.131,9.826,29.547,28.075,30.536,48.815c1.06,22.197-10.323,42.586-28.746,53.49v-36.085
			c0-16.541-13.457-29.997-29.998-29.997c-16.541,0-29.997,13.457-29.997,29.997v36.122c-17.658-10.376-28.815-29.348-28.815-50.631
			c0-21.432,11.746-41.199,30.655-51.586c3.198-1.757,5.186-5.116,5.186-8.764V137.005c0-3.669-2.01-7.043-5.235-8.791
			c-18.132-9.825-29.547-28.074-30.536-48.814c-1.06-22.197,10.323-42.586,28.746-53.491v36.086
			c0,16.541,13.457,29.997,29.998,29.997s29.998-13.457,29.998-29.997V25.873c17.658,10.376,28.815,29.348,28.815,50.631
			c0,21.432-11.746,41.199-30.655,51.586c-3.198,1.757-5.186,5.116-5.186,8.764v61.463c0,5.523,4.478,9.999,9.999,9.999
			s9.999-4.477,9.999-9.999v-55.808h0.001c22.25-14.52,35.841-39.29,35.841-66.004c0-17.248-5.474-33.626-15.828-47.367
			C308.977,15.859,294.742,5.9,278.901,1.094c-3.033-0.92-6.316-0.349-8.859,1.537c-2.543,1.886-4.043,4.866-4.043,8.031v51.333
			c0,5.514-4.486,9.999-9.999,9.999c-5.514,0-9.999-4.486-9.999-9.999V10.669c0-3.167-1.5-6.146-4.043-8.031
			c-2.543-1.886-5.83-2.458-8.859-1.537c-34.591,10.494-57.543,43.083-55.816,79.252c1.229,25.742,14.463,48.629,35.748,62.346
			v227.458c-22.25,14.52-35.841,39.29-35.841,66.004c0,17.248,5.474,33.626,15.828,47.367
			c10.006,13.278,24.241,23.237,40.083,28.042c0.952,0.289,1.93,0.431,2.901,0.431c2.121,0,4.214-0.675,5.958-1.968
			c2.543-1.886,4.043-4.866,4.043-8.031v-51.332c0-5.514,4.486-9.999,9.999-9.999c5.514,0,9.999,4.486,9.999,9.999v51.326
			c0,3.167,1.5,6.146,4.043,8.031s5.83,2.457,8.859,1.537c34.591-10.495,57.543-43.084,55.816-79.251
			C333.489,406.571,320.255,383.683,298.97,369.966z"/>
	</g>
</g>
<g>
	<g>
		<path d="M506.979,89.973l-59.995-34.638c-3.094-1.786-6.905-1.786-9.999,0L376.99,89.973c-3.094,1.786-5,5.087-5,8.659v69.276
			c0,3.573,1.906,6.873,5,8.659l59.995,34.638c1.547,0.893,3.273,1.34,5,1.34s3.453-0.447,5-1.34l59.995-34.638
			c3.094-1.786,5-5.087,5-8.659V98.633C511.979,95.06,510.073,91.759,506.979,89.973z M491.981,162.136l-49.996,28.866
			l-49.996-28.866v-57.73l49.996-28.865l49.996,28.865V162.136z"/>
	</g>
</g>
<g>
	<g>
		<path d="M441.985,101.274c-17.644,0-31.997,14.354-31.997,31.997s14.354,31.997,31.997,31.997s31.997-14.354,31.997-31.997
			S459.628,101.274,441.985,101.274z M441.985,145.27c-6.616,0-11.999-5.383-11.999-11.999s5.383-11.999,11.999-11.999
			s11.999,5.383,11.999,11.999S448.601,145.27,441.985,145.27z"/>
	</g>
</g>
<g>
	<g>
		<path d="M501.98,245.98H381.99c-5.522,0-9.999,4.477-9.999,9.999v57.995c0,5.523,4.478,9.999,9.999,9.999h17.998v51.324
			c0,0.003,0,0.007,0,0.01v59.657c0,12.681,10.316,22.998,22.998,22.998h37.997c12.682,0,22.998-10.317,22.998-22.998V323.973
			h17.998c5.522,0,9.999-4.477,9.999-9.999v-57.995C511.979,250.456,507.501,245.98,501.98,245.98z M463.983,434.964
			c0,1.654-1.346,3-3,3h-37.769l40.769-40.769V434.964z M463.983,368.913l-43.996,43.996v-33.464l43.996-43.996V368.913z
			 M419.987,351.162v-27.189h27.189L419.987,351.162z M491.981,303.975h-99.992v-37.997h99.992V303.975z"/>
	</g>
</g>
<g>
</g>
<g>
</g>
<g>
</g>
<g>
</g>
<g>
</g>
<g>
</g>
<g>
</g>
<g>
</g>
<g>
</g>
<g>
</g>
<g>
</g>
<g>
</g>
<g>
</g>
<g>
</g>
<g>
</g>
</svg>
