<?xml version="1.0" encoding="iso-8859-1"?>
<!-- Generator: Adobe Illustrator 19.0.0, SVG Export Plug-In . SVG Version: 6.00 Build 0)  -->
<svg version="1.1" id="Capa_1" xmlns="http://www.w3.org/2000/svg" xmlns:xlink="http://www.w3.org/1999/xlink" x="0px" y="0px"
	 viewBox="0 0 512 512" style="enable-background:new 0 0 512 512;" xml:space="preserve">
<g>
	<g>
		<path d="M256,0C147.287,0,58.842,88.445,58.841,197.158c0,45.089,15.613,89.146,43.971,124.11c0.045,0.06,0.091,0.12,0.137,0.18
			l145.156,186.69C250,510.574,252.914,512,256,512c3.086,0,5.999-1.425,7.893-3.859l58.302-74.951
			c3.391-4.359,2.605-10.642-1.754-14.033c-4.359-3.39-10.641-2.607-14.033,1.753l-50.406,64.801L119.019,309.533
			c-0.13-0.185-0.266-0.365-0.41-0.541c-25.644-31.463-39.767-71.18-39.767-111.834C78.842,99.473,158.315,20,256,20
			s177.158,79.473,177.158,177.158c0,41.09-14.388,81.135-40.512,112.757c-0.346,0.418-0.652,0.858-0.921,1.316l-35.703,45.897
			c-3.391,4.359-2.605,10.642,1.754,14.033c4.359,3.392,10.641,2.605,14.033-1.753l36.548-46.983
			c0.215-0.276,0.413-0.561,0.596-0.854c28.515-35.026,44.205-79.152,44.205-124.413C453.159,88.445,364.714,0,256,0z"/>
	</g>
</g>
<g>
	<g>
		<path d="M346.156,386.119c-4.355-3.395-10.639-2.617-14.035,1.738l-0.209,0.268c-3.396,4.355-2.617,10.639,1.738,14.035
			c1.828,1.424,3.993,2.114,6.142,2.114c2.976,0,5.922-1.323,7.893-3.852l0.209-0.268
			C351.289,395.799,350.51,389.515,346.156,386.119z"/>
	</g>
</g>
<g>
	<g>
		<path d="M137.778,249.822l-0.516-0.508c-3.906-3.905-10.236-3.905-14.143,0c-3.905,3.905-3.905,10.237,0,14.143
			c0.233,0.233,0.47,0.465,0.705,0.695c1.944,1.893,4.461,2.835,6.976,2.835c2.604,0,5.206-1.011,7.166-3.024
			C141.818,260.006,141.734,253.675,137.778,249.822z"/>
	</g>
</g>
<g>
	<g>
		<path d="M343.109,152.95c-5.655,0-11.141,0.734-16.372,2.102l-16.008-36.753c-0.014-0.033-0.028-0.065-0.042-0.097
			c-0.002-0.004-0.004-0.008-0.005-0.011l-2.796-6.42h30.086c2.958,0,5.364,2.407,5.364,5.365s-2.406,5.365-5.364,5.365h-1.109
			c-5.522,0-10,4.477-10,10s4.478,10,10,10h1.109c13.986,0,25.364-11.378,25.364-25.365s-11.378-25.365-25.364-25.365h-45.349
			c-0.009,0-0.017,0.001-0.017,0.001c-0.104,0-0.199,0.006-0.294,0.009c-0.1,0.004-0.197,0.009-0.289,0.017
			c-1.14,0.068-2.286,0.322-3.394,0.805c-5.063,2.205-7.38,8.098-5.175,13.161l2.782,6.386h-68.607l-5.497-10.149
			c4.138-1.225,7.16-5.049,7.16-9.585c0-5.523-4.478-10-10-10h-30.941c-5.522,0-10,4.477-10,10s4.478,10,10,10h11.263l8.966,16.554
			l-14.661,35.737c-4.867-1.152-9.899-1.758-15.026-1.758c-17.291,0-33.547,6.733-45.773,18.959
			c-13.651,13.652-20.462,32.517-18.685,51.756c0.509,5.499,5.372,9.548,10.878,9.038c5.499-0.508,9.546-5.378,9.038-10.877
			c-1.229-13.301,3.477-26.34,12.911-35.774c8.448-8.449,19.682-13.102,31.631-13.102c2.47,0,4.906,0.21,7.296,0.6l-16.548,40.338
			c-1.265,3.084-0.91,6.596,0.946,9.365c1.857,2.769,4.972,4.43,8.306,4.43h43.578c-1.807,7.932-5.782,15.466-11.947,21.631
			c-8.362,8.363-19.48,13.016-31.305,13.101c-5.522,0.04-9.968,4.549-9.928,10.072c0.04,5.499,4.509,9.928,9.998,9.928
			c0.024,0,0.05,0,0.074,0c17.112-0.123,33.201-6.856,45.303-18.958c10.073-10.074,16.113-22.67,18.146-35.774h30.605h0.005
			c0.192,0,0.386-0.006,0.58-0.017c3.874-0.227,7.268-2.675,8.704-6.28l7.426-18.629c-1.137,4.795-1.756,9.788-1.756,14.926
			c0,35.694,29.039,64.733,64.733,64.733c35.694,0,64.733-29.039,64.733-64.733C407.842,181.988,378.804,152.95,343.109,152.95z
			 M183.804,207.683l10.888-26.541c2.057,1.459,4.012,3.091,5.832,4.91c6.166,6.165,10.141,13.699,11.947,21.631H183.804z
			 M232.812,207.683c-2.033-13.104-8.073-25.7-18.146-35.774c-3.732-3.732-7.843-6.945-12.241-9.618l8.455-20.609l35.748,66.001
			H232.812z M262.036,194.139l-33.575-61.989h58.286L262.036,194.139z M287.085,185.316l14.823-37.185l6.508,14.943
			C299.646,168.664,292.313,176.302,287.085,185.316z M343.109,262.417c-24.666,0-44.733-20.067-44.733-44.733
			c0-14.723,7.153-27.805,18.163-35.961l17.402,39.954c1.639,3.763,5.314,6.009,9.173,6.009c1.333,0,2.688-0.268,3.988-0.834
			c5.063-2.205,7.38-8.098,5.175-13.161l-17.408-39.967c2.673-0.5,5.424-0.774,8.24-0.774c24.666,0,44.733,20.067,44.733,44.733
			S367.774,262.417,343.109,262.417z"/>
	</g>
</g>
<g>
</g>
<g>
</g>
<g>
</g>
<g>
</g>
<g>
</g>
<g>
</g>
<g>
</g>
<g>
</g>
<g>
</g>
<g>
</g>
<g>
</g>
<g>
</g>
<g>
</g>
<g>
</g>
<g>
</g>
</svg>
