<?xml version="1.0" encoding="utf-8"?>
<svg viewBox="0 194 500 300" xmlns="http://www.w3.org/2000/svg">
  <g transform="matrix(0.201919, 0, 0, 0.201919, 191.151352, 357.397827)" style=""/>
  <g transform="matrix(0.201919, 0, 0, 0.201919, 191.151352, 357.397827)" style=""/>
  <g transform="matrix(0.201919, 0, 0, 0.201919, 191.151352, 357.397827)" style=""/>
  <g transform="matrix(0.201919, 0, 0, 0.201919, 191.151352, 357.397827)" style=""/>
  <g transform="matrix(0.201919, 0, 0, 0.201919, 191.151352, 357.397827)" style=""/>
  <g transform="matrix(0.201919, 0, 0, 0.201919, 191.151352, 357.397827)" style=""/>
  <g transform="matrix(0.201919, 0, 0, 0.201919, 191.151352, 357.397827)" style=""/>
  <g transform="matrix(0.201919, 0, 0, 0.201919, 191.151352, 357.397827)" style=""/>
  <g transform="matrix(0.201919, 0, 0, 0.201919, 191.151352, 357.397827)" style=""/>
  <g transform="matrix(0.201919, 0, 0, 0.201919, 191.151352, 357.397827)" style=""/>
  <g transform="matrix(0.201919, 0, 0, 0.201919, 191.151352, 357.397827)" style=""/>
  <g transform="matrix(0.201919, 0, 0, 0.201919, 191.151352, 357.397827)" style=""/>
  <g transform="matrix(0.201919, 0, 0, 0.201919, 191.151352, 357.397827)" style=""/>
  <g transform="matrix(0.201919, 0, 0, 0.201919, 191.151352, 357.397827)" style=""/>
  <g transform="matrix(0.201919, 0, 0, 0.201919, 191.151352, 357.397827)" style=""/>
  <g transform="matrix(1.073937, 0, 0, 0.275323, -27.321749, 348.252319)" style="">
    <g>
      <path d="M502.003,491.94H10.128c-5.521,0-9.997,4.477-9.997,9.997s4.477,9.997,9.997,9.997h491.874 c5.521,0,9.997-4.477,9.997-9.997S507.523,491.94,502.003,491.94z" style=""/>
    </g>
  </g>
  <g transform="matrix(0.209385, 0, 0, 0.209385, 209.117828, 379.269989)" style="">
    <g>
      <path d="M502.003,432.955h-35.509c-5.521,0-9.997,4.477-9.997,9.997c0,5.521,4.477,9.997,9.997,9.997h35.509 c5.521,0,9.997-4.477,9.997-9.997C512,437.432,507.523,432.955,502.003,432.955z" style=""/>
    </g>
  </g>
  <g transform="matrix(0.209385, 0, 0, 0.209385, 209.117828, 379.269989)" style="">
    <g>
      <path d="M419.541,432.955h-35.509c-5.521,0-9.997,4.477-9.997,9.997c0,5.521,4.477,9.997,9.997,9.997h35.509 c5.521,0,9.997-4.477,9.997-9.997C429.538,437.432,425.061,432.955,419.541,432.955z" style=""/>
    </g>
  </g>
  <g transform="matrix(0.284457, 0, 0, 0.284457, 281.789093, 202.147018)" style="">
    <g>
      <path d="M416.231,52.012c-24.164,0-43.823,19.659-43.823,43.823c0,24.164,19.659,43.823,43.823,43.823 s43.823-19.659,43.823-43.823S440.394,52.012,416.231,52.012z M416.231,119.663c-13.14,0-23.828-10.689-23.828-23.828 c0-13.139,10.688-23.828,23.828-23.828s23.828,10.689,23.828,23.828C440.058,108.975,429.37,119.663,416.231,119.663z" style="fill: rgb(255, 198, 54);"/>
    </g>
  </g>
  <g transform="matrix(0.284457, 0, 0, 0.284457, 281.789093, 202.147018)" style="">
    <g>
      <path d="M502.003,85.838h-15.494c-5.522,0-9.997,4.476-9.997,9.997s4.477,9.997,9.997,9.997h15.494 c5.521,0,9.997-4.476,9.997-9.997S507.523,85.838,502.003,85.838z" style="fill: rgb(255, 198, 54);"/>
    </g>
  </g>
  <g transform="matrix(0.284457, 0, 0, 0.284457, 281.789093, 202.147018)" style="">
    <g>
      <path d="M345.953,85.838h-15.494c-5.521,0-9.997,4.476-9.997,9.997s4.476,9.997,9.997,9.997h15.494 c5.521,0,9.997-4.476,9.997-9.997S351.474,85.838,345.953,85.838z" style="fill: rgb(255, 198, 54);"/>
    </g>
  </g>
  <g transform="matrix(0.284457, 0, 0, 0.284457, 281.789093, 202.147018)" style="">
    <g>
      <path d="M416.231,156.115c-5.521,0-9.997,4.476-9.997,9.997v15.495c0,5.522,4.477,9.997,9.997,9.997s9.997-4.476,9.997-9.997 v-15.495C426.228,160.59,421.751,156.115,416.231,156.115z" style="fill: rgb(255, 198, 54);"/>
    </g>
  </g>
  <g transform="matrix(0.284457, 0, 0, 0.284457, 281.789093, 202.147018)" style="">
    <g>
      <path d="M416.231,0.065c-5.521,0-9.997,4.476-9.997,9.997v15.494c0,5.522,4.476,9.997,9.997,9.997 c5.521,0,9.997-4.476,9.997-9.997V10.063C426.228,4.541,421.751,0.065,416.231,0.065z" style="fill: rgb(255, 198, 54);"/>
    </g>
  </g>
  <g transform="matrix(0.284457, 0, 0, 0.284457, 281.789093, 202.147018)" style="">
    <g>
      <path d="M483.949,149.415l-10.955-10.956c-3.905-3.904-10.233-3.904-14.139,0c-3.904,3.904-3.904,10.234,0,14.139l10.956,10.956 c1.953,1.953,4.511,2.928,7.069,2.928c2.558,0,5.117-0.976,7.069-2.928C487.853,159.651,487.853,153.32,483.949,149.415z" style="fill: rgb(255, 198, 54);"/>
    </g>
  </g>
  <g transform="matrix(0.284457, 0, 0, 0.284457, 281.789093, 202.147018)" style="">
    <g>
      <path d="M373.606,39.071L362.65,28.115c-3.905-3.904-10.233-3.904-14.139,0c-3.904,3.904-3.904,10.234,0,14.139l10.957,10.956 c1.953,1.953,4.511,2.928,7.069,2.928s5.117-0.976,7.069-2.928C377.51,49.307,377.51,42.977,373.606,39.071z" style="fill: rgb(255, 198, 54);"/>
    </g>
  </g>
  <g transform="matrix(0.284457, 0, 0, 0.284457, 281.789093, 202.147018)" style="">
    <g>
      <path d="M373.606,138.459c-3.905-3.904-10.233-3.904-14.138,0l-10.956,10.956c-3.904,3.904-3.904,10.234,0,14.139 c1.953,1.953,4.511,2.928,7.069,2.928s5.117-0.976,7.069-2.928l10.956-10.956C377.51,148.694,377.51,142.364,373.606,138.459z" style="fill: rgb(255, 198, 54);"/>
    </g>
  </g>
  <g transform="matrix(0.284457, 0, 0, 0.284457, 281.789093, 202.147018)" style="">
    <g>
      <path d="M483.95,28.115c-3.905-3.904-10.233-3.904-14.139,0l-10.956,10.956c-3.904,3.904-3.904,10.234,0,14.139 c1.953,1.953,4.511,2.928,7.07,2.928s5.117-0.976,7.069-2.928l10.956-10.956C487.854,38.351,487.854,32.02,483.95,28.115z" style="fill: rgb(255, 198, 54);"/>
    </g>
  </g>
  <g transform="matrix(0.178711, 0, 0, 0.178711, 44.469639, 206.720306)" style="">
    <g>
      <path d="M243.916,48.754c-10.425-19.812-31.277-32.693-53.945-32.693c-22.666,0-43.518,12.881-53.944,32.693 c-25.002,0.894-45.65,19.259-50.205,43.288H10.128c-5.521,0-9.997,4.476-9.997,9.997c0,5.522,4.476,9.997,9.997,9.997h84.753 c5.521,0,9.997-4.476,9.997-9.997c0-18.375,14.83-33.324,33.058-33.324c1.09,0,2.244,0.061,3.433,0.181 c4.503,0.458,8.74-2.167,10.347-6.393c6.017-15.818,21.39-26.446,38.252-26.446c16.864,0,32.237,10.627,38.253,26.446 c1.607,4.226,5.845,6.843,10.348,6.393c1.187-0.12,2.34-0.181,3.43-0.181c14.776,0,27.319,9.82,31.542,23.327h-81.606 c-5.521,0-9.997,4.476-9.997,9.997c0,5.522,4.477,9.997,9.997,9.997h93.122c5.521,0,9.997-4.476,9.997-9.997 C295.057,73.283,272.287,49.771,243.916,48.754z" style="fill: rgb(57, 75, 184);"/>
    </g>
  </g>
  <g transform="matrix(0.178711, 0, 0, 0.178711, 44.469639, 206.720306)" style="">
    <g>
      <path d="M144.906,92.042h-0.146c-5.521,0-9.997,4.476-9.997,9.997c0,5.522,4.477,9.997,9.997,9.997h0.146 c5.521,0,9.997-4.476,9.997-9.997C154.903,96.518,150.427,92.042,144.906,92.042z" style="fill: rgb(57, 75, 184);"/>
    </g>
  </g>
  <g transform="matrix(0.178711, 0, 0, 0.178711, 44.469639, 206.720306)" style="">
    <g>
      <path d="M158.555,158.025H48.893c-5.521,0-9.997,4.476-9.997,9.997c0,5.522,4.477,9.997,9.997,9.997h109.662 c5.521,0,9.997-4.476,9.997-9.997C168.553,162.501,164.076,158.025,158.555,158.025z" style="fill: rgb(57, 75, 184);"/>
    </g>
  </g>
  <g transform="matrix(0.237404, 0, 0, 0.237404, 235.147369, 206.281876)" style="">
    <g>
      <path d="M243.916,48.754c-10.425-19.812-31.277-32.693-53.945-32.693c-22.666,0-43.518,12.881-53.944,32.693 c-25.002,0.894-45.65,19.259-50.205,43.288H10.128c-5.521,0-9.997,4.476-9.997,9.997c0,5.522,4.476,9.997,9.997,9.997h84.753 c5.521,0,9.997-4.476,9.997-9.997c0-18.375,14.83-33.324,33.058-33.324c1.09,0,2.244,0.061,3.433,0.181 c4.503,0.458,8.74-2.167,10.347-6.393c6.017-15.818,21.39-26.446,38.252-26.446c16.864,0,32.237,10.627,38.253,26.446 c1.607,4.226,5.845,6.843,10.348,6.393c1.187-0.12,2.34-0.181,3.43-0.181c14.776,0,27.319,9.82,31.542,23.327h-81.606 c-5.521,0-9.997,4.476-9.997,9.997c0,5.522,4.477,9.997,9.997,9.997h93.122c5.521,0,9.997-4.476,9.997-9.997 C295.057,73.283,272.287,49.771,243.916,48.754z" style="fill: rgb(57, 75, 184);"/>
    </g>
  </g>
  <g transform="matrix(0.237404, 0, 0, 0.237404, 235.147369, 206.281876)" style="">
    <g>
      <path d="M144.906,92.042h-0.146c-5.521,0-9.997,4.476-9.997,9.997c0,5.522,4.477,9.997,9.997,9.997h0.146 c5.521,0,9.997-4.476,9.997-9.997C154.903,96.518,150.427,92.042,144.906,92.042z" style="fill: rgb(57, 75, 184);"/>
    </g>
  </g>
  <g transform="matrix(0.237404, 0, 0, 0.237404, 235.147369, 206.281876)" style="">
    <g>
      <path d="M158.555,158.025H48.893c-5.521,0-9.997,4.476-9.997,9.997c0,5.522,4.477,9.997,9.997,9.997h109.662 c5.521,0,9.997-4.476,9.997-9.997C168.553,162.501,164.076,158.025,158.555,158.025z" style="fill: rgb(57, 75, 184);"/>
    </g>
  </g>
  <g transform="matrix(0.133915, 0, 0, 0.133915, 132.176941, 241.646835)" style="">
    <g>
      <path d="M243.916,48.754c-10.425-19.812-31.277-32.693-53.945-32.693c-22.666,0-43.518,12.881-53.944,32.693 c-25.002,0.894-45.65,19.259-50.205,43.288H10.128c-5.521,0-9.997,4.476-9.997,9.997c0,5.522,4.476,9.997,9.997,9.997h84.753 c5.521,0,9.997-4.476,9.997-9.997c0-18.375,14.83-33.324,33.058-33.324c1.09,0,2.244,0.061,3.433,0.181 c4.503,0.458,8.74-2.167,10.347-6.393c6.017-15.818,21.39-26.446,38.252-26.446c16.864,0,32.237,10.627,38.253,26.446 c1.607,4.226,5.845,6.843,10.348,6.393c1.187-0.12,2.34-0.181,3.43-0.181c14.776,0,27.319,9.82,31.542,23.327h-81.606 c-5.521,0-9.997,4.476-9.997,9.997c0,5.522,4.477,9.997,9.997,9.997h93.122c5.521,0,9.997-4.476,9.997-9.997 C295.057,73.283,272.287,49.771,243.916,48.754z" style="fill: rgb(57, 75, 184);"/>
    </g>
  </g>
  <g transform="matrix(0.133915, 0, 0, 0.133915, 132.176941, 241.646835)" style="">
    <g>
      <path d="M144.906,92.042h-0.146c-5.521,0-9.997,4.476-9.997,9.997c0,5.522,4.477,9.997,9.997,9.997h0.146 c5.521,0,9.997-4.476,9.997-9.997C154.903,96.518,150.427,92.042,144.906,92.042z" style="fill: rgb(57, 75, 184);"/>
    </g>
  </g>
  <g transform="matrix(0.133915, 0, 0, 0.133915, 132.176941, 241.646835)" style="">
    <g>
      <path d="M158.555,158.025H48.893c-5.521,0-9.997,4.476-9.997,9.997c0,5.522,4.477,9.997,9.997,9.997h109.662 c5.521,0,9.997-4.476,9.997-9.997C168.553,162.501,164.076,158.025,158.555,158.025z" style="fill: rgb(57, 75, 184);"/>
    </g>
  </g>
  <g transform="matrix(1.046464, 0, 0, 0.231364, -18.129215, 342.675995)" style="">
    <g>
      <path d="M502.003,491.94H10.128c-5.521,0-9.997,4.477-9.997,9.997s4.477,9.997,9.997,9.997h491.874 c5.521,0,9.997-4.477,9.997-9.997S507.523,491.94,502.003,491.94z" style=""/>
    </g>
  </g>
  <g transform="matrix(0.209385, 0, 0, 0.209385, 244.333908, 379.304047)" style="">
    <g>
      <path d="M502.003,432.955h-35.509c-5.521,0-9.997,4.477-9.997,9.997c0,5.521,4.477,9.997,9.997,9.997h35.509 c5.521,0,9.997-4.477,9.997-9.997C512,437.432,507.523,432.955,502.003,432.955z" style=""/>
    </g>
  </g>
  <g transform="matrix(0.209385, 0, 0, 0.209385, 244.333908, 379.304047)" style="">
    <g>
      <path d="M419.541,432.955h-35.509c-5.521,0-9.997,4.477-9.997,9.997c0,5.521,4.477,9.997,9.997,9.997h35.509 c5.521,0,9.997-4.477,9.997-9.997C429.538,437.432,425.061,432.955,419.541,432.955z" style=""/>
    </g>
  </g>
  <g transform="matrix(0.209385, 0, 0, 0.209385, 139.594833, 379.287048)" style="">
    <g>
      <path d="M502.003,432.955h-35.509c-5.521,0-9.997,4.477-9.997,9.997c0,5.521,4.477,9.997,9.997,9.997h35.509 c5.521,0,9.997-4.477,9.997-9.997C512,437.432,507.523,432.955,502.003,432.955z" style=""/>
    </g>
  </g>
  <g transform="matrix(0.209385, 0, 0, 0.209385, 139.594833, 379.287048)" style="">
    <g>
      <path d="M419.541,432.955h-35.509c-5.521,0-9.997,4.477-9.997,9.997c0,5.521,4.477,9.997,9.997,9.997h35.509 c5.521,0,9.997-4.477,9.997-9.997C429.538,437.432,425.061,432.955,419.541,432.955z" style=""/>
    </g>
  </g>
  <g transform="matrix(0.209385, 0, 0, 0.209385, 174.810913, 379.321106)" style="">
    <g>
      <path d="M502.003,432.955h-35.509c-5.521,0-9.997,4.477-9.997,9.997c0,5.521,4.477,9.997,9.997,9.997h35.509 c5.521,0,9.997-4.477,9.997-9.997C512,437.432,507.523,432.955,502.003,432.955z" style=""/>
    </g>
  </g>
  <g transform="matrix(0.209385, 0, 0, 0.209385, 174.810913, 379.321106)" style="">
    <g>
      <path d="M419.541,432.955h-35.509c-5.521,0-9.997,4.477-9.997,9.997c0,5.521,4.477,9.997,9.997,9.997h35.509 c5.521,0,9.997-4.477,9.997-9.997C429.538,437.432,425.061,432.955,419.541,432.955z" style=""/>
    </g>
  </g>
  <g transform="matrix(0.209385, 0, 0, 0.209385, 346.886108, 379.278503)" style="">
    <g>
      <path d="M502.003,432.955h-35.509c-5.521,0-9.997,4.477-9.997,9.997c0,5.521,4.477,9.997,9.997,9.997h35.509 c5.521,0,9.997-4.477,9.997-9.997C512,437.432,507.523,432.955,502.003,432.955z" style=""/>
    </g>
  </g>
  <g transform="matrix(0.209385, 0, 0, 0.209385, 346.886108, 379.278503)" style="">
    <g>
      <path d="M419.541,432.955h-35.509c-5.521,0-9.997,4.477-9.997,9.997c0,5.521,4.477,9.997,9.997,9.997h35.509 c5.521,0,9.997-4.477,9.997-9.997C429.538,437.432,425.061,432.955,419.541,432.955z" style=""/>
    </g>
  </g>
  <g transform="matrix(0.209385, 0, 0, 0.209385, 382.102203, 379.312561)" style="">
    <g>
      <path d="M502.003,432.955h-35.509c-5.521,0-9.997,4.477-9.997,9.997c0,5.521,4.477,9.997,9.997,9.997h35.509 c5.521,0,9.997-4.477,9.997-9.997C512,437.432,507.523,432.955,502.003,432.955z" style=""/>
    </g>
  </g>
  <g transform="matrix(0.209385, 0, 0, 0.209385, 382.102203, 379.312561)" style="">
    <g>
      <path d="M419.541,432.955h-35.509c-5.521,0-9.997,4.477-9.997,9.997c0,5.521,4.477,9.997,9.997,9.997h35.509 c5.521,0,9.997-4.477,9.997-9.997C429.538,437.432,425.061,432.955,419.541,432.955z" style=""/>
    </g>
  </g>
  <g transform="matrix(0.209385, 0, 0, 0.209385, 277.363129, 379.295563)" style="">
    <g>
      <path d="M502.003,432.955h-35.509c-5.521,0-9.997,4.477-9.997,9.997c0,5.521,4.477,9.997,9.997,9.997h35.509 c5.521,0,9.997-4.477,9.997-9.997C512,437.432,507.523,432.955,502.003,432.955z" style=""/>
    </g>
  </g>
  <g transform="matrix(0.209385, 0, 0, 0.209385, 277.363129, 379.295563)" style="">
    <g>
      <path d="M419.541,432.955h-35.509c-5.521,0-9.997,4.477-9.997,9.997c0,5.521,4.477,9.997,9.997,9.997h35.509 c5.521,0,9.997-4.477,9.997-9.997C429.538,437.432,425.061,432.955,419.541,432.955z" style=""/>
    </g>
  </g>
  <g transform="matrix(0.209385, 0, 0, 0.209385, 312.579224, 379.32962)" style="">
    <g>
      <path d="M502.003,432.955h-35.509c-5.521,0-9.997,4.477-9.997,9.997c0,5.521,4.477,9.997,9.997,9.997h35.509 c5.521,0,9.997-4.477,9.997-9.997C512,437.432,507.523,432.955,502.003,432.955z" style=""/>
    </g>
  </g>
  <g transform="matrix(0.209385, 0, 0, 0.209385, 312.579224, 379.32962)" style="">
    <g>
      <path d="M419.541,432.955h-35.509c-5.521,0-9.997,4.477-9.997,9.997c0,5.521,4.477,9.997,9.997,9.997h35.509 c5.521,0,9.997-4.477,9.997-9.997C429.538,437.432,425.061,432.955,419.541,432.955z" style=""/>
    </g>
  </g>
  <g transform="matrix(0.209385, 0, 0, 0.209385, -66.629906, 379.105225)" style="">
    <g>
      <path d="M502.003,432.955h-35.509c-5.521,0-9.997,4.477-9.997,9.997c0,5.521,4.477,9.997,9.997,9.997h35.509 c5.521,0,9.997-4.477,9.997-9.997C512,437.432,507.523,432.955,502.003,432.955z" style=""/>
    </g>
  </g>
  <g transform="matrix(0.209385, 0, 0, 0.209385, -66.629906, 379.105225)" style="">
    <g>
      <path d="M419.541,432.955h-35.509c-5.521,0-9.997,4.477-9.997,9.997c0,5.521,4.477,9.997,9.997,9.997h35.509 c5.521,0,9.997-4.477,9.997-9.997C429.538,437.432,425.061,432.955,419.541,432.955z" style=""/>
    </g>
  </g>
  <g transform="matrix(0.209385, 0, 0, 0.209385, -31.41383, 379.139282)" style="">
    <g>
      <path d="M502.003,432.955h-35.509c-5.521,0-9.997,4.477-9.997,9.997c0,5.521,4.477,9.997,9.997,9.997h35.509 c5.521,0,9.997-4.477,9.997-9.997C512,437.432,507.523,432.955,502.003,432.955z" style=""/>
    </g>
  </g>
  <g transform="matrix(0.209385, 0, 0, 0.209385, -31.41383, 379.139282)" style="">
    <g>
      <path d="M419.541,432.955h-35.509c-5.521,0-9.997,4.477-9.997,9.997c0,5.521,4.477,9.997,9.997,9.997h35.509 c5.521,0,9.997-4.477,9.997-9.997C429.538,437.432,425.061,432.955,419.541,432.955z" style=""/>
    </g>
  </g>
  <g transform="matrix(0.209385, 0, 0, 0.209385, -100.936821, 379.156342)" style="">
    <g>
      <path d="M502.003,432.955h-35.509c-5.521,0-9.997,4.477-9.997,9.997c0,5.521,4.477,9.997,9.997,9.997h35.509 c5.521,0,9.997-4.477,9.997-9.997C512,437.432,507.523,432.955,502.003,432.955z" style=""/>
    </g>
  </g>
  <g transform="matrix(0.209385, 0, 0, 0.209385, 71.13839, 379.113739)" style="">
    <g>
      <path d="M502.003,432.955h-35.509c-5.521,0-9.997,4.477-9.997,9.997c0,5.521,4.477,9.997,9.997,9.997h35.509 c5.521,0,9.997-4.477,9.997-9.997C512,437.432,507.523,432.955,502.003,432.955z" style=""/>
    </g>
  </g>
  <g transform="matrix(0.209385, 0, 0, 0.209385, 71.13839, 379.113739)" style="">
    <g>
      <path d="M419.541,432.955h-35.509c-5.521,0-9.997,4.477-9.997,9.997c0,5.521,4.477,9.997,9.997,9.997h35.509 c5.521,0,9.997-4.477,9.997-9.997C429.538,437.432,425.061,432.955,419.541,432.955z" style=""/>
    </g>
  </g>
  <g transform="matrix(0.209385, 0, 0, 0.209385, 106.354469, 379.147797)" style="">
    <g>
      <path d="M502.003,432.955h-35.509c-5.521,0-9.997,4.477-9.997,9.997c0,5.521,4.477,9.997,9.997,9.997h35.509 c5.521,0,9.997-4.477,9.997-9.997C512,437.432,507.523,432.955,502.003,432.955z" style=""/>
    </g>
  </g>
  <g transform="matrix(0.209385, 0, 0, 0.209385, 106.354469, 379.147797)" style="">
    <g>
      <path d="M419.541,432.955h-35.509c-5.521,0-9.997,4.477-9.997,9.997c0,5.521,4.477,9.997,9.997,9.997h35.509 c5.521,0,9.997-4.477,9.997-9.997C429.538,437.432,425.061,432.955,419.541,432.955z" style=""/>
    </g>
  </g>
  <g transform="matrix(0.209385, 0, 0, 0.209385, 1.615407, 379.130798)" style="">
    <g>
      <path d="M502.003,432.955h-35.509c-5.521,0-9.997,4.477-9.997,9.997c0,5.521,4.477,9.997,9.997,9.997h35.509 c5.521,0,9.997-4.477,9.997-9.997C512,437.432,507.523,432.955,502.003,432.955z" style=""/>
    </g>
  </g>
  <g transform="matrix(0.209385, 0, 0, 0.209385, 1.615407, 379.130798)" style="">
    <g>
      <path d="M419.541,432.955h-35.509c-5.521,0-9.997,4.477-9.997,9.997c0,5.521,4.477,9.997,9.997,9.997h35.509 c5.521,0,9.997-4.477,9.997-9.997C429.538,437.432,425.061,432.955,419.541,432.955z" style=""/>
    </g>
  </g>
  <g transform="matrix(0.209385, 0, 0, 0.209385, 36.831501, 379.164856)" style="">
    <g>
      <path d="M502.003,432.955h-35.509c-5.521,0-9.997,4.477-9.997,9.997c0,5.521,4.477,9.997,9.997,9.997h35.509 c5.521,0,9.997-4.477,9.997-9.997C512,437.432,507.523,432.955,502.003,432.955z" style=""/>
    </g>
  </g>
  <g transform="matrix(0.209385, 0, 0, 0.209385, 36.831501, 379.164856)" style="">
    <g>
      <path d="M419.541,432.955h-35.509c-5.521,0-9.997,4.477-9.997,9.997c0,5.521,4.477,9.997,9.997,9.997h35.509 c5.521,0,9.997-4.477,9.997-9.997C429.538,437.432,425.061,432.955,419.541,432.955z" style=""/>
    </g>
  </g>
  <g transform="matrix(0.209385, 0, 0, 0.209385, 397.960938, 379.404419)" style="">
    <g>
      <path d="M502.003,432.955h-35.509c-5.521,0-9.997,4.477-9.997,9.997c0,5.521,4.477,9.997,9.997,9.997h35.509 c5.521,0,9.997-4.477,9.997-9.997C512,437.432,507.523,432.955,502.003,432.955z" style=""/>
    </g>
  </g>
  <g transform="matrix(0.162814, 0, 0, 0.162814, 404.61145, 405.622437)" style="">
    <g>
      <path d="M412.976,221.951c-9.248,0-18.202,1.278-26.699,3.66L341.669,112h45.646c5.764,0,10.903,3.659,12.79,9.105 c1.452,4.191,0.81,8.667-1.763,12.281c-2.572,3.614-6.592,5.686-11.027,5.686h-3.356c-5.523,0-10,4.477-10,10 c0,5.523,4.477,10,10,10h3.356c10.828,0,21.041-5.266,27.321-14.087c6.279-8.821,7.912-20.195,4.368-30.426 C414.329,101.065,401.595,92,387.315,92H327c-3.307,0-6.4,1.635-8.263,4.367c-1.863,2.732-2.254,6.209-1.045,9.288l27.136,69.113 h-99.491l-12.452-29.349c-1.502-3.829-5.196-6.347-9.309-6.347h-50.384c-9.216,0-17.817,4.546-23.009,12.16 s-6.281,17.282-2.915,25.86c4.213,10.738,14.389,17.676,25.924,17.676h41.151l-20.722,35.892 c-12.395-5.593-26.138-8.709-40.596-8.709c-51.227,0-93.493,39.101-98.522,89.024H33.065c-5.523,0-10,4.477-10,10s4.477,10,10,10 h21.437c2.834,28.133,17.495,52.826,38.918,69.024H49c-5.523,0-10,4.477-10,10s4.477,10,10,10h104.024 c51.227,0,93.493-39.101,98.522-89.024h18.008c4.245,13.308,16.724,22.976,31.421,22.976c6.245,0,12.09-1.745,17.074-4.774 c6.099,20.493,18.664,38.226,35.323,50.823h-52.396c-5.523,0-10,4.477-10,10s4.477,10,10,10h112 C467.578,420,512,375.578,512,320.976S467.578,221.951,412.976,221.951z M173.192,174.768c-3.251,0-6.119-1.955-7.306-4.98 c-0.963-2.454-0.664-5.111,0.822-7.289c1.485-2.178,3.849-3.427,6.484-3.427h43.565l6.16,15.696H173.192z M153.024,400 C109.45,400,74,364.55,74,320.976s35.45-79.024,79.024-79.024c10.818,0,21.133,2.189,30.532,6.141l-39.192,67.883 c-1.787,3.094-1.787,6.906,0,10c1.786,3.094,5.087,5,8.66,5h39.444c-4.469,17.617-20.457,30.691-39.444,30.691 c-5.523,0-10,4.477-10,10s4.477,10,10,10c30.058,0,55.069-21.969,59.853-50.691h18.517C226.46,369.843,193.209,400,153.024,400z M170.345,310.976l30.512-52.848c16.433,12.537,27.81,31.359,30.537,52.848H170.345z M251.546,310.976 c-2.909-28.873-18.275-54.121-40.624-70.283l23.565-40.815l48.57,111.098H251.546z M300.976,333.951 c-3.135,0-6.013-1.118-8.259-2.976h5.626c3.375,0,6.521-1.702,8.368-4.525c1.848-2.824,2.146-6.389,0.794-9.48l-3.792-8.673 c5.843,1.261,10.238,6.464,10.238,12.679C313.951,328.13,308.13,333.951,300.976,333.951z M300.976,288 c-2.004,0-3.866,0.596-5.431,1.611l-41.464-94.843h98.599l14.988,38.173c-23.72,12.257-41.877,33.823-49.618,59.833 C313.067,289.746,307.221,288,300.976,288z M412.976,400c-43.574,0-79.024-35.45-79.024-79.024 c0-29.829,16.616-55.844,41.075-69.293l28.641,72.948c1.547,3.941,5.318,6.348,9.311,6.348c1.216,0,2.452-0.224,3.652-0.695 c5.141-2.018,7.672-7.822,5.653-12.963l-28.649-72.967c6.192-1.564,12.67-2.403,19.341-2.403c43.574,0,79.024,35.45,79.024,79.024 C492,364.549,456.55,400,412.976,400z" style="fill: rgb(255, 198, 54);"/>
    </g>
  </g>
  <g transform="matrix(0.162814, 0, 0, 0.162814, 404.61145, 405.622437)" style="">
    <g>
      <path d="M17.07,402.93C15.21,401.07,12.63,400,10,400s-5.21,1.07-7.07,2.93S0,407.37,0,410s1.07,5.21,2.93,7.07 C4.79,418.93,7.37,420,10,420s5.21-1.07,7.07-2.93S20,412.63,20,410S18.93,404.79,17.07,402.93z" style=""/>
    </g>
  </g>
  <g transform="matrix(0.162814, 0, 0, 0.162814, 404.61145, 405.622437)" style="">
    <g>
      <path d="M126.995,174.768h-46.31c-5.523,0-10,4.477-10,10s4.477,10,10,10h46.31c5.523,0,10-4.477,10-10 S132.518,174.768,126.995,174.768z" style="fill: rgb(255, 198, 54);"/>
    </g>
  </g>
  <g transform="matrix(0.162814, 0, 0, 0.162814, 404.61145, 405.622437)" style="">
    <g>
      <path d="M41.315,174.768H30.333c-5.523,0-10,4.477-10,10s4.478,10,10,10h10.982c5.523,0,10-4.477,10-10 S46.838,174.768,41.315,174.768z" style="fill: rgb(255, 198, 54);"/>
    </g>
  </g>
  <g transform="matrix(0.162814, 0, 0, 0.162814, 404.61145, 405.622437)" style="">
    <g>
      <path d="M75.168,219H10c-5.523,0-10,4.477-10,10s4.477,10,10,10h65.168c5.523,0,10-4.477,10-10S80.691,219,75.168,219z" style="fill: rgb(255, 198, 54);"/>
    </g>
  </g>
  <g transform="matrix(0.162814, 0, 0, 0.162814, 404.61145, 405.622437)" style="">
    <g>
      <path d="M458.559,345.318c-4.274-3.498-10.574-2.868-14.072,1.405c-7.771,9.497-19.257,14.943-31.511,14.943 c-5.523,0-10,4.477-10,10s4.477,10,10,10c18.276,0,35.402-8.119,46.988-22.276C463.462,355.116,462.833,348.816,458.559,345.318z" style="fill: rgb(255, 198, 54);"/>
    </g>
  </g>
  <g transform="matrix(0.162814, 0, 0, 0.162814, 404.61145, 405.622437)" style="">
    <g>
      <path d="M463.667,310.976c-5.523,0-10,4.477-10,10v0.17c-0.035,5.523,4.415,10.028,9.937,10.063c0.021,0,0.043,0,0.064,0 c5.493,0,9.964-4.436,9.999-9.937v-0.296C473.667,315.453,469.189,310.976,463.667,310.976z" style="fill: rgb(255, 198, 54);"/>
    </g>
  </g>
  <g transform="matrix(0.162814, 0, 0, 0.162814, 404.61145, 405.622437)" style=""/>
  <g transform="matrix(0.162814, 0, 0, 0.162814, 404.61145, 405.622437)" style=""/>
  <g transform="matrix(0.162814, 0, 0, 0.162814, 404.61145, 405.622437)" style=""/>
  <g transform="matrix(0.162814, 0, 0, 0.162814, 404.61145, 405.622437)" style=""/>
  <g transform="matrix(0.162814, 0, 0, 0.162814, 404.61145, 405.622437)" style=""/>
  <g transform="matrix(0.162814, 0, 0, 0.162814, 404.61145, 405.622437)" style=""/>
  <g transform="matrix(0.162814, 0, 0, 0.162814, 404.61145, 405.622437)" style=""/>
  <g transform="matrix(0.162814, 0, 0, 0.162814, 404.61145, 405.622437)" style=""/>
  <g transform="matrix(0.162814, 0, 0, 0.162814, 404.61145, 405.622437)" style=""/>
  <g transform="matrix(0.162814, 0, 0, 0.162814, 404.61145, 405.622437)" style=""/>
  <g transform="matrix(0.162814, 0, 0, 0.162814, 404.61145, 405.622437)" style=""/>
  <g transform="matrix(0.162814, 0, 0, 0.162814, 404.61145, 405.622437)" style=""/>
  <g transform="matrix(0.162814, 0, 0, 0.162814, 404.61145, 405.622437)" style=""/>
  <g transform="matrix(0.162814, 0, 0, 0.162814, 404.61145, 405.622437)" style=""/>
  <g transform="matrix(0.162814, 0, 0, 0.162814, 404.61145, 405.622437)" style=""/>
  <g transform="matrix(0.134455, 0, 0, 0.134455, 153.092438, 412.951843)" style="">
    <g>
      <path d="M109.751,393.666c-27.801,0-50.418-22.617-50.418-50.418c0-5.522-4.478-10-10-10c-5.522,0-10,4.478-10,10 c0,38.828,31.59,70.418,70.418,70.418c5.522,0,10-4.478,10-10C119.751,398.144,115.273,393.666,109.751,393.666z" style="fill: rgb(255, 198, 54);"/>
    </g>
  </g>
  <g transform="matrix(0.134455, 0, 0, 0.134455, 153.092438, 412.951843)" style="">
    <g>
      <path d="M155.875,384.104c-3.843-3.964-10.175-4.063-14.141-0.219l-0.355,0.342c-3.98,3.828-4.104,10.159-0.274,14.14 c1.961,2.04,4.583,3.067,7.207,3.067c2.494,0,4.992-0.928,6.932-2.793l0.412-0.396 C159.621,394.401,159.719,388.07,155.875,384.104z" style="fill: rgb(255, 198, 54);"/>
    </g>
  </g>
  <g transform="matrix(0.134455, 0, 0, 0.134455, 153.092438, 412.951843)" style="">
    <g>
      <path d="M402.249,233.497c-26.02,0-49.949,9.108-68.78,24.295c-8.553-19.316-13.23-40.442-13.23-62.13v-53.663h19.719l9.364,55.47 c2.687,15.912,16.349,27.462,32.486,27.462h57.999c15.099,0,28.232-10.223,31.938-24.858l16.616-65.618 c0.757-2.99,0.092-6.163-1.803-8.598c-1.895-2.434-4.807-3.857-7.892-3.857h-92.938c3.816-6.274,6.015-13.635,6.015-21.5 c0-22.883-18.617-41.5-41.5-41.5h-40.006c-5.522,0-10,4.478-10,10c0,5.522,4.478,10,10,10h40.006c11.855,0,21.5,9.645,21.5,21.5 c0,11.855-9.645,21.5-21.5,21.5h-1.834h-38.172c-5.522,0-10,4.478-10,10v63.662c0,15.84,2.167,31.499,6.353,46.593 C272.164,248.623,246,278.85,246,315.094v16.432c-11.994-4.267-24.18-16.384-35.122-35.178 c-12.942-22.23-23.429-52.534-29.948-86.268h33.564c5.522,0,10-4.478,10-10c0-27.57-22.43-50-50-50h-31c-16.542,0-30,13.458-30,30 s13.458,30,30,30h17.086c2.686,14.619,6.094,28.708,10.117,41.939c-17.446-11.693-38.412-18.522-60.945-18.522 C49.234,233.497,0,282.731,0,343.248c0,37.05,18.458,69.868,46.657,89.751H10c-5.522,0-10,4.478-10,10c0,5.522,4.478,10,10,10 h99.751c57.145,0,104.222-43.904,109.291-99.751H246v25.751h-12.677c-5.522,0-10,4.478-10,10c0,5.522,4.478,10,10,10H256 c5.522,0,10-4.478,10-10v-45.751v-28.154c0-27.469,20.585-50.205,47.136-53.632c1.555,3.814,3.25,7.575,5.076,11.28 c-16.038,19.085-25.715,43.685-25.715,70.506c0,37.05,18.458,69.868,46.657,89.751h-36.657c-5.522,0-10,4.478-10,10 c0,5.522,4.478,10,10,10h99.751c60.518,0,109.752-49.234,109.752-109.751C512,282.731,462.766,233.497,402.249,233.497z M465.819,141.999l-13.463,53.163c-1.456,5.752-6.617,9.769-12.55,9.769h-57.999c-6.341,0-11.71-4.538-12.766-10.792l-8.801-52.14 H465.819z M143.493,190.08c-5.514,0-10-4.486-10-10c0-5.514,4.486-10,10-10h31c13.037,0,24.159,8.359,28.286,20H143.493z M109.751,432.999C60.262,432.999,20,392.737,20,343.248s40.262-89.751,89.751-89.751c20.339,0,39.116,6.805,54.184,18.251 l-61.431,64.609c-2.756,2.898-3.52,7.159-1.942,10.834c1.576,3.675,5.19,6.057,9.189,6.057h89.191 C193.952,398.048,155.86,432.999,109.751,432.999z M133.058,333.248l45.367-47.715c11.121,13.211,18.506,29.662,20.517,47.715 H133.058z M402.249,432.999c-49.489,0-89.751-40.262-89.751-89.751c0-19.258,6.099-37.118,16.463-51.752 c17.126,26.033,40.853,46.987,68.885,60.731c1.416,0.694,2.917,1.023,4.395,1.023c3.696,0,7.25-2.058,8.986-5.6 c2.432-4.959,0.383-10.95-4.576-13.381c-26.719-13.101-48.61-33.639-63.682-58.349c15.823-13.948,36.578-22.424,59.279-22.424 c49.489,0,89.751,40.262,89.751,89.751C491.999,392.736,451.738,432.999,402.249,432.999z" style="fill: rgb(255, 198, 54);"/>
    </g>
  </g>
  <g transform="matrix(0.134455, 0, 0, 0.134455, 153.092438, 412.951843)" style="">
    <g>
      <path d="M402.249,393.666c-27.801,0-50.418-22.617-50.418-50.418c0-5.522-4.478-10-10-10c-5.522,0-10,4.478-10,10 c0,38.828,31.59,70.418,70.418,70.418c5.522,0,10-4.478,10-10C412.249,398.144,407.771,393.666,402.249,393.666z" style="fill: rgb(255, 198, 54);"/>
    </g>
  </g>
  <g transform="matrix(0.134455, 0, 0, 0.134455, 153.092438, 412.951843)" style="">
    <g>
      <path d="M448.345,384.075c-3.861-3.949-10.19-4.022-14.142-0.164l-0.327,0.315c-3.98,3.828-4.104,10.159-0.274,14.14 c1.963,2.041,4.584,3.067,7.208,3.067c2.494,0,4.992-0.928,6.932-2.793l0.438-0.423 C452.13,394.358,452.204,388.027,448.345,384.075z" style="fill: rgb(255, 198, 54);"/>
    </g>
  </g>
  <g transform="matrix(0.134455, 0, 0, 0.134455, 153.092438, 412.951843)" style=""/>
  <g transform="matrix(0.134455, 0, 0, 0.134455, 153.092438, 412.951843)" style=""/>
  <g transform="matrix(0.134455, 0, 0, 0.134455, 153.092438, 412.951843)" style=""/>
  <g transform="matrix(0.134455, 0, 0, 0.134455, 153.092438, 412.951843)" style=""/>
  <g transform="matrix(0.134455, 0, 0, 0.134455, 153.092438, 412.951843)" style=""/>
  <g transform="matrix(0.134455, 0, 0, 0.134455, 153.092438, 412.951843)" style=""/>
  <g transform="matrix(0.134455, 0, 0, 0.134455, 153.092438, 412.951843)" style=""/>
  <g transform="matrix(0.134455, 0, 0, 0.134455, 153.092438, 412.951843)" style=""/>
  <g transform="matrix(0.134455, 0, 0, 0.134455, 153.092438, 412.951843)" style=""/>
  <g transform="matrix(0.134455, 0, 0, 0.134455, 153.092438, 412.951843)" style=""/>
  <g transform="matrix(0.134455, 0, 0, 0.134455, 153.092438, 412.951843)" style=""/>
  <g transform="matrix(0.134455, 0, 0, 0.134455, 153.092438, 412.951843)" style=""/>
  <g transform="matrix(0.134455, 0, 0, 0.134455, 153.092438, 412.951843)" style=""/>
  <g transform="matrix(0.134455, 0, 0, 0.134455, 153.092438, 412.951843)" style=""/>
  <g transform="matrix(0.134455, 0, 0, 0.134455, 153.092438, 412.951843)" style=""/>
  <g transform="matrix(0.137252, 0, 0, 0.137252, 11.687437, 414.834076)" style="">
    <g>
      <path d="M46.786,384.157l-0.473-0.47c-3.905-3.905-10.238-3.905-14.144,0c-3.905,3.905-3.905,10.238,0,14.144l0.591,0.586 c1.948,1.916,4.48,2.871,7.013,2.871c2.587,0,5.174-0.998,7.131-2.988C50.776,394.362,50.723,388.03,46.786,384.157z" style="fill: rgb(255, 198, 54);"/>
    </g>
  </g>
  <g transform="matrix(0.137252, 0, 0, 0.137252, 11.687437, 414.834076)" style="">
    <g>
      <path d="M401.988,210.03c-13.391,0-26.231,2.408-38.111,6.81L335.5,123.973h59.627c4.136,0,7.9,2.44,9.587,6.218 c1.479,3.311,1.196,6.955-0.777,9.998c-1.973,3.042-5.185,4.787-8.811,4.787h-9.297c-5.524,0-10.001,4.477-10.001,10.001 s4.477,10.001,10.001,10.001h9.297c10.378,0,19.945-5.199,25.593-13.905c5.647-8.708,6.491-19.564,2.257-29.04 c-4.903-10.971-15.834-18.061-27.85-18.061h-73.141c-3.17,0-6.153,1.503-8.039,4.051s-2.452,5.84-1.525,8.872l12.262,40.129 h-15.457c-5.524,0-10.001,4.477-10.001,10.001c0,5.524,4.477,10.001,10.001,10.001h21.568l14.841,48.567 c-23.257,13.928-40.966,36.198-48.968,62.645c-6.98-5.597-15.827-8.955-25.449-8.955c-2.714,0-5.366,0.272-7.932,0.781 l-48.986-103.038h21.167c5.524,0,10.001-4.477,10.001-10.001c0-5.524-4.477-10.001-10.001-10.001h-30.677l-5.263-11.07h24.772 c5.524,0,10.001-4.477,10.001-10.001c0-29.778-24.227-54.006-54.006-54.006h-37.693c-10.315,0-20.052,5.011-26.046,13.406 c-5.994,8.395-7.573,19.231-4.223,28.988c4.438,12.927,16.603,21.612,30.269,21.612h34.779l9.725,20.455l-31.033,53.751 c-40.652-18.72-90.458-11.357-123.908,22.091C2.252,272.167-7.879,317.255,6.357,357.116c1.858,5.201,7.579,7.913,12.782,6.055 c5.202-1.858,7.913-7.581,6.055-12.782c-11.65-32.62-3.361-69.514,21.118-93.994c26.911-26.911,66.752-33.16,99.698-18.801 l-10.078,17.456c-8.038-3.224-16.798-5.016-25.975-5.016c-38.602,0-70.007,31.405-70.007,70.007s31.405,70.007,70.007,70.007 c35.206,0,64.413-26.126,69.281-60.006h20.162c-2.226,20.258-11.178,39.026-25.798,53.646 c-24.845,24.846-62.182,32.972-95.126,20.704c-5.176-1.928-10.935,0.706-12.862,5.882c-1.928,5.177,0.706,10.935,5.882,12.862 c12.454,4.638,25.422,6.891,38.295,6.891c28.733,0,56.986-11.226,77.956-32.195c18.403-18.403,29.476-42.178,31.769-67.789h12.192 c3.66,14.453,15.059,25.852,29.512,29.512v10.492h-9.248c-5.524,0-10.001,4.477-10.001,10.001s4.477,10.001,10.001,10.001h19.249 c5.524,0,10.001-4.477,10.001-10.001v-20.493c5.728-1.45,10.97-4.12,15.448-7.71c13.675,45.203,55.712,78.209,105.318,78.209 c60.66,0,110.011-49.351,110.011-110.011S462.649,210.03,401.988,210.03z M142.606,125.952c-5.125,0-9.688-3.257-11.352-8.104 c-1.274-3.713-0.697-7.676,1.584-10.871c2.281-3.195,5.842-5.027,9.767-5.027h37.693c15.271,0,28.223,10.118,32.503,24.002 H142.606z M109.958,370.046c-27.573,0-50.005-22.432-50.005-50.005s22.432-50.005,50.005-50.005 c5.533,0,10.852,0.917,15.831,2.583l-24.492,42.421c-0.022,0.038-0.035,0.068-0.055,0.105c-0.815,1.448-1.285,3.116-1.285,4.896 c0,5.524,4.477,10.001,10.001,10.001h48.999C154.311,352.838,134.107,370.046,109.958,370.046z M127.28,310.04l15.82-27.4 c7.954,7.056,13.655,16.597,15.858,27.4H127.28z M179.24,310.04c-2.61-18.165-12.22-34.089-26.001-44.963l10.107-17.506 c3.583,2.643,7.016,5.582,10.258,8.824c14.62,14.62,23.571,33.386,25.798,53.645H179.24z M231.709,310.04h-12.192 c-2.293-25.61-13.366-49.386-31.768-67.789c-4.505-4.505-9.312-8.532-14.349-12.091l24.14-41.812l47.694,100.321 C238.684,294.103,233.86,301.544,231.709,310.04z M261.221,323.992v14.224c-6.405-3.537-10.755-10.356-10.755-18.176 c0-4.518,1.468-8.691,3.928-12.103l6.944,14.604C261.269,323.017,261.221,323.498,261.221,323.992z M281.222,338.218v-14.224 c0-0.688-0.07-1.359-0.202-2.008c0.406-2.038,0.194-4.217-0.767-6.239l-7.797-16.399c10.868,0.645,19.52,9.666,19.52,20.693 C291.977,327.861,287.627,334.68,281.222,338.218z M364.427,287.084l4.327,14.162c0.521,1.706,1.489,3.24,2.803,4.446 l23.669,21.716c1.92,1.762,4.342,2.631,6.759,2.631c2.704,0,5.4-1.09,7.372-3.239c3.733-4.068,3.461-10.395-0.608-14.13 l-21.662-19.875l-5.606-18.345c6.263-2.828,13.2-4.416,20.506-4.416c27.573,0,50.005,22.432,50.005,50.005 c0,27.573-22.432,50.005-50.005,50.005s-50.005-22.432-50.005-50.005C351.983,307.423,356.69,295.891,364.427,287.084z M401.988,410.05c-49.631,0-90.009-40.378-90.009-90.009c0-31.019,15.773-58.424,39.719-74.616l6.2,20.289 c-15.799,12.846-25.916,32.424-25.916,54.327c0,38.602,31.405,70.007,70.007,70.007s70.007-31.405,70.007-70.007 s-31.405-70.007-70.007-70.007c-9.332,0-18.236,1.85-26.385,5.179l-5.868-19.201c10.018-3.858,20.891-5.98,32.252-5.98 c49.631,0,90.009,40.378,90.009,90.009S451.62,410.05,401.988,410.05z" style="fill: rgb(255, 198, 54);"/>
    </g>
  </g>
  <g transform="matrix(0.137252, 0, 0, 0.137252, 11.687437, 414.834076)" style="">
    <g>
      <path d="M279.956,159.949c-1.86-1.86-4.43-2.93-7.071-2.93c-2.63,0-5.211,1.07-7.071,2.93c-1.86,1.86-2.93,4.44-2.93,7.071 c0,2.64,1.07,5.211,2.93,7.071c1.86,1.87,4.44,2.93,7.071,2.93c2.64,0,5.211-1.06,7.071-2.93c1.87-1.86,2.93-4.43,2.93-7.071 C282.886,164.39,281.826,161.81,279.956,159.949z" style="fill: rgb(255, 198, 54);"/>
    </g>
  </g>
</svg>