<?xml version="1.0" encoding="iso-8859-1"?>
<!-- Generator: Adobe Illustrator 19.0.0, SVG Export Plug-In . SVG Version: 6.00 Build 0)  -->
<svg version="1.1" id="Layer_1" xmlns="http://www.w3.org/2000/svg" xmlns:xlink="http://www.w3.org/1999/xlink" x="0px" y="0px"
	 viewBox="0 0 502 502" style="enable-background:new 0 0 502 502;" xml:space="preserve">
<g>
	<g>
		<g>
			<path d="M428.484,73.517C381.076,26.108,318.044,0,251,0S120.924,26.108,73.516,73.517C26.108,120.924,0,183.955,0,251
				s26.108,130.076,73.516,177.483C120.924,475.892,183.956,502,251,502s130.076-26.108,177.484-73.517
				C475.892,381.076,502,318.045,502,251S475.892,120.924,428.484,73.517z M251,482C123.626,482,20,378.374,20,251
				S123.626,20,251,20s231,103.626,231,231S378.374,482,251,482z"/>
			<path d="M251,51C140.72,51,51,140.72,51,251s89.72,200,200,200s200-89.72,200-200S361.28,51,251,51z M251,431
				c-99.252,0-180-80.748-180-180S151.748,71,251,71s180,80.748,180,180S350.252,431,251,431z"/>
			<path d="M388.115,196.926c-0.75-2.922-2.778-5.349-5.521-6.605c-1.477-0.677-36.666-16.663-80.496-24.769
				c-26.085-4.824-49.822-5.818-70.55-2.954c-26.791,3.701-48.651,13.854-64.973,30.176c-16.943,16.944-26.274,39.472-26.274,63.434
				c0,16.924,4.674,33.121,13.378,47.151c-6.498,9.164-12.026,18.218-16.445,26.978c-2.487,4.931-0.507,10.944,4.424,13.432
				c1.445,0.729,2.982,1.074,4.497,1.074c3.655,0,7.177-2.012,8.936-5.498c3.207-6.356,7.097-12.924,11.586-19.609
				c16.933,16.881,39.418,26.179,63.333,26.179c23.962,0,46.49-9.331,63.433-26.274c31.288-31.286,90.509-110.893,93.015-114.266
				C388.255,202.952,388.864,199.848,388.115,196.926z M279.3,305.497c-13.166,13.166-30.671,20.417-49.291,20.417
				s-36.125-7.251-49.291-20.417c-13.166-13.165-20.417-30.671-20.417-49.29c0-18.62,7.251-36.125,20.417-49.291
				c19.406-19.406,46.857-25.931,75.008-25.931c31.718,0,64.314,8.284,87.279,15.762c-21.568,4.619-51.686,12.398-78.008,24.016
				c-5.053,2.23-7.34,8.134-5.11,13.187c1.651,3.739,5.313,5.965,9.154,5.965c1.349,0,2.72-0.275,4.033-0.854
				c27.5-12.138,60.338-19.988,81.116-24.171C334.033,241.252,299.792,285.006,279.3,305.497z"/>
			<path d="M237.151,235.841c-5.128,3.484-9.679,7.144-13.527,10.876c-3.964,3.845-4.061,10.176-0.216,14.14
				c1.961,2.022,4.569,3.038,7.179,3.038c2.508,0,5.019-0.938,6.961-2.822c3.02-2.929,6.668-5.853,10.842-8.688
				c4.568-3.104,5.755-9.323,2.651-13.892C247.938,233.923,241.719,232.737,237.151,235.841z"/>
			<path d="M251,105c10.093,0,20.172,1.034,29.958,3.074c0.688,0.144,1.375,0.213,2.051,0.213c4.636,0,8.795-3.243,9.779-7.961
				c1.127-5.406-2.342-10.703-7.749-11.83C273.915,86.176,262.462,85,251,85c-5.523,0-10,4.478-10,10
				C241,100.522,245.477,105,251,105z"/>
			<path d="M210.751,110.615c5.31-1.52,8.382-7.056,6.863-12.365s-7.054-8.381-12.365-6.863
				c-33.973,9.721-64.571,30.611-86.158,58.822C96.789,179.355,85,214.209,85,251c0,5.522,4.477,10,10,10s10-4.478,10-10
				C105,186.16,148.487,128.432,210.751,110.615z"/>
		</g>
	</g>
</g>
<g>
</g>
<g>
</g>
<g>
</g>
<g>
</g>
<g>
</g>
<g>
</g>
<g>
</g>
<g>
</g>
<g>
</g>
<g>
</g>
<g>
</g>
<g>
</g>
<g>
</g>
<g>
</g>
<g>
</g>
</svg>
