<?xml version="1.0" encoding="iso-8859-1"?>
<!-- Generator: Adobe Illustrator 19.0.0, SVG Export Plug-In . SVG Version: 6.00 Build 0)  -->
<svg version="1.1" id="Capa_1" xmlns="http://www.w3.org/2000/svg" xmlns:xlink="http://www.w3.org/1999/xlink" x="0px" y="0px"
	 viewBox="0 0 511.999 511.999" style="enable-background:new 0 0 511.999 511.999;" xml:space="preserve">
<g>
	<g>
		<path d="M480.92,180.734L426.769,59.822c-10.279-22.951-32.258-38.033-57.357-39.36c-12.088-0.615-23.61,5.852-29.313,16.539
			l-0.949,1.776c-3.97,7.435-4.572,16.233-1.655,24.14c2.917,7.907,9.091,14.205,16.939,17.28
			c10.369,4.063,18.57,11.905,23.093,22.083l17.932,40.35c-0.396-0.004-0.79-0.015-1.187-0.015
			c-50.621,0-93.879,32.115-110.478,77.041c-18.006-7.21-37.584-7.209-55.589,0.002c-16.219-43.894-57.885-75.559-107.005-76.988
			l17.95-40.391c4.521-10.177,12.723-18.019,23.094-22.082c7.848-3.075,14.021-9.373,16.938-17.28
			c2.917-7.906,2.314-16.705-1.656-24.141l-0.947-1.774c-5.706-10.689-17.209-17.196-29.314-16.54
			c-25.101,1.327-47.078,16.409-57.357,39.359l-50.47,112.681C15.255,194.079,0,225.462,0,260.345
			c0,64.916,52.813,117.729,117.729,117.729c31.198,0,59.598-12.199,80.684-32.076c-2.778,5.556-5.515,11.219-8.137,16.905
			c-3.997,8.667-7.501,16.898-10.413,24.466c-4.178,10.857-7.267,20.681-9.18,29.198c-3.335,14.849-3.278,26.24,0.174,34.824
			c8.026,19.965,31.134,16.565,53.476,13.285c10.335-1.52,21.021-3.09,31.651-3.09s21.315,1.57,31.65,3.09
			c8.465,1.244,17.038,2.504,24.86,2.504c12.825,0,23.629-3.388,28.616-15.788c6.614-16.45,0.688-44.876-18.117-86.901
			c-2.597-5.803-5.318-11.592-8.088-17.276c20.945,19.155,48.811,30.86,79.365,30.86c64.916,0,117.729-52.813,117.729-117.729
			C512,229.674,500.206,201.708,480.92,180.734z M361.729,61.576c-2.572-1.008-4.516-2.99-5.472-5.582s-0.767-5.36,0.533-7.796
			l0.95-1.777c2.064-3.868,6.226-6.225,10.613-5.986c17.575,0.929,32.964,11.49,40.161,27.563l39.164,87.446
			c-9.123-4.664-18.931-8.168-29.229-10.327l-22.646-50.959C389.129,79.141,377.027,67.57,361.729,61.576z M235.459,238.293
			c13.303-5.357,27.779-5.357,41.082,0v13.688c-6.743-1.943-13.642-2.915-20.541-2.915c-6.899,0-13.798,0.972-20.541,2.915V238.293z
			 M234.727,273.447c13.748-5.761,28.798-5.761,42.547,0c0.299,2.687,0.691,5.346,1.168,7.976
			c-5.429-6.199-13.373-9.902-21.753-9.902c-9.354,0-18.205,4.63-23.575,12.203C233.797,280.348,234.34,276.921,234.727,273.447z
			 M108.158,67.996c7.197-16.071,22.586-26.633,40.161-27.562c0.199-0.011,0.396-0.016,0.595-0.016
			c4.161,0,8.048,2.309,10.021,6.004l0.947,1.774c1.301,2.437,1.49,5.205,0.534,7.797c-0.956,2.592-2.899,4.574-5.471,5.582
			c-15.302,5.994-27.403,17.565-34.075,32.581l-22.226,50.013c-9.932,1.626-19.449,4.498-28.387,8.452L108.158,67.996z
			 M117.729,358.075c-53.888,0-97.729-43.841-97.729-97.73s43.841-97.73,97.729-97.73s97.729,43.842,97.729,97.73
			S171.618,358.075,117.729,358.075z M322.555,443.93c-0.441,1.097-1.107,2.756-6.983,3.213c-6.326,0.492-15.413-0.841-25.028-2.255
			c-10.531-1.548-22.467-3.302-34.559-3.302s-24.028,1.754-34.56,3.302c-9.615,1.413-18.699,2.748-25.028,2.255
			c-5.875-0.457-6.541-2.115-6.983-3.214c-1.049-2.608-2.342-9.063,0.784-22.979c1.7-7.567,4.503-16.449,8.332-26.397
			c2.758-7.166,6.092-14.997,9.909-23.273c14.025-30.411,31.488-60.344,40.65-75.479c1.597-2.639,4.509-4.278,7.6-4.278
			c3.121,0,6.048,1.664,7.638,4.342C306.316,366.618,329.717,426.122,322.555,443.93z M394.271,358.075
			c-53.889,0-97.729-43.841-97.729-97.729s43.841-97.73,97.729-97.73S492,206.457,492,260.345S448.159,358.075,394.271,358.075z"/>
	</g>
</g>
<g>
	<g>
		<path d="M117.729,175.977c-46.521,0-84.37,37.849-84.37,84.371c0,4.645,0.382,9.309,1.135,13.864
			c0.9,5.448,6.038,9.134,11.498,8.234c5.448-0.901,9.134-6.049,8.234-11.498c-0.575-3.479-0.867-7.045-0.867-10.601
			c0-35.494,28.876-64.371,64.37-64.371s64.37,28.877,64.37,64.371c0,35.494-28.876,64.37-64.37,64.37
			c-8.695,0-17.123-1.701-25.053-5.055c-5.086-2.154-10.953,0.229-13.105,5.314c-2.152,5.085,0.227,10.954,5.314,13.105
			c10.407,4.403,21.458,6.635,32.844,6.635c46.522,0,84.371-37.849,84.37-84.368C202.099,213.826,164.25,175.977,117.729,175.977z"
			/>
	</g>
</g>
<g>
	<g>
		<path d="M470.37,223.875c-2.391-4.979-8.364-7.074-13.343-4.688c-4.979,2.391-7.078,8.364-4.688,13.343
			c4.182,8.711,6.302,18.069,6.302,27.816c0,35.494-28.876,64.37-64.37,64.37c-35.494,0-64.37-28.876-64.37-64.37
			c0-35.494,28.876-64.371,64.37-64.371c5.522,0,10-4.478,10-10c0-5.522-4.478-10-10-10c-46.521,0-84.37,37.849-84.37,84.371
			c0,46.521,37.849,84.37,84.37,84.37s84.37-37.849,84.37-84.37C478.641,247.578,475.857,235.308,470.37,223.875z"/>
	</g>
</g>
<g>
	<g>
		<path d="M440.28,189.905c-1.86-1.861-4.44-2.93-7.07-2.93s-5.21,1.07-7.07,2.93c-1.86,1.86-2.93,4.44-2.93,7.07
			s1.071,5.21,2.93,7.069c1.86,1.861,4.44,2.931,7.07,2.931s5.21-1.07,7.07-2.931c1.86-1.859,2.93-4.439,2.93-7.069
			S442.139,191.765,440.28,189.905z"/>
	</g>
</g>
<g>
	<g>
		<path d="M67.08,300.165c-1.86-1.86-4.44-2.93-7.07-2.93s-5.21,1.071-7.07,2.93c-1.86,1.86-2.93,4.44-2.93,7.07
			c0,2.64,1.071,5.21,2.93,7.08c1.86,1.86,4.44,2.92,7.07,2.92s5.21-1.059,7.07-2.92c1.86-1.87,2.93-4.45,2.93-7.08
			S68.939,302.035,67.08,300.165z"/>
	</g>
</g>
<g>
	<g>
		<path d="M198.931,447.248c-5.522,0-10,4.478-10,10v24.334c0,5.522,4.478,10,10,10c5.522,0,10-4.478,10-10v-24.334
			C208.931,451.726,204.453,447.248,198.931,447.248z"/>
	</g>
</g>
<g>
	<g>
		<path d="M236.977,447.248c-5.522,0-10,4.478-10,10v24.334c0,5.522,4.478,10,10,10c5.522,0,10-4.478,10-10v-24.334
			C246.977,451.726,242.499,447.248,236.977,447.248z"/>
	</g>
</g>
<g>
	<g>
		<path d="M275.023,447.248c-5.522,0-10,4.478-10,10v24.334c0,5.522,4.478,10,10,10c5.523,0,10-4.478,10-10v-24.334
			C285.023,451.726,280.545,447.248,275.023,447.248z"/>
	</g>
</g>
<g>
	<g>
		<path d="M313.069,447.248c-5.522,0-10,4.478-10,10v24.334c0,5.522,4.478,10,10,10c5.523,0,10-4.478,10-10v-24.334
			C323.069,451.726,318.591,447.248,313.069,447.248z"/>
	</g>
</g>
<g>
</g>
<g>
</g>
<g>
</g>
<g>
</g>
<g>
</g>
<g>
</g>
<g>
</g>
<g>
</g>
<g>
</g>
<g>
</g>
<g>
</g>
<g>
</g>
<g>
</g>
<g>
</g>
<g>
</g>
</svg>
