<?xml version="1.0" encoding="iso-8859-1"?>
<!-- Generator: Adobe Illustrator 19.0.0, SVG Export Plug-In . SVG Version: 6.00 Build 0)  -->
<svg version="1.1" id="Layer_1" xmlns="http://www.w3.org/2000/svg" xmlns:xlink="http://www.w3.org/1999/xlink" x="0px" y="0px"
	 viewBox="0 0 512.001 512.001" style="enable-background:new 0 0 512.001 512.001;" xml:space="preserve">
<g>
	<g>
		<path d="M508.395,108.044L403.956,3.605c-4.806-4.806-12.6-4.806-17.408,0L90.638,299.517c-4.808,4.806-4.808,12.6,0,17.406
			c4.805,4.808,12.6,4.808,17.406,0L395.253,29.714l87.032,87.032l-17.406,17.406l-26.11-26.11c-4.806-4.806-12.6-4.806-17.408,0
			c-4.806,4.806-4.806,12.6,0,17.408l26.11,26.11l-17.406,17.406l-8.703-8.703c-4.806-4.806-12.6-4.806-17.408,0
			c-4.806,4.806-4.806,12.6,0,17.408l8.703,8.703l-17.406,17.406l-8.703-8.703c-4.806-4.806-12.6-4.806-17.408,0
			c-4.806,4.806-4.806,12.6,0,17.408l8.703,8.703l-17.406,17.406l-8.703-8.703c-4.806-4.806-12.6-4.806-17.406,0
			c-4.806,4.806-4.806,12.6,0,17.406l8.703,8.703l-17.406,17.406l-27.85-27.85c-4.806-4.806-12.6-4.806-17.408,0
			c-4.806,4.806-4.806,12.6,0,17.408l27.85,27.85l-17.406,17.406l-8.703-8.703c-4.806-4.806-12.6-4.806-17.408,0
			c-4.806,4.806-4.806,12.6,0,17.408l8.703,8.703l-17.406,17.406l-8.703-8.703c-4.806-4.806-12.6-4.806-17.406,0
			c-4.806,4.806-4.808,12.6,0,17.406l8.703,8.703l-17.406,17.406l-8.703-8.703c-4.806-4.806-12.6-4.806-17.408,0
			c-4.806,4.806-4.806,12.6,0,17.408l8.703,8.703l-17.406,17.406l-26.111-26.11c-4.806-4.806-12.6-4.806-17.406,0
			c-4.806,4.806-4.806,12.6,0,17.406l26.11,26.11l-17.406,17.406l-8.703-8.703c-4.806-4.806-12.6-4.806-17.408,0
			c-4.806,4.806-4.806,12.6,0,17.408l8.703,8.703l-17.406,17.406l-87.032-87.032l26.11-26.11c4.806-4.806,4.806-12.6,0-17.408
			s-12.6-4.806-17.408,0L3.605,386.549c-4.806,4.806-4.806,12.6,0,17.408l104.439,104.439c2.404,2.404,5.554,3.605,8.703,3.605
			c3.15,0,6.301-1.201,8.703-3.605l104.433-104.433c0.002-0.003,0.004-0.004,0.006-0.006c0.002-0.003,0.004-0.004,0.006-0.006
			l174.054-174.054c0.002-0.003,0.004-0.004,0.006-0.006c0.003-0.003,0.004-0.004,0.006-0.006l34.802-34.8
			c0.003-0.002,0.004-0.004,0.006-0.006c0.002-0.002,0.004-0.004,0.006-0.006l69.621-69.621
			C513.202,120.644,513.202,112.851,508.395,108.044z"/>
	</g>
</g>
<g>
	<g>
		<path d="M85.297,331.93c-0.16-0.788-0.394-1.563-0.702-2.314c-0.308-0.739-0.689-1.452-1.132-2.117
			c-0.443-0.677-0.96-1.305-1.526-1.871c-0.566-0.566-1.194-1.083-1.871-1.526c-0.665-0.455-1.379-0.825-2.129-1.132
			c-0.738-0.308-1.514-0.554-2.302-0.702c-1.588-0.32-3.225-0.32-4.813,0c-0.775,0.148-1.551,0.394-2.302,0.702
			c-0.738,0.308-1.452,0.677-2.117,1.132c-0.677,0.443-1.305,0.96-1.871,1.526c-0.566,0.566-1.083,1.194-1.539,1.871
			c-0.443,0.665-0.825,1.379-1.132,2.117c-0.308,0.751-0.542,1.526-0.702,2.314c-0.16,0.788-0.234,1.6-0.234,2.4
			s0.074,1.612,0.234,2.4c0.16,0.788,0.394,1.563,0.702,2.302c0.308,0.751,0.689,1.465,1.132,2.129
			c0.455,0.677,0.972,1.305,1.539,1.871c0.566,0.566,1.194,1.083,1.871,1.526c0.665,0.443,1.379,0.825,2.117,1.132
			c0.751,0.308,1.526,0.542,2.302,0.702c0.8,0.16,1.612,0.246,2.412,0.246c0.8,0,1.612-0.086,2.4-0.246
			c0.788-0.16,1.563-0.394,2.302-0.702c0.751-0.308,1.465-0.689,2.129-1.132c0.677-0.443,1.305-0.96,1.871-1.526
			c0.566-0.566,1.083-1.194,1.526-1.871c0.443-0.665,0.825-1.379,1.132-2.129c0.308-0.738,0.542-1.514,0.702-2.302
			c0.16-0.788,0.246-1.6,0.246-2.4C85.543,333.53,85.457,332.717,85.297,331.93z"/>
	</g>
</g>
<g>
</g>
<g>
</g>
<g>
</g>
<g>
</g>
<g>
</g>
<g>
</g>
<g>
</g>
<g>
</g>
<g>
</g>
<g>
</g>
<g>
</g>
<g>
</g>
<g>
</g>
<g>
</g>
<g>
</g>
</svg>
