<?xml version="1.0" encoding="utf-8"?>
<svg viewBox="0 0 500 312" xmlns="http://www.w3.org/2000/svg">
  <g transform="matrix(0.184447, 0, 0, 0.184447, 39.506233, 209.072159)" style=""/>
  <g transform="matrix(0.184447, 0, 0, 0.184447, 39.506233, 209.072159)" style=""/>
  <g transform="matrix(0.184447, 0, 0, 0.184447, 39.506233, 209.072159)" style=""/>
  <g transform="matrix(0.184447, 0, 0, 0.184447, 39.506233, 209.072159)" style=""/>
  <g transform="matrix(0.184447, 0, 0, 0.184447, 39.506233, 209.072159)" style=""/>
  <g transform="matrix(0.184447, 0, 0, 0.184447, 39.506233, 209.072159)" style=""/>
  <g transform="matrix(0.184447, 0, 0, 0.184447, 39.506233, 209.072159)" style=""/>
  <g transform="matrix(0.184447, 0, 0, 0.184447, 39.506233, 209.072159)" style=""/>
  <g transform="matrix(0.184447, 0, 0, 0.184447, 39.506233, 209.072159)" style=""/>
  <g transform="matrix(0.184447, 0, 0, 0.184447, 39.506233, 209.072159)" style=""/>
  <g transform="matrix(0.184447, 0, 0, 0.184447, 39.506233, 209.072159)" style=""/>
  <g transform="matrix(0.184447, 0, 0, 0.184447, 39.506233, 209.072159)" style=""/>
  <g transform="matrix(0.184447, 0, 0, 0.184447, 39.506233, 209.072159)" style=""/>
  <g transform="matrix(0.184447, 0, 0, 0.184447, 39.506233, 209.072159)" style=""/>
  <g transform="matrix(0.184447, 0, 0, 0.184447, 39.506233, 209.072159)" style=""/>
  <g fill-rule="evenodd" transform="matrix(0.43318, 0, 0, 0.43318, 252.137482, 39.271229)" style="">
    <path d="m401.464844 153.480469c-60.953125 0-110.539063 49.585937-110.539063 110.539062 0 15.433594 3.128907 30.382813 9.304688 44.429688.066406.148437.132812.296875.207031.445312l28.167969 56.417969c2.46875 4.941406 8.472656 6.945312 13.414062 4.480469 4.941407-2.46875 6.949219-8.472657 4.480469-13.414063l-28.058594-56.195312c-4.988281-11.429688-7.515625-23.597656-7.515625-36.167969 0-49.921875 40.613281-90.535156 90.535157-90.535156 49.925781 0 90.539062 40.613281 90.539062 90.535156 0 12.570313-2.53125 24.738281-7.519531 36.167969l-83.019531 166.28125-19.222657-38.5c-2.46875-4.941406-8.476562-6.945313-13.414062-4.480469-4.941407 2.46875-6.945313 8.472656-4.480469 13.414063l20.949219 41.953124h-304.601563c-25.300781 0-45.886718-20.585937-45.886718-45.886718 0-25.304688 20.582031-45.886719 45.886718-45.886719h94.933594c36.332031 0 65.886719-29.558594 65.886719-65.890625 0-36.328125-29.554688-65.886719-65.886719-65.886719h-70.570312l65.027343-130.242187c.074219-.148438.144531-.292969.207031-.441406 4.96875-11.296876 7.484376-23.316407 7.484376-35.730469 0-49.011719-39.875-88.886719-88.886719-88.886719s-88.886719 39.875-88.886719 88.886719c0 12.410156 2.515625 24.433593 7.480469 35.730469.066406.148437.136719.296874.210937.441406l18.253906 36.5625c2.464844 4.941406 8.472657 6.949218 13.414063 4.480468 4.941406-2.464843 6.945313-8.472656 4.480469-13.414062l-18.144532-36.335938c-3.78125-8.679687-5.695312-17.921874-5.695312-27.464843 0-37.984375 30.902344-68.886719 68.886719-68.886719s68.886719 30.902344 68.886719 68.886719c0 9.546875-1.917969 18.785156-5.695313 27.464843l-63.191406 126.5625-9.308594-18.640624c-2.464844-4.941407-8.46875-6.945313-13.414063-4.480469-4.9375 2.46875-6.945312 8.472656-4.476562 13.414062l18.253906 36.5625c.011719.03125.035156.054688.046875.085938.195313.378906.410157.746093.648438 1.097656.027343.039063.0625.078125.089843.121094.210938.296875.441407.582031.683594.851562.070313.085938.144532.167969.222656.246094.273438.292969.5625.570313.871094.828125.003906.003906.007813.007812.015625.011719.316407.265625.65625.5 1.003907.722656.082031.050781.164062.101563.246093.148437.308594.1875.628907.355469.960938.507813.046875.023437.097656.050781.148437.070313.382813.167968.777344.3125 1.1875.433593.070313.019531.140625.035157.210938.054688.335937.089843.675781.160156 1.023437.214843.105469.019532.210938.035157.316407.050782.417968.050781.835937.089844 1.269531.089844h86.738281c25.304688 0 45.886719 20.582031 45.886719 45.886718 0 25.300782-20.582031 45.886719-45.886719 45.886719h-94.933594c-36.332031 0-65.886718 29.558594-65.886718 65.886719 0 36.332031 29.554687 65.890625 65.886718 65.890625h320.769532.003906c.429687 0 .847656-.039063 1.265625-.089844.105469-.015625.214843-.03125.320312-.050781.34375-.054688.683594-.125 1.015625-.214844.070313-.019531.148438-.035156.21875-.058594.40625-.117187.800782-.261718 1.179688-.425781.058594-.027344.113281-.054687.167968-.082031.324219-.148438.636719-.316406.9375-.496094.089844-.050781.175782-.101562.265626-.160156.34375-.21875.675781-.453125.988281-.710938.019531-.015625.035156-.03125.054687-.046875.292969-.246093.566406-.511719.832032-.789062.082031-.085938.160156-.175781.238281-.265625.230469-.261719.449219-.53125.648437-.8125.039063-.054688.082032-.105469.121094-.160156.234375-.339844.441406-.703126.632812-1.074219.019532-.035157.042969-.0625.058594-.097657l92.078125-184.425781c.074219-.148437.144531-.296875.207031-.445312 6.175782-14.046875 9.304688-28.992188 9.304688-44.429688 0-60.953125-49.585938-110.539062-110.535156-110.539062zm0 0" style="fill: rgb(251, 251, 251);"/>
    <path d="m142.335938 88.886719c0-29.472657-23.976563-53.449219-53.449219-53.449219-29.472657 0-53.449219 23.976562-53.449219 53.449219 0 29.472656 23.976562 53.449219 53.449219 53.449219 29.472656 0 53.449219-23.976563 53.449219-53.449219zm-86.898438 0c0-18.445313 15.003906-33.449219 33.449219-33.449219 18.441406 0 33.449219 15.003906 33.449219 33.449219 0 18.441406-15.007813 33.449219-33.449219 33.449219-18.445313 0-33.449219-15.007813-33.449219-33.449219zm0 0" style="fill: rgb(251, 251, 251);"/>
    <path d="m466.835938 264.015625c0-36.046875-29.324219-65.371094-65.371094-65.371094-36.050782 0-65.375 29.328125-65.375 65.371094 0 36.046875 29.324218 65.375 65.375 65.375 36.046875 0 65.371094-29.328125 65.371094-65.375zm-110.746094 0c0-25.019531 20.351562-45.371094 45.375-45.371094 25.019531 0 45.371094 20.351563 45.371094 45.371094s-20.351563 45.375-45.371094 45.375c-25.023438 0-45.375-20.355469-45.375-45.375zm0 0" style="fill: rgb(251, 251, 251);"/>
    <path d="m355.421875 406.640625c5.507813 0 10-4.492187 10-10s-4.492187-10-10-10-10 4.492187-10 10 4.492187 10 10 10zm0 0" style="fill: rgb(251, 251, 251);"/>
    <path d="m52.761719 202.945312c5.507812 0 10-4.492187 10-10 0-5.507812-4.492188-10-10-10-5.507813 0-10 4.492188-10 10 0 5.507813 4.492187 10 10 10zm0 0" style="fill: rgb(251, 251, 251);"/>
  </g>
  <g transform="matrix(0.123225, 0, 0, 0.123225, 320.639221, 195.403885)" style="">
    <g>
      <path d="M410,230.802c-10.388,0-20.417,1.565-29.867,4.465l-3.025-6.848h17.708c5.523,0,10-4.478,10-10v-40 c0-5.522-4.477-10-10-10h-20c-7.964,0-15.208,3.126-20.585,8.207l-15.382-34.824h5.175c11.356,0,21.666-5.788,27.578-15.484 c5.913-9.695,6.338-21.512,1.138-31.608c-5.563-10.801-16.567-17.511-28.716-17.511h-22.187c-5.523,0-10,4.478-10,10 c0,5.522,4.477,10,10,10h22.187c4.627,0,8.817,2.556,10.936,6.67c2.01,3.901,1.852,8.289-0.433,12.036 c-2.286,3.748-6.114,5.897-10.503,5.897H323.5c-3.381,0-6.533,1.708-8.379,4.541c-1.845,2.833-2.135,6.406-0.769,9.499 l15.065,34.106H300.87c-32.923,0-64.807,8.143-93.154,22.935l-7.858-18.591h11.005c5.523,0,10-4.478,10-10c0-27.57-22.43-50-50-50 h-31c-16.542,0-30,13.458-30,30s13.458,30,30,30h38.282l12.171,28.796c-16.07,10.536-30.659,23.372-43.238,38.188 c-13.709-6.742-29.05-10.474-45.078-10.474c-56.243,0-102,45.757-102,102c0,33.571,16.305,63.402,41.408,82H10 c-5.523,0-10,4.478-10,10c0,5.522,4.477,10,10,10h92c22.198,0,43.303-7.009,61.034-20.27 c15.128-11.314,26.962-26.871,33.881-44.353l35.448,2.744L228.3,385.8h-13.843c-5.523,0-10,4.478-10,10c0,5.522,4.477,10,10,10 h21.174c4.364,0,8.224-2.83,9.537-6.991l7.667-24.302l3.403,0.263c0.257,0.021,0.514,0.03,0.772,0.03c23.159,0,42-18.841,42-42 c0-15.834-8.811-29.646-21.784-36.801l2.988-11.159c8.894-33.221,39.124-56.423,73.515-56.423c0.499,0,0.985-0.049,1.464-0.119 l6.49,14.693C329.747,260.242,308,294.029,308,332.802c0,33.571,16.305,63.402,41.408,82H297c-5.523,0-10,4.478-10,10 c0,5.522,4.477,10,10,10h113c56.243,0,102-45.757,102-102C512,276.558,466.243,230.802,410,230.802z M139.863,154.292 c-5.514,0-10-4.486-10-10s4.486-10,10-10h31c13.038,0,24.159,8.359,28.287,20H139.863z M198.244,221.843l30.073,71.15 l-31.403,2.431c-6.9-17.556-18.318-32.434-32.661-43.471C174.325,240.474,185.769,230.385,198.244,221.843z M151.923,267.708 c10.005,7.667,18.249,17.651,23.899,29.348l-43.586,3.374l11.364-19.683C146.193,276.258,148.983,271.919,151.923,267.708z M102,414.802c-45.215,0-82-36.785-82-82c0-45.215,36.785-82,82-82c11.497,0,22.551,2.391,32.629,6.752 c-2.935,4.275-5.734,8.664-8.35,13.195l-18.218,31.555l-6.486,0.502C85.228,303.031,72,316.401,72,332.802 s13.228,29.77,29.576,29.997l74.257,5.748C162.322,396.635,133.991,414.802,102,414.802z M279.01,332.8 c0,11.429-8.763,20.831-19.921,21.884l5.955-18.875c1.662-5.267-1.261-10.884-6.528-12.546 c-5.267-1.659-10.884,1.262-12.545,6.528l-7.43,23.549l-135.769-10.51c-0.257-0.021-0.514-0.03-0.772-0.03 c-5.514,0-10-4.486-10-10c0-5.514,4.486-10,10-10c0.258,0,0.515-0.01,0.772-0.03l154.589-11.967 C269.331,310.991,279.01,320.786,279.01,332.8z M260.894,279.669l-2.986,11.155c-0.3-0.006-0.596-0.023-0.897-0.023 c-0.258,0-0.515,0.01-0.772,0.03l-6.895,0.534l-33.822-80.019c25.89-13.802,55.137-21.399,85.349-21.399H336 c0.738,0,1.455-0.085,2.147-0.237l8.388,18.991C306.138,211.732,271.5,240.052,260.894,279.669z M374.816,188.419h10v20h-10 c-5.514,0-10-4.486-10-10C364.816,192.904,369.302,188.419,374.816,188.419z M410,414.802c-45.215,0-82-36.785-82-82 c0-30.614,16.875-57.345,41.8-71.429l33.335,75.469c1.651,3.738,5.313,5.963,9.153,5.963c1.35,0,2.721-0.275,4.035-0.855 c5.052-2.231,7.338-8.136,5.107-13.188l-33.137-75.021c6.919-1.902,14.192-2.938,21.707-2.938c45.215,0,82,36.785,82,82 C492,378.017,455.215,414.802,410,414.802z" style="fill: rgb(251, 251, 251);"/>
    </g>
  </g>
  <g transform="matrix(0.123225, 0, 0, 0.123225, 320.639221, 195.403885)" style="">
    <g>
      <path d="M263.07,417.729c-1.86-1.86-4.43-2.93-7.07-2.93c-2.63,0-5.21,1.07-7.07,2.93s-2.93,4.44-2.93,7.07s1.07,5.21,2.93,7.07 c1.86,1.859,4.44,2.93,7.07,2.93s5.21-1.07,7.07-2.93s2.93-4.44,2.93-7.07S264.93,419.589,263.07,417.729z" style="fill: rgb(251, 251, 251);"/>
    </g>
  </g>
  <g transform="matrix(0.078281, 0, 0, 0.078281, 376.903046, 112.89608)" style=""/>
  <g transform="matrix(0.078281, 0, 0, 0.078281, 376.903046, 112.89608)" style=""/>
  <g transform="matrix(0.078281, 0, 0, 0.078281, 376.903046, 112.89608)" style=""/>
  <g transform="matrix(0.078281, 0, 0, 0.078281, 376.903046, 112.89608)" style=""/>
  <g transform="matrix(0.078281, 0, 0, 0.078281, 376.903046, 112.89608)" style=""/>
  <g transform="matrix(0.078281, 0, 0, 0.078281, 376.903046, 112.89608)" style=""/>
  <g transform="matrix(0.078281, 0, 0, 0.078281, 376.903046, 112.89608)" style=""/>
  <g transform="matrix(0.078281, 0, 0, 0.078281, 376.903046, 112.89608)" style=""/>
  <g transform="matrix(0.078281, 0, 0, 0.078281, 376.903046, 112.89608)" style=""/>
  <g transform="matrix(0.078281, 0, 0, 0.078281, 376.903046, 112.89608)" style=""/>
  <g transform="matrix(0.078281, 0, 0, 0.078281, 376.903046, 112.89608)" style=""/>
  <g transform="matrix(0.078281, 0, 0, 0.078281, 376.903046, 112.89608)" style=""/>
  <g transform="matrix(0.078281, 0, 0, 0.078281, 376.903046, 112.89608)" style=""/>
  <g transform="matrix(0.078281, 0, 0, 0.078281, 376.903046, 112.89608)" style=""/>
  <g transform="matrix(0.078281, 0, 0, 0.078281, 376.903046, 112.89608)" style=""/>
</svg>