<?xml version="1.0" encoding="utf-8"?>
<svg viewBox="0 0 500 312" xmlns="http://www.w3.org/2000/svg">
  <g transform="matrix(0.330773, 0, 0, 0.330773, 305.860138, 74.233864)" style="">
    <g>
      <path d="M268.05,2.93C266.18,1.07,263.61,0,260.98,0c-2.64,0-5.22,1.07-7.08,2.93s-2.92,4.44-2.92,7.07s1.06,5.21,2.92,7.07 s4.44,2.93,7.08,2.93c2.63,0,5.21-1.07,7.07-2.93c1.86-1.86,2.93-4.44,2.93-7.07S269.91,4.79,268.05,2.93z" style="fill: rgb(251, 251, 251);"/>
    </g>
  </g>
  <g transform="matrix(0.330773, 0, 0, 0.330773, 305.860138, 74.233864)" style="">
    <g>
      <path d="M318.782,111.544c-3.343,0-6.61,0.324-9.784,0.917l-19.726-50.264c-1.502-3.829-5.196-6.347-9.309-6.347h-18.988 c-5.523,0-10,4.477-10,10c0,5.523,4.477,10,10,10h12.17l4.371,11.137h-56.494c-4.057,0-7.712,2.451-9.252,6.205l-7.964,19.413 c-3.423-0.694-6.963-1.061-10.588-1.061c-29.345,0-53.218,23.874-53.218,53.218c0,29.344,23.874,53.218,53.218,53.218 c25.926,0,47.569-18.639,52.263-43.218h21.038c4.694,24.579,26.337,43.218,52.263,43.218c29.345,0,53.218-23.874,53.218-53.218 C372,135.418,348.126,111.544,318.782,111.544z M214.486,139.268c4.813,4.022,8.474,9.377,10.41,15.494H208.13L214.486,139.268z M193.218,197.98c-18.316,0-33.218-14.902-33.218-33.218c0-18.316,14.902-33.218,33.218-33.218c0.933,0,1.854,0.048,2.768,0.124 l-12.019,29.299c-1.265,3.084-0.91,6.596,0.947,9.365c1.857,2.769,4.971,4.43,8.305,4.43h31.677 C220.642,188.206,208.051,197.98,193.218,197.98z M266.519,154.762h-21.038c-2.752-14.41-11.328-26.771-23.183-34.537 l5.431-13.237h57.637l5.022,12.797C278.179,127.519,269.324,140.076,266.519,154.762z M318.782,197.979 c-18.316,0-33.218-14.902-33.218-33.218c0-10.414,4.821-19.72,12.344-25.815l11.565,29.468c1.547,3.941,5.318,6.35,9.311,6.35 c1.215,0,2.451-0.223,3.651-0.694c5.141-2.018,7.673-7.821,5.655-12.962l-11.569-29.479c0.748-0.051,1.5-0.086,2.261-0.086 c18.316,0,33.218,14.902,33.218,33.218S337.098,197.979,318.782,197.979z" style="fill: rgb(251, 251, 251);"/>
    </g>
  </g>
  <g transform="matrix(0.330773, 0, 0, 0.330773, 305.860138, 74.233864)" style="">
    <g>
      <path d="M217.65,55.85h-20.854c-5.523,0-10,4.477-10,10c0,5.523,4.477,10,10,10h20.854c5.523,0,10-4.477,10-10 S223.173,55.85,217.65,55.85z" style="fill: rgb(251, 251, 251);"/>
    </g>
  </g>
  <g transform="matrix(0.330773, 0, 0, 0.330773, 305.860138, 74.233864)" style="">
    <g>
      <path d="M316,424h-83c-5.523,0-10,4.477-10,10s4.477,10,10,10h83c5.523,0,10-4.477,10-10S321.523,424,316,424z" style="fill: rgb(251, 251, 251);"/>
    </g>
  </g>
  <g transform="matrix(0.330773, 0, 0, 0.330773, 305.860138, 74.233864)" style="">
    <g>
      <path d="M203.07,426.93c-1.86-1.86-4.44-2.93-7.07-2.93s-5.21,1.07-7.07,2.93S186,431.37,186,434s1.07,5.21,2.93,7.07 c1.86,1.86,4.44,2.93,7.07,2.93s5.21-1.07,7.07-2.93S206,436.63,206,434S204.93,428.79,203.07,426.93z" style="fill: rgb(251, 251, 251);"/>
    </g>
  </g>
  <g transform="matrix(0.330773, 0, 0, 0.330773, 305.860138, 74.233864)" style="">
    <g>
      <path d="M279,456h-46c-5.523,0-10,4.477-10,10s4.477,10,10,10h46c5.523,0,10-4.477,10-10S284.523,456,279,456z" style="fill: rgb(251, 251, 251);"/>
    </g>
  </g>
  <g transform="matrix(0.330773, 0, 0, 0.330773, 305.860138, 74.233864)" style="">
    <g>
      <path d="M474,26h-64V10c0-5.523-4.477-10-10-10h-93.667c-5.523,0-10,4.477-10,10s4.477,10,10,10H390v134.627 c0,22.931-5.795,44.969-16.681,64.452c-0.328,0.475-0.613,0.978-0.855,1.505c-5.762,10.001-12.874,19.31-21.255,27.69 l-1.562,1.562c-25.014,25.015-58.272,38.791-93.648,38.791c-35.376,0-68.634-13.776-93.648-38.791l-1.562-1.562 c-8.38-8.38-15.492-17.69-21.255-27.69c-0.242-0.527-0.527-1.03-0.855-1.505C127.795,199.596,122,177.558,122,154.627V20h94 c5.523,0,10-4.477,10-10s-4.477-10-10-10H112c-5.523,0-10,4.477-10,10v16H38c-5.523,0-10,4.477-10,10v92.899 c0,52.842,39.514,97.837,91.914,104.662c0.037,0.005,0.073,0.01,0.11,0.014l4.266,0.508c6.236,10.172,13.709,19.684,22.359,28.334 l1.562,1.562c17.59,17.59,38.725,30.341,61.791,37.609v45.886c-18.33,5.818-32.363,21.352-36.041,40.526H111 c-5.523,0-10,4.477-10,10v104c0,5.523,4.477,10,10,10h290c5.523,0,10-4.477,10-10V398c0-5.523-4.477-10-10-10h-62.959 c-3.678-19.174-17.711-34.708-36.041-40.526v-45.886c23.065-7.268,44.201-20.019,61.791-37.609l1.562-1.562 c8.65-8.65,16.123-18.162,22.359-28.334l4.266-0.508c0.037-0.004,0.073-0.009,0.11-0.014C444.486,226.736,484,181.741,484,128.899 V36C484,30.477,479.523,26,474,26z M102.541,167.47C91.083,158.188,84,144.016,84,128.899V82h18v72.627 C102,158.939,102.189,163.221,102.541,167.47z M48,128.899V46h54v16H74c-5.523,0-10,4.477-10,10v56.899 c0,27.895,17.17,53.487,42.882,64.209c1.663,6.422,3.743,12.712,6.226,18.838C75.398,202.656,48,168.507,48,128.899z M230,306.429 c8.505,1.453,17.195,2.198,26,2.198s17.495-0.745,26-2.198V345h-52V306.429z M391,408v84H121v-84H391z M317.452,388H194.548 c4.245-13.324,16.739-23,31.452-23h60C300.712,365,313.207,374.676,317.452,388z M410,154.627V82h18v46.899 c0,15.117-7.083,29.288-18.541,38.571C409.811,163.221,410,158.939,410,154.627z M464,128.899 c0,39.608-27.398,73.756-65.108,83.047c2.484-6.126,4.563-12.416,6.226-18.838C430.83,182.386,448,156.794,448,128.899V72 c0-5.523-4.477-10-10-10h-28V46h54V128.899z" style="fill: rgb(251, 251, 251);"/>
    </g>
  </g>
  <g transform="matrix(0.330773, 0, 0, 0.330773, 305.860138, 74.233864)" style=""/>
  <g transform="matrix(0.330773, 0, 0, 0.330773, 305.860138, 74.233864)" style=""/>
  <g transform="matrix(0.330773, 0, 0, 0.330773, 305.860138, 74.233864)" style=""/>
  <g transform="matrix(0.330773, 0, 0, 0.330773, 305.860138, 74.233864)" style=""/>
  <g transform="matrix(0.330773, 0, 0, 0.330773, 305.860138, 74.233864)" style=""/>
  <g transform="matrix(0.330773, 0, 0, 0.330773, 305.860138, 74.233864)" style=""/>
  <g transform="matrix(0.330773, 0, 0, 0.330773, 305.860138, 74.233864)" style=""/>
  <g transform="matrix(0.330773, 0, 0, 0.330773, 305.860138, 74.233864)" style=""/>
  <g transform="matrix(0.330773, 0, 0, 0.330773, 305.860138, 74.233864)" style=""/>
  <g transform="matrix(0.330773, 0, 0, 0.330773, 305.860138, 74.233864)" style=""/>
  <g transform="matrix(0.330773, 0, 0, 0.330773, 305.860138, 74.233864)" style=""/>
  <g transform="matrix(0.330773, 0, 0, 0.330773, 305.860138, 74.233864)" style=""/>
  <g transform="matrix(0.330773, 0, 0, 0.330773, 305.860138, 74.233864)" style=""/>
  <g transform="matrix(0.330773, 0, 0, 0.330773, 305.860138, 74.233864)" style=""/>
  <g transform="matrix(0.330773, 0, 0, 0.330773, 305.860138, 74.233864)" style=""/>
</svg>