<?xml version="1.0" encoding="utf-8"?>
<svg viewBox="0 0 500 312" xmlns="http://www.w3.org/2000/svg">
  <g transform="matrix(0.186534, 0, 0, 0.186534, 385.548462, 103.335732)" style="">
    <g>
      <g>
        <path d="M492.163,454.245L385.268,347.351c-8.029-8.03-10.395-20.054-6.029-30.635c6.694-16.218,9.946-33.415,9.665-51.112 c-0.542-34.085-14.142-65.942-38.293-89.701c-24.148-23.754-56.222-36.837-90.315-36.837c-33.927,0-65.938,13.093-90.136,36.865 c-24.167,23.741-37.828,55.452-38.466,89.29c-0.655,34.698,12.45,67.532,36.899,92.454 c24.435,24.908,56.989,38.631,91.664,38.641c0.013,0,0.026,0,0.039,0c19.403,0,38.054-4.217,55.437-12.532 c10.861-5.196,23.792-3.055,32.176,5.331l104.693,104.693c5.283,5.282,12.308,8.192,19.78,8.192 c7.472,0,14.496-2.91,19.781-8.195C503.069,482.898,503.069,465.152,492.163,454.245z M478.022,479.663 c-1.507,1.506-3.509,2.336-5.639,2.336s-4.133-0.83-5.639-2.335L362.052,374.972c-9.165-9.165-21.465-13.993-33.974-13.993 c-7.104,0-14.277,1.558-20.975,4.763c-14.667,7.016-30.414,10.574-46.806,10.574c-0.011,0-0.022,0-0.033,0 c-29.263-0.008-56.748-11.603-77.394-32.647c-20.659-21.058-31.732-48.784-31.18-78.07 c1.108-58.742,49.828-106.532,108.605-106.532c59.951,0,107.658,46.936,108.61,106.855c0.239,14.957-2.506,29.48-8.154,43.165 c-7.459,18.075-3.387,38.646,10.374,52.408l106.896,106.892C481.129,471.496,481.129,476.555,478.022,479.663z" style="fill: rgb(251, 251, 251);"/>
        <path d="M260.295,175.732c-50.706,0-91.959,41.252-91.959,91.959s41.253,91.959,91.959,91.959s91.959-41.252,91.959-91.959 C352.254,216.984,311.001,175.732,260.295,175.732z M260.295,339.65c-39.679,0-71.959-32.281-71.959-71.959 s32.28-71.959,71.959-71.959c39.679,0,71.959,32.281,71.959,71.959S299.974,339.65,260.295,339.65z" style="fill: rgb(251, 251, 251);"/>
        <path d="M11.658,114.075h288.565c5.523,0,10-4.477,10-10s-4.478-10-10-10H11.658c-5.522,0-10,4.477-10,10 S6.136,114.075,11.658,114.075z" style="fill: rgb(251, 251, 251);"/>
        <path d="M192.408,414.351H11.658c-5.522,0-10,4.477-10,10s4.478,10,10,10h180.75c5.522,0,10-4.477,10-10 S197.93,414.351,192.408,414.351z" style="fill: rgb(251, 251, 251);"/>
        <path d="M11.658,162.218H141.67c5.523,0,10-4.477,10-10c0-5.523-4.478-10-10-10H11.658c-5.522,0-10,4.477-10,10 C1.658,157.741,6.136,162.218,11.658,162.218z" style="fill: rgb(251, 251, 251);"/>
        <path d="M11.658,389.956H141.67c5.523,0,10-4.477,10-10s-4.478-10-10-10H11.658c-5.522,0-10,4.477-10,10 S6.136,389.956,11.658,389.956z" style="fill: rgb(251, 251, 251);"/>
        <path d="M11.658,208.149h96.188c5.523,0,10-4.477,10-10s-4.478-10-10-10H11.658c-5.522,0-10,4.477-10,10 S6.136,208.149,11.658,208.149z" style="fill: rgb(251, 251, 251);"/>
        <path d="M11.658,344.504h96.188c5.523,0,10-4.477,10-10s-4.478-10-10-10H11.658c-5.522,0-10,4.477-10,10 S6.136,344.504,11.658,344.504z" style="fill: rgb(251, 251, 251);"/>
        <path d="M11.658,253.601h88.789c5.522,0,10-4.477,10-10c0-5.523-4.478-10-10-10H11.658c-5.522,0-10,4.477-10,10 C1.658,249.124,6.136,253.601,11.658,253.601z" style="fill: rgb(251, 251, 251);"/>
        <path d="M11.658,300.11h88.789c5.522,0,10-4.477,10-10s-4.478-10-10-10H11.658c-5.522,0-10,4.477-10,10 S6.136,300.11,11.658,300.11z" style="fill: rgb(251, 251, 251);"/>
        <path d="M347.79,114.075h28.539c5.522,0,10-4.477,10-10s-4.478-10-10-10H347.79c-5.522,0-10,4.477-10,10 S342.268,114.075,347.79,114.075z" style="fill: rgb(251, 251, 251);"/>
        <path d="M11.658,68.623h288.565c5.523,0,10-4.477,10-10s-4.478-10-10-10H11.658c-5.522,0-10,4.477-10,10 S6.136,68.623,11.658,68.623z" style="fill: rgb(251, 251, 251);"/>
        <path d="M347.79,68.623h28.539c5.522,0,10-4.477,10-10s-4.478-10-10-10H347.79c-5.522,0-10,4.477-10,10 S342.268,68.623,347.79,68.623z" style="fill: rgb(251, 251, 251);"/>
        <path d="M11.658,20h288.565c5.523,0,10-4.477,10-10s-4.478-10-10-10H11.658c-5.522,0-10,4.477-10,10S6.136,20,11.658,20z" style="fill: rgb(251, 251, 251);"/>
        <path d="M347.79,20h28.539c5.522,0,10-4.477,10-10s-4.478-10-10-10H347.79c-5.522,0-10,4.477-10,10S342.268,20,347.79,20z" style="fill: rgb(251, 251, 251);"/>
      </g>
    </g>
  </g>
  <g transform="matrix(0.146884, 0, 0, 0.146884, 400, 111.278938)" style=""/>
  <g transform="matrix(0.146884, 0, 0, 0.146884, 400, 111.278938)" style=""/>
  <g transform="matrix(0.146884, 0, 0, 0.146884, 400, 111.278938)" style=""/>
  <g transform="matrix(0.146884, 0, 0, 0.146884, 400, 111.278938)" style=""/>
  <g transform="matrix(0.146884, 0, 0, 0.146884, 400, 111.278938)" style=""/>
  <g transform="matrix(0.146884, 0, 0, 0.146884, 400, 111.278938)" style=""/>
  <g transform="matrix(0.146884, 0, 0, 0.146884, 400, 111.278938)" style=""/>
  <g transform="matrix(0.146884, 0, 0, 0.146884, 400, 111.278938)" style=""/>
  <g transform="matrix(0.146884, 0, 0, 0.146884, 400, 111.278938)" style=""/>
  <g transform="matrix(0.146884, 0, 0, 0.146884, 400, 111.278938)" style=""/>
  <g transform="matrix(0.146884, 0, 0, 0.146884, 400, 111.278938)" style=""/>
  <g transform="matrix(0.146884, 0, 0, 0.146884, 400, 111.278938)" style=""/>
  <g transform="matrix(0.146884, 0, 0, 0.146884, 400, 111.278938)" style=""/>
  <g transform="matrix(0.146884, 0, 0, 0.146884, 400, 111.278938)" style=""/>
  <g transform="matrix(0.146884, 0, 0, 0.146884, 400, 111.278938)" style=""/>
  <g transform="matrix(0.058204, 0, 0, 0.058204, 62.490772, 171.300095)" style="">
    <g>
      <path d="M505.577,278.213l-16.807-10.247c-4.271-2.604-6.72-6.966-6.72-11.967c0-5.001,2.449-9.363,6.719-11.967l16.808-10.247 c3.516-2.142,5.358-6.22,4.643-10.274l-4.219-23.931c-0.714-4.053-3.841-7.255-7.876-8.067l-19.3-3.881 c-4.903-0.986-8.696-4.247-10.406-8.946c-1.711-4.7-0.901-9.636,2.222-13.544l12.289-15.379c2.57-3.216,2.907-7.678,0.848-11.242 l-12.149-21.043c-2.057-3.566-6.095-5.5-10.16-4.887l-19.464,2.953c-4.947,0.749-9.623-1.018-12.838-4.847 c-3.216-3.832-4.143-8.748-2.545-13.487l6.288-18.654c1.314-3.9,0.104-8.208-3.049-10.854l-18.614-15.619 c-3.153-2.645-7.604-3.09-11.22-1.117l-17.277,9.433c-4.391,2.396-9.393,2.336-13.724-0.165c-4.331-2.5-6.884-6.802-7.004-11.802 l-0.471-19.68c-0.098-4.115-2.709-7.75-6.577-9.157l-22.834-8.311c-3.869-1.409-8.203-0.302-10.924,2.787l-13.012,14.772 c-3.304,3.753-8.022,5.409-12.95,4.539c-4.926-0.868-8.796-4.037-10.618-8.695l-7.174-18.332C275.962,2.522,272.265,0,268.149,0 H243.85c-4.117,0-7.813,2.522-9.313,6.355l-7.174,18.333c-1.822,4.657-5.692,7.826-10.618,8.694 c-4.923,0.874-9.644-0.785-12.951-4.539l-13.011-14.772c-2.721-3.09-7.056-4.198-10.924-2.787l-22.834,8.311 c-3.868,1.407-6.478,5.042-6.577,9.157l-0.471,19.68c-0.12,5-2.673,9.302-7.004,11.802c-4.333,2.501-9.335,2.561-13.723,0.165 l-17.278-9.433c-3.615-1.972-8.067-1.529-11.22,1.117L82.138,67.702c-3.153,2.645-4.363,6.954-3.049,10.854l6.288,18.654 c1.598,4.739,0.671,9.655-2.545,13.487c-3.214,3.83-7.891,5.597-12.839,4.847l-19.463-2.953c-4.066-0.613-8.101,1.323-10.16,4.887 l-12.149,21.043c-2.058,3.564-1.721,8.026,0.848,11.242l12.29,15.38c3.122,3.907,3.932,8.843,2.221,13.543 c-1.71,4.699-5.503,7.96-10.406,8.946l-19.3,3.881c-4.035,0.811-7.162,4.013-7.876,8.067l-4.219,23.931 c-0.714,4.053,1.127,8.131,4.643,10.274l16.807,10.247c4.271,2.604,6.72,6.966,6.72,11.967c0,5.001-2.449,9.363-6.719,11.967 L6.422,278.213c-3.516,2.142-5.358,6.22-4.643,10.274l4.22,23.932c0.714,4.053,3.841,7.255,7.876,8.067l19.3,3.881 c4.903,0.986,8.696,4.247,10.406,8.946c1.711,4.7,0.901,9.636-2.222,13.544L29.07,362.236c-2.57,3.216-2.907,7.678-0.848,11.242 l12.149,21.043c2.058,3.566,6.101,5.506,10.16,4.887l19.464-2.953c4.947-0.75,9.623,1.018,12.838,4.847 c3.216,3.832,4.143,8.748,2.545,13.487l-6.288,18.654c-1.314,3.9-0.104,8.208,3.049,10.854l18.612,15.619 c3.154,2.646,7.606,3.091,11.22,1.117l17.277-9.433c4.39-2.398,9.391-2.336,13.724,0.165c4.331,2.5,6.884,6.802,7.004,11.802 l0.471,19.68c0.098,4.115,2.709,7.75,6.577,9.157l22.834,8.311c3.87,1.411,8.204,0.303,10.924-2.787l13.012-14.772 c3.304-3.753,8.023-5.413,12.95-4.539c4.926,0.868,8.796,4.037,10.618,8.695l7.174,18.332c1.5,3.833,5.197,6.355,9.313,6.355 h24.299c4.117,0,7.813-2.522,9.314-6.356l7.174-18.333c1.822-4.657,5.692-7.826,10.618-8.694 c4.924-0.871,9.644,0.785,12.951,4.539l13.011,14.772c2.721,3.089,7.055,4.197,10.924,2.787l22.834-8.311 c3.868-1.407,6.478-5.042,6.577-9.157l0.471-19.68c0.12-5,2.673-9.302,7.004-11.802c4.331-2.501,9.334-2.562,13.723-0.165 l17.278,9.433c3.615,1.972,8.067,1.53,11.22-1.117l18.614-15.619c3.153-2.645,4.363-6.954,3.049-10.854l-6.288-18.654 c-1.598-4.739-0.671-9.655,2.545-13.487c3.214-3.83,7.893-5.598,12.839-4.847l19.463,2.953c4.075,0.617,8.102-1.323,10.16-4.887 l12.149-21.043c2.058-3.564,1.721-8.026-0.848-11.242l-12.29-15.38c-3.122-3.907-3.932-8.843-2.221-13.543 c1.71-4.699,5.503-7.96,10.406-8.946l19.3-3.881c4.035-0.811,7.162-4.013,7.876-8.067l4.219-23.931 C510.934,284.434,509.093,280.356,505.577,278.213z M487.491,302.222l-12.608,2.535c-11.725,2.359-21.167,10.476-25.257,21.714 c-4.09,11.238-2.075,23.525,5.391,32.868l8.028,10.048l-5.324,9.221l-12.714-1.929c-11.827-1.795-23.473,2.603-31.161,11.765 c-7.688,9.161-9.997,21.397-6.177,32.731l4.108,12.187l-8.157,6.845l-11.288-6.162c-10.496-5.731-22.948-5.581-33.306,0.398 c-10.357,5.981-16.712,16.689-16.998,28.645l-0.308,12.856l-10.007,3.642l-8.499-9.65c-7.906-8.975-19.657-13.094-31.433-11.017 c-11.779,2.077-21.413,9.966-25.771,21.103l-4.687,11.977h-10.648l-4.685-11.976c-4.359-11.137-13.993-19.027-25.771-21.103 c-11.781-2.075-23.529,2.041-31.432,11.017l-8.5,9.65l-10.007-3.642l-0.308-12.856c-0.286-11.957-6.641-22.665-16.998-28.645 c-10.359-5.979-22.809-6.128-33.307-0.398l-11.287,6.162l-8.157-6.845l4.108-12.187c3.82-11.334,1.51-23.57-6.177-32.731 c-7.687-9.161-19.341-13.561-31.16-11.765l-12.715,1.929l-5.324-9.221l8.027-10.047c7.467-9.344,9.483-21.631,5.392-32.869 c-4.09-11.238-13.532-19.356-25.257-21.714l-12.608-2.535l-1.849-10.487l10.98-6.694c10.211-6.227,16.308-17.083,16.308-29.043 s-6.096-22.816-16.309-29.043l-10.979-6.694l1.849-10.487l12.608-2.535c11.725-2.359,21.167-10.476,25.257-21.714 c4.09-11.238,2.075-23.525-5.391-32.868l-8.028-10.048l5.324-9.221l12.712,1.93c11.825,1.795,23.472-2.604,31.161-11.765 c7.688-9.161,9.997-21.397,6.177-32.731l-4.108-12.187l8.157-6.845l11.288,6.162c10.497,5.733,22.949,5.581,33.306-0.398 c10.357-5.981,16.712-16.689,16.998-28.645l0.308-12.856l10.007-3.642l8.499,9.65c7.905,8.975,19.654,13.093,31.433,11.017 c11.779-2.077,21.413-9.966,25.771-21.103l4.687-11.977h10.648l4.687,11.975c4.359,11.137,13.993,19.027,25.771,21.103 c11.774,2.075,23.527-2.041,31.432-11.017l8.5-9.65l10.007,3.642l0.308,12.856c0.286,11.957,6.641,22.665,16.998,28.645 c10.359,5.979,22.809,6.128,33.307,0.398l11.287-6.162l8.157,6.845l-4.108,12.187c-3.82,11.334-1.51,23.57,6.177,32.731 c7.687,9.161,19.338,13.56,31.16,11.765l12.715-1.929l5.324,9.221l-8.027,10.047c-7.467,9.344-9.483,21.631-5.392,32.869 c4.09,11.238,13.532,19.356,25.257,21.714l12.608,2.535l1.849,10.487l-10.98,6.694c-10.211,6.227-16.308,17.083-16.308,29.043 c0,11.96,6.097,22.816,16.309,29.043l10.979,6.694L487.491,302.222z" style="fill: rgb(251, 251, 251);"/>
    </g>
  </g>
  <g transform="matrix(0.058204, 0, 0, 0.058204, 62.490772, 171.300095)" style="">
    <g>
      <path d="M256.673,146.001l-0.674-0.002c-5.522,0-10,4.478-10,10c0,5.522,4.478,10,10,10l0.58,0.002c0.017,0,0.031,0,0.048,0 c5.501,0,9.974-4.446,9.999-9.953C266.652,150.525,262.195,146.027,256.673,146.001z" style="fill: rgb(251, 251, 251);"/>
    </g>
  </g>
  <g transform="matrix(0.058204, 0, 0, 0.058204, 62.490772, 171.300095)" style="">
    <g>
      <path d="M297.545,154.119c-5.119-2.088-10.951,0.367-13.038,5.479c-2.087,5.113,0.366,10.951,5.479,13.038 c34.027,13.887,56.013,46.609,56.013,83.363c0,49.626-40.374,90-90,90c-49.626,0-90-40.374-90-90 c0-35.449,20.914-67.713,53.28-82.195c5.042-2.256,7.3-8.171,5.044-13.212c-2.255-5.04-8.169-7.301-13.212-5.044 c-39.554,17.699-65.112,57.128-65.112,100.451c0,60.654,49.346,110,110,110s110-49.346,110-110 C365.999,211.082,339.129,171.092,297.545,154.119z" style="fill: rgb(251, 251, 251);"/>
    </g>
  </g>
  <g transform="matrix(0.058204, 0, 0, 0.058204, 62.490772, 171.300095)" style="">
    <g>
      <path d="M120.557,218.251c-5.989-6.625-14.547-10.424-23.481-10.424h-0.48c-16.361,0-29.95,12.311-31.608,28.635 c-0.656,6.455-0.989,13.028-0.989,19.537c0,4.877,0.188,9.811,0.558,14.664c1.243,16.353,15.147,29.164,31.652,29.164h0.49 c8.815,0,17.307-3.706,23.3-10.168c5.977-6.444,9.026-15.162,8.366-23.919c-0.243-3.216-0.366-6.493-0.366-9.741 c0-4.342,0.22-8.717,0.652-13.005C129.562,233.967,126.613,224.948,120.557,218.251z M108.754,240.983 c-0.501,4.953-0.755,10.005-0.755,15.016c0,3.749,0.143,7.533,0.423,11.247c0.247,3.271-0.85,6.401-3.087,8.814 c-2.253,2.43-5.321,3.768-8.636,3.768h-0.49c-6.111,0-11.255-4.692-11.711-10.683c-0.331-4.351-0.499-8.774-0.499-13.146 c0-5.837,0.298-11.729,0.887-17.515c0.617-6.076,5.651-10.657,11.711-10.657h0.481c3.338,0,6.409,1.362,8.646,3.837 C108.027,234.212,109.104,237.522,108.754,240.983z" style="fill: rgb(251, 251, 251);"/>
    </g>
  </g>
  <g transform="matrix(0.058204, 0, 0, 0.058204, 62.490772, 171.300095)" style="">
    <g>
      <path d="M402.359,335.134l-0.198-0.197c-6.385-6.386-15.231-9.781-24.242-9.349c-8.915,0.44-17.257,4.631-22.888,11.497 c0,0.001,0,0.001,0,0.001c-4.8,5.854-10.15,11.317-15.907,16.238c-6.782,5.799-10.87,14.216-11.217,23.093 c-0.343,8.791,3.029,17.401,9.251,23.624l0.344,0.344c6.144,6.144,14.313,9.256,22.498,9.256c7.321,0,14.653-2.491,20.557-7.53 c8.644-7.377,16.683-15.572,23.894-24.358C414.867,365.065,413.967,346.742,402.359,335.134z M388.993,365.064 c-6.465,7.876-13.671,15.223-21.419,21.835c-4.619,3.943-11.618,3.657-15.929-0.656l-0.344-0.344 c-2.326-2.326-3.537-5.416-3.409-8.701c0.131-3.373,1.633-6.452,4.229-8.671c6.649-5.685,12.832-11.997,18.377-18.761 c2.087-2.545,5.072-4.038,8.408-4.202c3.397-0.161,6.714,1.114,9.114,3.515l0.198,0.198 C392.518,353.577,392.851,360.364,388.993,365.064z" style="fill: rgb(251, 251, 251);"/>
    </g>
  </g>
  <g transform="matrix(0.058204, 0, 0, 0.058204, 62.490772, 171.300095)" style="">
    <g>
      <path d="M184.09,376.418c-0.347-8.877-4.435-17.294-11.218-23.094c-5.756-4.92-11.106-10.383-15.906-16.238 c-5.631-6.866-13.973-11.057-22.888-11.497c-9.006-0.442-17.856,2.962-24.242,9.348l-0.198,0.198 c-11.609,11.608-12.508,29.931-2.092,42.619c7.211,8.786,15.25,16.981,23.894,24.358c5.905,5.039,13.236,7.529,20.558,7.529 c8.184-0.001,16.355-3.114,22.497-9.255l0.344-0.344C181.061,393.819,184.433,385.209,184.09,376.418z M160.699,385.898 l-0.344,0.344c-4.313,4.312-11.309,4.6-15.929,0.656c-7.748-6.612-14.954-13.959-21.419-21.835 c-3.859-4.7-3.526-11.487,0.775-15.787l0.198-0.198c0,0,0,0,0-0.001c2.26-2.26,5.338-3.527,8.523-3.527 c0.196,0,0.393,0.004,0.593,0.013c3.334,0.165,6.319,1.657,8.406,4.202c5.545,6.764,11.728,13.076,18.376,18.76 c2.596,2.22,4.098,5.299,4.23,8.672C164.236,380.482,163.025,383.572,160.699,385.898z" style="fill: rgb(251, 251, 251);"/>
    </g>
  </g>
  <g transform="matrix(0.058204, 0, 0, 0.058204, 62.490772, 171.300095)" style="">
    <g>
      <path d="M447.01,236.463c-1.659-16.325-15.248-28.636-31.609-28.636h-0.48c-8.933,0-17.492,3.799-23.481,10.424 c-6.056,6.697-9.005,15.716-8.094,24.744c0.433,4.287,0.653,8.662,0.653,13.004c0,3.248-0.123,6.525-0.366,9.742 c-0.66,8.756,2.388,17.474,8.366,23.918c5.993,6.462,14.486,10.168,23.3,10.168h0.49c16.505,0,30.409-12.81,31.652-29.163 c0.37-4.854,0.558-9.788,0.558-14.665C447.999,249.49,447.666,242.917,447.01,236.463z M427.5,269.145 c-0.456,5.991-5.6,10.682-11.711,10.682h-0.49c-3.316,0-6.383-1.338-8.636-3.768c-2.237-2.413-3.334-5.542-3.087-8.813 c0.28-3.714,0.423-7.498,0.423-11.247c0-5.011-0.254-10.062-0.754-15.015c-0.35-3.462,0.726-6.772,3.03-9.32 c2.237-2.475,5.307-3.837,8.646-3.837h0.48c6.06,0,11.094,4.581,11.711,10.658c0.589,5.785,0.887,11.677,0.887,17.514 C427.999,260.371,427.831,264.794,427.5,269.145z" style="fill: rgb(251, 251, 251);"/>
    </g>
  </g>
  <g transform="matrix(0.058204, 0, 0, 0.058204, 62.490772, 171.300095)" style="">
    <g>
      <path d="M273.074,64.751c-11.275-1-22.877-1-34.148,0c-16.491,1.458-28.927,15.061-28.927,31.64v0.72 c0,8.798,3.721,17.248,10.209,23.186c5.872,5.373,13.591,8.333,21.532,8.333c0.94,0,1.882-0.041,2.826-0.124 c7.556-0.672,15.31-0.672,22.867,0c8.911,0.795,17.791-2.199,24.357-8.208c6.488-5.938,10.209-14.388,10.209-23.186v-0.72 C301.999,79.812,289.563,66.21,273.074,64.751z M281.999,97.112c0,3.247-1.318,6.242-3.711,8.431 c-2.472,2.262-5.697,3.345-9.086,3.041c-8.728-0.775-17.677-0.775-26.406,0c-3.387,0.304-6.614-0.779-9.086-3.041 c-2.393-2.19-3.711-5.184-3.711-8.431v-0.72c0-6.142,4.595-11.179,10.69-11.718c5.053-0.448,10.205-0.675,15.31-0.675 c5.105,0,10.257,0.227,15.312,0.675c6.093,0.539,10.688,5.576,10.688,11.718V97.112z" style="fill: rgb(251, 251, 251);"/>
    </g>
  </g>
  <g transform="matrix(0.058204, 0, 0, 0.058204, 62.490772, 171.300095)" style="">
    <g>
      <path d="M291.789,391.7c-6.566-6.009-15.438-9-24.357-8.208c-7.556,0.672-15.31,0.672-22.867,0 c-8.909-0.793-17.791,2.2-24.357,8.208c-6.488,5.938-10.209,14.388-10.209,23.186v0.72c0,16.58,12.436,30.182,28.925,31.64 c5.637,0.5,11.383,0.753,17.075,0.753s11.438-0.253,17.073-0.752c16.491-1.458,28.927-15.061,28.927-31.64v-0.72 C301.999,406.089,298.278,397.639,291.789,391.7z M281.998,415.607c0,6.142-4.594,11.179-10.69,11.718 c-10.105,0.896-20.512,0.896-30.621,0c-6.093-0.539-10.688-5.576-10.688-11.718v-0.72c0-3.247,1.318-6.242,3.711-8.431 c2.201-2.014,4.999-3.091,7.977-3.091c0.367,0,0.737,0.017,1.108,0.05c8.728,0.775,17.677,0.775,26.406,0 c3.388-0.304,6.614,0.779,9.086,3.041c2.393,2.19,3.711,5.184,3.711,8.431V415.607z" style="fill: rgb(251, 251, 251);"/>
    </g>
  </g>
  <g transform="matrix(0.058204, 0, 0, 0.058204, 62.490772, 171.300095)" style="">
    <g>
      <path d="M177.061,109.836l-0.198-0.198c-11.608-11.609-29.929-12.508-42.619-2.092c-8.786,7.211-16.981,15.25-24.358,23.894 c-10.67,12.504-9.913,31.416,1.727,43.056l0.344,0.344c5.933,5.933,14.038,9.274,22.401,9.274c0.407,0,0.815-0.008,1.222-0.024 c8.877-0.347,17.294-4.435,23.093-11.217c0-0.001,0-0.001,0.001-0.001c4.92-5.756,10.383-11.106,16.238-15.906 c6.866-5.631,11.057-13.973,11.497-22.888C186.853,125.057,183.446,116.221,177.061,109.836z M162.232,141.501 c-6.764,5.545-13.076,11.728-18.761,18.377c-2.219,2.595-5.299,4.097-8.671,4.229c-3.297,0.133-6.376-1.082-8.701-3.409 l-0.344-0.344c-4.311-4.312-4.599-11.309-0.656-15.929c6.612-7.748,13.959-14.954,21.835-21.419 c2.191-1.799,4.834-2.687,7.469-2.687c3.018,0,6.023,1.166,8.318,3.464l0.199,0.198c2.401,2.4,3.681,5.722,3.514,9.114 C166.269,136.429,164.777,139.414,162.232,141.501z" style="fill: rgb(251, 251, 251);"/>
    </g>
  </g>
  <g transform="matrix(0.058204, 0, 0, 0.058204, 62.490772, 171.300095)" style="">
    <g>
      <path d="M402.111,131.441c-7.377-8.644-15.572-16.683-24.358-23.894c-12.688-10.414-31.012-9.517-42.619,2.092l-0.197,0.198 c-6.386,6.385-9.793,15.221-9.349,24.242c0.44,8.915,4.631,17.257,11.498,22.888c5.854,4.8,11.317,10.15,16.238,15.907 c5.799,6.782,14.216,10.87,23.093,11.217c0.409,0.015,0.816,0.023,1.223,0.023c8.362,0,16.467-3.342,22.4-9.273l0.344-0.344 C412.024,162.857,412.782,143.945,402.111,131.441z M386.243,160.352l-0.344,0.344c-2.325,2.327-5.404,3.542-8.701,3.409 c-3.373-0.131-6.452-1.633-8.671-4.229c-5.685-6.649-11.997-12.832-18.76-18.377c-2.546-2.087-4.038-5.072-4.203-8.406 c-0.167-3.391,1.114-6.714,3.515-9.114l0.198-0.198c2.296-2.296,5.3-3.461,8.318-3.461c2.633,0,5.278,0.888,7.469,2.684 c7.876,6.465,15.223,13.671,21.835,21.419C390.843,149.043,390.555,156.04,386.243,160.352z" style="fill: rgb(251, 251, 251);"/>
    </g>
  </g>
  <g transform="matrix(0.06574, 0, 0, 0.06574, 22.648588, 33.784363)" style=""/>
  <g transform="matrix(0.06574, 0, 0, 0.06574, 22.648588, 33.784363)" style=""/>
  <g transform="matrix(0.06574, 0, 0, 0.06574, 22.648588, 33.784363)" style=""/>
  <g transform="matrix(0.06574, 0, 0, 0.06574, 22.648588, 33.784363)" style=""/>
  <g transform="matrix(0.06574, 0, 0, 0.06574, 22.648588, 33.784363)" style=""/>
  <g transform="matrix(0.06574, 0, 0, 0.06574, 22.648588, 33.784363)" style=""/>
  <g transform="matrix(0.06574, 0, 0, 0.06574, 22.648588, 33.784363)" style=""/>
  <g transform="matrix(0.06574, 0, 0, 0.06574, 22.648588, 33.784363)" style=""/>
  <g transform="matrix(0.06574, 0, 0, 0.06574, 22.648588, 33.784363)" style=""/>
  <g transform="matrix(0.06574, 0, 0, 0.06574, 22.648588, 33.784363)" style=""/>
  <g transform="matrix(0.06574, 0, 0, 0.06574, 22.648588, 33.784363)" style=""/>
  <g transform="matrix(0.06574, 0, 0, 0.06574, 22.648588, 33.784363)" style=""/>
  <g transform="matrix(0.06574, 0, 0, 0.06574, 22.648588, 33.784363)" style=""/>
  <g transform="matrix(0.06574, 0, 0, 0.06574, 22.648588, 33.784363)" style=""/>
  <g transform="matrix(0.06574, 0, 0, 0.06574, 22.648588, 33.784363)" style=""/>
  <g transform="matrix(0, -0.005408, 0.005408, 0, 54.562664, 244.579361)" style="">
    <g>
      <path d="M163.056,401.437c-1.86-1.86-4.44-2.93-7.07-2.93c-2.63,0-5.21,1.069-7.07,2.93c-1.86,1.86-2.93,4.44-2.93,7.07 c0,2.63,1.07,5.21,2.93,7.069c1.86,1.86,4.44,2.931,7.07,2.931s5.21-1.07,7.07-2.931c1.86-1.859,2.93-4.439,2.93-7.069 C165.986,405.877,164.916,403.297,163.056,401.437z" style="fill: rgb(251, 251, 251);"/>
    </g>
  </g>
  <g transform="matrix(0, -0.107896, 0.107896, 0, 30.051678, 145.615295)" style="">
    <g>
      <path d="M287.061,74.453c-1.86-1.86-4.44-2.93-7.07-2.93s-5.21,1.069-7.07,2.93c-1.86,1.859-2.93,4.439-2.93,7.07 c0,2.63,1.07,5.21,2.93,7.069c1.86,1.861,4.44,2.931,7.07,2.931s5.21-1.07,7.07-2.931c1.86-1.859,2.93-4.439,2.93-7.069 C289.991,78.893,288.921,76.313,287.061,74.453z" style="fill: rgb(251, 251, 251);"/>
    </g>
  </g>
  <g transform="matrix(0, -0.005408, 0.005408, 0, 54.562664, 244.579361)" style="">
    <g>
      <path d="M332.793,419.438c-1.86-1.86-4.44-2.93-7.07-2.93c-2.64,0-5.21,1.069-7.07,2.93c-1.86,1.86-2.93,4.44-2.93,7.07 c0,2.63,1.07,5.21,2.93,7.069c1.86,1.86,4.44,2.931,7.07,2.931c2.63,0,5.21-1.07,7.07-2.931c1.86-1.859,2.93-4.439,2.93-7.069 C335.723,423.878,334.653,421.298,332.793,419.438z" style="fill: rgb(251, 251, 251);"/>
    </g>
  </g>
  <g transform="matrix(0, -0.107896, 0.107896, 0, 30.05168, 147.933945)" style="">
    <g>
      <path d="M510.868,142.61l-14.834-28.46V51.493c0-8.216-3.256-15.884-9.168-21.59c-5.91-5.703-13.694-8.687-21.917-8.393 c-16.215,0.577-28.917,13.958-28.917,30.462v19.552h-115.04c-5.523,0-10,4.478-10,10c0,5.522,4.477,10,10,10h115.041v20.001 H204.964l-9.788-20.001h43.313c5.523,0,10-4.478,10-10c0-5.522-4.477-10-10-10h-53.102l-18.731-38.272 c-1.679-3.43-5.164-5.604-8.982-5.604h-44.69c-3.451,0-6.659,1.779-8.485,4.708c-1.827,2.929-2.014,6.592-0.496,9.691 l37.936,77.44L2.708,414.525c-3.201,6.76-3.577,14.362-1.06,21.405s7.625,12.685,14.386,15.886c3.78,1.79,7.807,2.697,11.97,2.697 c0.036,0,0.071-0.004,0.107-0.004h240.072c10.405,21.295,32.284,36.002,57.539,36.002c35.292,0,64.003-28.711,64.003-64.003 c0-15.377-5.453-29.501-14.525-40.55l91.476-198.831l26.476,50.271c1.759,3.339,5.201,5.341,8.846,5.341 c0.796,0,1.602-0.096,2.402-0.293c4.464-1.104,7.6-5.109,7.6-9.708v-85.505C512,145.623,511.612,144.038,510.868,142.61z M431.315,131.526L326.029,358.889L214.753,131.526H431.315z M28.057,434.508h-0.041c-0.015,0-0.029,0.002-0.044,0.002 c-1.168-0.005-2.305-0.262-3.38-0.772c-1.931-0.914-3.391-2.526-4.11-4.538c-0.719-2.012-0.611-4.184,0.309-6.127l132.411-280.589 l9.225,18.832L35.247,429.931C33.936,432.698,31.118,434.487,28.057,434.508z M268.182,398.507h-65.195c-5.523,0-10,4.478-10,10 s4.477,10,10,10h59.249c-0.329,2.623-0.518,5.289-0.518,8s0.189,5.377,0.518,8H55.208l7.575-16.001h50.199c5.523,0,10-4.478,10-10 c0-5.522-4.477-10-10-10H72.254L173.68,184.286l100.26,204.669C271.758,391.955,269.824,395.146,268.182,398.507z M129.018,47.648 h22.416l155.479,317.681c-6.483,1.997-12.521,5.008-17.95,8.831L129.018,47.648z M325.721,470.51 c-24.263,0-44.002-19.739-44.002-44.002c0-24.263,19.739-44.002,44.002-44.002s44.002,19.739,44.002,44.002 C369.723,450.771,349.984,470.51,325.721,470.51z M359.518,372.192c-4.494-2.807-9.355-5.077-14.502-6.707l100.871-217.829 l9.037,17.16L359.518,372.192z M457.178,126.172c-0.749-1.428-1.145-3.034-1.145-4.646V51.973c0-5.586,4.318-10.284,9.626-10.473 c0.124-0.005,0.247-0.007,0.37-0.007c2.611,0,5.066,0.987,6.947,2.803c1.971,1.902,3.057,4.459,3.057,7.197v65.107 c0,1.609,0.388,3.194,1.132,4.622l14.833,28.46v42.605L457.178,126.172z" style="fill: rgb(251, 251, 251);"/>
    </g>
  </g>
  <g transform="matrix(0.107896, 0, 0, 0.107896, 56.200481, 92.691193)" style=""/>
  <g transform="matrix(0.107896, 0, 0, 0.107896, 56.200481, 92.691193)" style=""/>
  <g transform="matrix(0.107896, 0, 0, 0.107896, 56.200481, 92.691193)" style=""/>
  <g transform="matrix(0.107896, 0, 0, 0.107896, 56.200481, 92.691193)" style=""/>
  <g transform="matrix(0.107896, 0, 0, 0.107896, 56.200481, 92.691193)" style=""/>
  <g transform="matrix(0.107896, 0, 0, 0.107896, 56.200481, 92.691193)" style=""/>
  <g transform="matrix(0.107896, 0, 0, 0.107896, 56.200481, 92.691193)" style=""/>
  <g transform="matrix(0.107896, 0, 0, 0.107896, 56.200481, 92.691193)" style=""/>
  <g transform="matrix(0.107896, 0, 0, 0.107896, 56.200481, 92.691193)" style=""/>
  <g transform="matrix(0.107896, 0, 0, 0.107896, 56.200481, 92.691193)" style=""/>
  <g transform="matrix(0.107896, 0, 0, 0.107896, 56.200481, 92.691193)" style=""/>
  <g transform="matrix(0.107896, 0, 0, 0.107896, 56.200481, 92.691193)" style=""/>
  <g transform="matrix(0.107896, 0, 0, 0.107896, 56.200481, 92.691193)" style=""/>
  <g transform="matrix(0.107896, 0, 0, 0.107896, 56.200481, 92.691193)" style=""/>
  <g transform="matrix(0.107896, 0, 0, 0.107896, 56.200481, 92.691193)" style=""/>
  <g transform="matrix(0.050694, 0, 0, 0.050694, 21.726833, 159.642792)" style="">
    <g>
      <path d="M507.651,274.974c-14.06-9.632-22.123-24.931-22.122-41.974c0-17.042,8.063-32.341,22.122-41.973 c3.658-2.506,5.229-7.122,3.859-11.339l-7.324-22.542c-1.37-4.217-5.364-7.008-9.787-6.906 c-17.052,0.476-32.553-7.166-42.57-20.954c-10.017-13.788-12.485-30.904-6.772-46.961c1.486-4.178,0.044-8.835-3.544-11.442 L422.337,56.95c-3.587-2.605-8.463-2.541-11.978,0.166c-13.504,10.395-30.548,13.337-46.756,8.07 c-16.209-5.267-28.267-17.663-33.082-34.011c-1.254-4.254-5.158-7.174-9.593-7.174h-23.702c-4.435,0-8.339,2.92-9.593,7.174 c-4.816,16.349-16.874,28.745-33.083,34.012c-16.209,5.267-33.25,2.325-46.755-8.07c-3.516-2.706-8.39-2.771-11.978-0.166 l-19.176,13.932c-3.588,2.607-5.03,7.265-3.543,11.442c5.712,16.057,3.244,33.173-6.773,46.961 c-10.017,13.788-25.523,21.417-42.57,20.954c-4.405-0.12-8.417,2.689-9.787,6.906l-7.324,22.542 c-1.37,4.217,0.2,8.833,3.859,11.339c14.059,9.632,22.122,24.931,22.122,41.973c0.001,17.043-8.063,32.342-22.122,41.974 c-3.659,2.506-5.229,7.122-3.859,11.339l7.324,22.542c1.37,4.217,5.341,7.013,9.787,6.906c14.76-0.406,28.597,5.487,38.458,16.018 L87.994,406H26.58C11.924,406,0,417.924,0,432.581v28.839C0,476.077,11.924,488,26.58,488h10.087c5.522,0,10-4.477,10-10 s-4.478-10-10-10H26.58c-3.628,0-6.58-2.952-6.58-6.581V432.58c0-3.628,2.952-6.581,6.58-6.581h135.75 c3.629,0,6.581,2.952,6.581,6.581v28.839c0,3.628-2.952,6.581-6.581,6.581H109c-5.522,0-10,4.477-10,10s4.478,10,10,10h53.33 c14.657,0,26.581-11.924,26.581-26.581V432.58c0-8.537-4.049-16.141-10.323-21.007l8.712-8.712l8.519,6.189 c3.587,2.605,8.461,2.539,11.978-0.166c13.505-10.395,30.545-13.336,46.755-8.07c16.209,5.267,28.267,17.663,33.083,34.012 c1.254,4.253,5.158,7.174,9.593,7.174h23.702c4.435,0,8.339-2.92,9.593-7.174c4.815-16.348,16.873-28.744,33.082-34.011 c16.207-5.265,33.25-2.325,46.756,8.07c3.516,2.706,8.392,2.771,11.978,0.166l19.176-13.932c3.588-2.607,5.03-7.265,3.544-11.442 c-5.713-16.057-3.245-33.173,6.772-46.961c10.017-13.788,25.512-21.419,42.57-20.954c0.093,0.002,0.186,0.004,0.278,0.004 c4.32,0,8.167-2.781,9.509-6.91l7.324-22.542C512.881,282.096,511.31,277.48,507.651,274.974z M155.876,406h-39.597 l182.875-182.875c2.644-2.644,6.159-4.1,9.899-4.1c3.739,0,7.255,1.456,9.898,4.101c2.645,2.644,4.102,6.16,4.102,9.899 c0,3.739-1.457,7.255-4.102,9.899l-89.78,89.78C229.171,332.706,155.876,406,155.876,406z M193.29,262.415h38.29l-27.494,27.494 C199.335,281.196,195.711,272.011,193.29,262.415z M279.663,310.498v38.29c-9.596-2.421-18.78-6.045-27.493-10.796 L279.663,310.498z M487.345,295.967c-20.518,1.635-39.447,12.135-51.696,28.994c-12.248,16.858-16.385,38.106-11.599,58.125 l-7.762,5.639c-17.562-10.738-39.048-13.369-58.865-6.93c-19.818,6.439-35.654,21.198-43.549,40.206h-9.593 c-7.896-19.009-23.731-33.767-43.551-40.207c-19.818-6.439-41.306-3.807-58.863,6.93l-0.249-0.181l35.886-35.886 c15.594,9.374,32.6,15.494,50.672,18.212c0.496,0.075,0.993,0.111,1.487,0.111c2.378,0,4.697-0.849,6.524-2.421 c2.206-1.899,3.476-4.667,3.476-7.579V291c0-0.161-0.017-0.318-0.024-0.478l33.456-33.456c6.422-6.422,9.959-14.96,9.959-24.042 c0-9.082-3.537-17.62-9.959-24.042s-14.96-9.958-24.041-9.958c-9.082,0-17.62,3.537-24.042,9.958l-33.457,33.456 c-0.159-0.008-0.316-0.024-0.478-0.024h-69.98c-2.912,0-5.679,1.269-7.579,3.476c-1.899,2.207-2.743,5.132-2.31,8.011 c2.719,18.072,8.839,35.078,18.212,50.672l-13.042,13.041c-11.993-12.58-28.133-20.29-45.57-21.655l-2.963-9.118 c15.639-13.383,24.781-33.004,24.78-53.843c0-20.838-9.142-40.459-24.78-53.842l2.965-9.124 c20.518-1.635,39.447-12.135,51.696-28.994c12.248-16.858,16.385-38.106,11.599-58.125l7.762-5.639 c17.561,10.737,39.046,13.37,58.863,6.93c19.82-6.437,35.656-21.195,43.551-40.204h9.593c7.895,19.008,23.73,33.767,43.549,40.206 c19.819,6.441,41.305,3.808,58.865-6.93l7.762,5.639c-4.786,20.019-0.649,41.266,11.599,58.125 c12.25,16.86,31.177,27.36,51.696,28.994l2.965,9.124c-15.638,13.382-24.78,33.003-24.78,53.842 c-0.001,20.838,9.142,40.46,24.78,53.843L487.345,295.967z" style="fill: rgb(251, 251, 251);"/>
    </g>
  </g>
  <g transform="matrix(0.050694, 0, 0, 0.050694, 21.726833, 159.642792)" style="">
    <g>
      <path d="M444.637,245.891c-1.9-2.207-4.666-3.476-7.578-3.476h-73.322c-4.232,0-8.007,2.665-9.423,6.653 c-4.787,13.477-15.691,24.381-29.169,29.168c-3.988,1.417-6.652,5.191-6.652,9.423v73.322c0,2.912,1.27,5.679,3.476,7.579 c1.827,1.573,4.146,2.421,6.524,2.421c0.494,0,0.992-0.037,1.487-0.111c29.576-4.449,56.44-18.032,77.688-39.279 c21.247-21.248,34.83-48.112,39.279-77.688C447.381,251.023,446.537,248.098,444.637,245.891z M338.492,348.768V294.32 c14.002-6.694,25.211-17.904,31.905-31.905h54.448C414.109,304.49,380.566,338.032,338.492,348.768z" style="fill: rgb(251, 251, 251);"/>
    </g>
  </g>
  <g transform="matrix(0.050694, 0, 0, 0.050694, 21.726833, 159.642792)" style="">
    <g>
      <path d="M408.23,134.975l-0.563-0.566c-3.906-3.905-10.236-3.905-14.143,0c-3.905,3.905-3.905,10.237,0,14.143l0.486,0.486 c1.956,1.978,4.533,2.969,7.11,2.969c2.541,0,5.082-0.962,7.031-2.89C412.078,145.234,412.114,138.902,408.23,134.975z" style="fill: rgb(251, 251, 251);"/>
    </g>
  </g>
  <g transform="matrix(0.050694, 0, 0, 0.050694, 21.726833, 159.642792)" style="">
    <g>
      <path d="M446.947,212.098c-2.513-16.707-7.991-32.648-16.28-47.379c-2.708-4.813-8.807-6.519-13.618-3.811 c-4.813,2.708-6.521,8.806-3.812,13.619c5.169,9.186,9.06,18.921,11.623,29.059h-54.463 c-6.694-14.001-17.903-25.211-31.905-31.905v-54.463c9.775,2.473,19.184,6.182,28.082,11.08c4.838,2.663,10.92,0.9,13.583-3.939 c2.663-4.838,0.899-10.919-3.938-13.583c-14.416-7.935-29.974-13.198-46.239-15.645c-2.886-0.434-5.806,0.41-8.012,2.31 c-2.206,1.899-3.476,4.667-3.476,7.579v73.322c0,4.232,2.664,8.006,6.652,9.423c13.478,4.787,24.382,15.691,29.169,29.168 c1.416,3.988,5.19,6.653,9.423,6.653h73.322c2.912,0,5.679-1.269,7.579-3.476C446.536,217.903,447.38,214.978,446.947,212.098z" style="fill: rgb(251, 251, 251);"/>
    </g>
  </g>
  <g transform="matrix(0.050694, 0, 0, 0.050694, 21.726833, 159.642792)" style="">
    <g>
      <path d="M296.188,97.441c-2.207-1.9-5.138-2.745-8.012-2.31c-29.576,4.449-56.44,18.032-77.688,39.279 c-21.247,21.248-34.83,48.112-39.279,77.688c-0.434,2.88,0.41,5.805,2.31,8.012c1.9,2.207,4.667,3.476,7.579,3.476h73.321 c4.232,0,8.006-2.664,9.423-6.652c4.788-13.478,15.692-24.382,29.17-29.169c3.988-1.417,6.652-5.191,6.652-9.423V105.02 C299.663,102.107,298.394,99.34,296.188,97.441z M279.664,171.681L279.664,171.681c-14.002,6.694-25.212,17.904-31.906,31.905 H193.31c10.736-42.075,44.279-75.617,86.354-86.354V171.681z" style="fill: rgb(251, 251, 251);"/>
    </g>
  </g>
  <g transform="matrix(0.050694, 0, 0, 0.050694, 21.726833, 159.642792)" style="">
    <g>
      <path d="M316.149,225.93c-1.87-1.86-4.439-2.93-7.069-2.93c-2.641,0-5.21,1.07-7.07,2.93s-2.93,4.44-2.93,7.07 s1.069,5.21,2.93,7.07c1.861,1.86,4.429,2.93,7.07,2.93c2.63,0,5.199-1.07,7.069-2.93c1.86-1.86,2.931-4.44,2.931-7.07 S318.01,227.79,316.149,225.93z" style="fill: rgb(251, 251, 251);"/>
    </g>
  </g>
  <g transform="matrix(0.050694, 0, 0, 0.050694, 21.726833, 159.642792)" style="">
    <g>
      <path d="M80.74,470.93c-1.86-1.86-4.44-2.93-7.07-2.93c-2.641,0-5.22,1.07-7.07,2.93c-1.87,1.86-2.93,4.44-2.93,7.07 s1.06,5.21,2.93,7.07c1.86,1.86,4.43,2.93,7.07,2.93c2.63,0,5.2-1.07,7.07-2.93c1.859-1.86,2.93-4.44,2.93-7.07 S82.6,472.79,80.74,470.93z" style="fill: rgb(251, 251, 251);"/>
    </g>
  </g>
  <g transform="matrix(0.050694, 0, 0, 0.050694, 38.820564, 158.981461)" style=""/>
  <g transform="matrix(0.050694, 0, 0, 0.050694, 38.820564, 158.981461)" style=""/>
  <g transform="matrix(0.050694, 0, 0, 0.050694, 38.820564, 158.981461)" style=""/>
  <g transform="matrix(0.050694, 0, 0, 0.050694, 38.820564, 158.981461)" style=""/>
  <g transform="matrix(0.050694, 0, 0, 0.050694, 38.820564, 158.981461)" style=""/>
  <g transform="matrix(0.050694, 0, 0, 0.050694, 38.820564, 158.981461)" style=""/>
  <g transform="matrix(0.050694, 0, 0, 0.050694, 38.820564, 158.981461)" style=""/>
  <g transform="matrix(0.050694, 0, 0, 0.050694, 38.820564, 158.981461)" style=""/>
  <g transform="matrix(0.050694, 0, 0, 0.050694, 38.820564, 158.981461)" style=""/>
  <g transform="matrix(0.050694, 0, 0, 0.050694, 38.820564, 158.981461)" style=""/>
  <g transform="matrix(0.050694, 0, 0, 0.050694, 38.820564, 158.981461)" style=""/>
  <g transform="matrix(0.050694, 0, 0, 0.050694, 38.820564, 158.981461)" style=""/>
  <g transform="matrix(0.050694, 0, 0, 0.050694, 38.820564, 158.981461)" style=""/>
  <g transform="matrix(0.050694, 0, 0, 0.050694, 38.820564, 158.981461)" style=""/>
  <g transform="matrix(0.050694, 0, 0, 0.050694, 38.820564, 158.981461)" style=""/>
  <g transform="matrix(0.06522, 0, 0, 0.06522, 21.217901, 201.918503)" style="">
    <g>
      <path d="M408.994,64.817c-15.035-6.228-32.329,0.939-38.557,15.971c-6.227,15.033,0.938,32.329,15.971,38.557 c3.681,1.525,7.497,2.247,11.253,2.247c11.585,0,22.601-6.865,27.304-18.218C431.192,88.34,424.027,71.044,408.994,64.817z M406.488,95.721c-2.007,4.845-7.58,7.155-12.427,5.148c-4.845-2.008-7.155-7.582-5.148-12.427 c1.516-3.659,5.067-5.872,8.801-5.872c1.21,0,2.441,0.233,3.627,0.724C406.185,85.301,408.494,90.875,406.488,95.721z" style="fill: rgb(251, 251, 251);"/>
    </g>
  </g>
  <g transform="matrix(0.06522, 0, 0, 0.06522, 21.217901, 201.918503)" style="">
    <g>
      <path d="M421.126,35.527c-31.185-12.915-67.063,1.945-79.981,33.129c-12.916,31.184,1.945,67.063,33.129,79.981 c7.553,3.129,15.489,4.693,23.426,4.693c7.937,0,15.873-1.564,23.426-4.693c15.106-6.257,26.872-18.023,33.129-33.129 C467.173,84.324,452.312,48.445,421.126,35.527z M435.779,107.853c-4.213,10.171-12.135,18.094-22.306,22.307 c-10.17,4.213-21.373,4.213-31.545,0c-20.996-8.697-31.002-32.854-22.306-53.851c6.569-15.856,21.951-25.444,38.133-25.444 c5.246,0,10.578,1.008,15.717,3.137c10.172,4.213,18.094,12.135,22.307,22.306C439.991,86.48,439.991,97.683,435.779,107.853z" style="fill: rgb(251, 251, 251);"/>
    </g>
  </g>
  <g transform="matrix(0.06522, 0, 0, 0.06522, 21.217901, 201.918503)" style="">
    <g>
      <path d="M245.383,155.175c-3.017-7.284-8.689-12.955-15.971-15.971c-15.036-6.227-32.329,0.937-38.557,15.97 c-3.017,7.282-3.017,15.303,0,22.586c3.017,7.284,8.689,12.954,15.971,15.971c3.641,1.509,7.466,2.263,11.292,2.263 c3.825,0,7.653-0.755,11.294-2.263c7.283-3.016,12.953-8.689,15.97-15.97C248.398,170.479,248.399,162.458,245.383,155.175z M226.904,170.107c-0.972,2.347-2.8,4.175-5.147,5.147c-2.348,0.973-4.933,0.972-7.28,0c-2.347-0.972-4.175-2.8-5.147-5.147 c-0.972-2.348-0.972-4.933,0-7.28c1.516-3.66,5.066-5.872,8.8-5.872c1.211,0,2.442,0.233,3.627,0.725 c2.347,0.972,4.175,2.8,5.147,5.147C227.877,165.174,227.875,167.759,226.904,170.107z" style="fill: rgb(251, 251, 251);"/>
    </g>
  </g>
  <g transform="matrix(0.06522, 0, 0, 0.06522, 21.217901, 201.918503)" style="">
    <g>
      <path d="M241.545,109.912c-15.107-6.258-31.746-6.257-46.853,0c-15.107,6.257-26.873,18.023-33.129,33.129 c-6.258,15.106-6.258,31.745,0,46.852c6.257,15.107,18.023,26.873,33.129,33.129c7.554,3.129,15.488,4.693,23.426,4.693 c7.936,0,15.873-1.564,23.427-4.693c15.106-6.257,26.872-18.023,33.129-33.129C287.59,158.709,272.729,122.829,241.545,109.912z M256.197,182.24c-4.213,10.172-12.135,18.093-22.306,22.306c-10.171,4.214-21.374,4.213-31.545,0 c-10.171-4.213-18.093-12.134-22.306-22.306c-4.213-10.17-4.213-21.374,0-31.545c4.213-10.171,12.134-18.093,22.306-22.306 c5.085-2.107,10.428-3.16,15.772-3.16c5.343,0,10.687,1.054,15.773,3.16C254.887,137.085,264.894,161.243,256.197,182.24z" style="fill: rgb(251, 251, 251);"/>
    </g>
  </g>
  <g transform="matrix(0.06522, 0, 0, 0.06522, 21.217901, 201.918503)" style="">
    <g>
      <path d="M437.849,9.467l-0.831-0.396c-4.998-2.351-10.954-0.204-13.304,4.794c-2.35,4.998-0.204,10.954,4.794,13.304l0.642,0.306 c1.402,0.677,2.883,0.998,4.342,0.998c3.716,0,7.287-2.082,9.013-5.653C444.906,17.847,442.822,11.868,437.849,9.467z" style="fill: rgb(251, 251, 251);"/>
    </g>
  </g>
  <g transform="matrix(0.06522, 0, 0, 0.06522, 21.217901, 201.918503)" style="">
    <g>
      <path d="M305.231,318.191c-15.033-6.226-32.329,0.938-38.557,15.971c-6.227,15.033,0.938,32.329,15.971,38.557 c3.681,1.525,7.497,2.247,11.253,2.247c11.585,0,22.6-6.866,27.304-18.218C327.429,341.715,320.266,324.419,305.231,318.191z M302.726,349.095c-2.007,4.845-7.584,7.154-12.427,5.148c-4.845-2.007-7.155-7.582-5.148-12.427 c2.008-4.845,7.582-7.154,12.427-5.148C302.424,338.675,304.732,344.249,302.726,349.095z" style="fill: rgb(251, 251, 251);"/>
    </g>
  </g>
  <g transform="matrix(0.06522, 0, 0, 0.06522, 21.217901, 201.918503)" style="">
    <g>
      <path d="M350.493,322.03c-6.257-15.106-18.023-26.872-33.129-33.129c-31.181-12.915-67.063,1.945-79.981,33.129 c-12.916,31.184,1.945,67.063,33.129,79.981c7.637,3.163,15.553,4.661,23.346,4.661c24.033,0,46.882-14.242,56.635-37.79 C356.751,353.776,356.751,337.136,350.493,322.03z M332.016,361.228c-4.213,10.17-12.134,18.093-22.306,22.306 c-10.17,4.212-21.374,4.213-31.545,0c-20.997-8.697-31.002-32.854-22.307-53.85c4.213-10.171,12.135-18.094,22.306-22.307 c10.171-4.212,21.375-4.212,31.545,0c10.171,4.213,18.094,12.135,22.307,22.306C336.229,339.854,336.229,351.057,332.016,361.228z " style="fill: rgb(251, 251, 251);"/>
    </g>
  </g>
  <g transform="matrix(0.06522, 0, 0, 0.06522, 21.217901, 201.918503)" style="">
    <g>
      <path d="M375.616,358.152c-5.287-1.596-10.866,1.396-12.462,6.683c-0.016,0.056-0.055,0.189-0.071,0.245 c-1.503,5.313,1.585,10.828,6.897,12.334c0.91,0.258,1.826,0.381,2.728,0.381c4.35,0,8.352-2.864,9.612-7.247 C383.869,365.281,380.88,359.741,375.616,358.152z" style="fill: rgb(251, 251, 251);"/>
    </g>
  </g>
  <g transform="matrix(0.06522, 0, 0, 0.06522, 21.217901, 201.918503)" style="">
    <g>
      <path d="M125.594,392.604c-15.033-6.228-32.329,0.938-38.557,15.97c-6.227,15.033,0.938,32.329,15.971,38.557 c3.681,1.525,7.497,2.247,11.253,2.247c11.585,0,22.601-6.867,27.304-18.217C147.792,416.128,140.627,398.832,125.594,392.604z M123.088,423.508c-2.008,4.845-7.583,7.155-12.427,5.148c-4.845-2.007-7.154-7.582-5.148-12.427 c2.007-4.846,7.582-7.154,12.427-5.148C122.785,413.088,125.095,418.662,123.088,423.508z" style="fill: rgb(251, 251, 251);"/>
    </g>
  </g>
  <g transform="matrix(0.06522, 0, 0, 0.06522, 21.217901, 201.918503)" style="">
    <g>
      <path d="M137.726,363.313c-15.106-6.258-31.746-6.257-46.852,0c-15.106,6.257-26.872,18.023-33.129,33.129 c-12.917,31.184,1.944,67.063,33.129,79.981c7.637,3.163,15.553,4.66,23.346,4.66c24.033,0,46.882-14.241,56.635-37.789 C183.772,412.109,168.911,376.23,137.726,363.313z M152.379,435.641c-8.698,20.996-32.856,31.002-53.851,22.306 c-10.172-4.213-18.094-12.135-22.307-22.306c-4.213-10.171-4.213-21.375,0-31.545c4.213-10.172,12.135-18.094,22.306-22.307 c5.086-2.106,10.429-3.16,15.773-3.16c5.344,0,10.687,1.053,15.773,3.161C151.07,390.487,161.076,414.644,152.379,435.641z" style="fill: rgb(251, 251, 251);"/>
    </g>
  </g>
  <g transform="matrix(0.06522, 0, 0, 0.06522, 21.217901, 201.918503)" style="">
    <g>
      <path d="M482.728,56.145c-3.579-8.472-8.455-16.336-14.492-23.377c-3.595-4.192-9.907-4.677-14.1-1.082 c-4.193,3.595-4.677,9.907-1.082,14.1c4.692,5.472,8.478,11.575,11.251,18.142c7.558,17.889,7.664,37.631,0.299,55.59 c-7.366,17.96-21.299,31.942-39.232,39.371c-14.097,5.838-29.369,7.084-44.168,3.601c-19.098-4.496-38.753-2.912-56.841,4.581 c-18.087,7.493-33.105,20.27-43.432,36.954c-8.001,12.926-19.681,22.846-33.777,28.685c-17.935,7.429-37.673,7.394-55.581-0.099 c-3.292-1.377-6.446-2.98-9.451-4.784c-0.043-0.027-0.086-0.057-0.129-0.084c-0.051-0.032-0.104-0.055-0.156-0.086 c-13.199-8.007-23.442-19.985-29.36-34.566c-14.438-35.562,3.142-78.425,38.389-93.598c14.452-6.222,30.141-7.584,45.374-3.937 c18.812,4.501,38.035,3.038,55.592-4.236l1.97-0.815c17.559-7.273,32.187-19.831,42.305-36.315 c8.194-13.349,20.251-23.481,34.869-29.301c7.779-3.097,16.028-4.743,24.521-4.891c5.522-0.097,9.919-4.651,9.823-10.172 c-0.097-5.522-4.683-9.936-10.172-9.823c-10.916,0.191-21.538,2.313-31.569,6.307c-18.655,7.428-34.048,20.367-44.516,37.419 c-7.897,12.866-19.278,22.652-32.913,28.3l-1.97,0.815c-13.635,5.648-28.604,6.776-43.285,3.263 c-19.459-4.656-39.493-2.922-57.937,5.018c-21.911,9.432-39.118,27.162-48.452,49.921c-9.333,22.759-9.533,47.466-0.559,69.568 c7.603,18.726,20.791,34.088,37.791,44.309c12.445,7.79,22.644,20.15,28.732,34.851c3.759,9.075,5.612,18.655,5.544,28.305 c-7.202,7.923-16.16,14.235-26.033,18.325c-14.189,5.878-29.614,7.118-44.605,3.591c-18.905-4.451-38.409-2.862-56.403,4.591 c-22.894,9.482-40.68,27.332-50.082,50.258c-9.401,22.926-9.268,48.126,0.38,70.961c9.284,21.975,26.895,39.305,49.587,48.797 c11.783,4.93,24.108,7.399,36.338,7.399c11.324,0,22.568-2.118,33.224-6.36c18.655-7.428,34.048-20.367,44.516-37.419 c7.897-12.866,19.278-22.652,32.913-28.299l1.97-0.815c14.019-5.808,30.003-7.267,43.93-4.029 c7.307,1.826,14.749,2.741,22.192,2.741c12.182,0,24.363-2.446,35.933-7.334c12.965-5.478,24.692-14.17,33.912-25.139 c3.554-4.228,3.007-10.535-1.22-14.088c-4.226-3.554-10.534-3.007-14.088,1.22c-7.298,8.682-16.176,15.271-26.387,19.585 c-14.484,6.119-30.181,7.35-45.165,3.689c-0.045-0.011-0.087-0.028-0.133-0.039c-0.064-0.015-0.13-0.027-0.194-0.042 c-3.411-0.85-6.785-1.951-10.097-3.309c-17.961-7.366-31.943-21.299-39.372-39.232c-5.839-14.097-7.084-29.369-3.601-44.168 c4.496-19.099,2.912-38.754-4.581-56.84c-2.056-4.964-4.505-9.715-7.28-14.213c2.601,0.224,5.206,0.358,7.813,0.358 c11.964,0,23.933-2.36,35.327-7.08c13.866-5.744,25.892-14.595,35.362-25.905c1.107,4.894,2.613,9.688,4.528,14.311l0.815,1.967 c7.273,17.559,19.83,32.187,36.315,42.306c13.349,8.193,23.481,20.25,29.3,34.868c1.455,3.655,2.604,7.465,3.413,11.325 c0.988,4.713,5.145,7.95,9.776,7.95c0.68,0,1.371-0.07,2.063-0.215c5.405-1.133,8.868-6.434,7.735-11.838 c-1.044-4.981-2.527-9.899-4.406-14.618c-7.428-18.656-20.367-34.049-37.42-44.516c-12.866-7.897-22.652-19.278-28.299-32.915 l-0.815-1.967c-3.922-9.468-5.675-19.859-5.141-30.244c6.785-6.896,14.886-12.377,23.984-16.146 c14.189-5.877,29.614-7.12,44.605-3.591c18.906,4.452,38.41,2.862,56.403-4.591c22.894-9.482,40.68-27.332,50.082-50.258 C492.51,104.181,492.376,78.98,482.728,56.145z M234.406,416.037c-4.863,1.157-9.639,2.686-14.239,4.592l-1.97,0.815 c-17.559,7.273-32.187,19.831-42.305,36.315c-8.194,13.349-20.251,23.481-34.869,29.301c-35.65,14.196-78.392-3.684-93.328-39.039 c-7.558-17.889-7.664-37.631-0.299-55.59c7.366-17.96,21.299-31.942,39.232-39.371c14.096-5.839,29.37-7.084,44.168-3.601 c19.098,4.495,38.753,2.911,56.841-4.581c4.985-2.065,9.784-4.576,14.336-7.481c-1.313,14.714,0.93,29.497,6.682,43.382 C214.403,394.658,223.242,406.643,234.406,416.037z" style="fill: rgb(251, 251, 251);"/>
    </g>
  </g>
  <g transform="matrix(0.06522, 0, 0, 0.06522, 17.751745, 266.607056)" style=""/>
  <g transform="matrix(0.06522, 0, 0, 0.06522, 17.751745, 266.607056)" style=""/>
  <g transform="matrix(0.06522, 0, 0, 0.06522, 17.751745, 266.607056)" style=""/>
  <g transform="matrix(0.06522, 0, 0, 0.06522, 17.751745, 266.607056)" style=""/>
  <g transform="matrix(0.06522, 0, 0, 0.06522, 17.751745, 266.607056)" style=""/>
  <g transform="matrix(0.06522, 0, 0, 0.06522, 17.751745, 266.607056)" style=""/>
  <g transform="matrix(0.06522, 0, 0, 0.06522, 17.751745, 266.607056)" style=""/>
  <g transform="matrix(0.06522, 0, 0, 0.06522, 17.751745, 266.607056)" style=""/>
  <g transform="matrix(0.06522, 0, 0, 0.06522, 17.751745, 266.607056)" style=""/>
  <g transform="matrix(0.06522, 0, 0, 0.06522, 17.751745, 266.607056)" style=""/>
  <g transform="matrix(0.06522, 0, 0, 0.06522, 17.751745, 266.607056)" style=""/>
  <g transform="matrix(0.06522, 0, 0, 0.06522, 17.751745, 266.607056)" style=""/>
  <g transform="matrix(0.06522, 0, 0, 0.06522, 17.751745, 266.607056)" style=""/>
  <g transform="matrix(0.06522, 0, 0, 0.06522, 17.751745, 266.607056)" style=""/>
  <g transform="matrix(0.06522, 0, 0, 0.06522, 17.751745, 266.607056)" style=""/>
  <g transform="matrix(0.052008, 0, 0, 0.052008, 23.281782, 42.559952)" style="">
    <g>
      <path d="M510.336,171.275c-15.922-46.296-59.512-77.401-108.469-77.401h-72.329c-37.009,0-73.376-6.501-108.092-19.325 c-36.942-13.645-75.64-20.564-115.021-20.564h-0.879C47.348,53.984,0,101.332,0,159.53c0,47.385,31.388,87.574,74.465,100.873 l-21.471,8.811c-4.419,1.813-6.938,6.498-6.014,11.185c0.924,4.687,5.034,8.064,9.81,8.064h19.167l-24.108,13.703 c-3.946,2.242-5.885,6.86-4.727,11.248c1.159,4.388,5.129,7.443,9.667,7.443h21.204v4.801c0,5.522,4.477,9.999,9.999,9.999 s9.999-4.478,9.999-9.999v-4.801h88.664l41.109,130.17c1.313,4.16,5.173,6.987,9.535,6.987h83.189 c3.187,0,6.182-1.519,8.065-4.089c1.883-2.57,2.43-5.883,1.47-8.922l-10.122-32.049c-1.663-5.267-7.283-8.187-12.546-6.523 c-5.266,1.664-8.187,7.28-6.523,12.547l6.013,19.038h-62.218l-26.365-83.483h18.55c5.523,0,9.999-4.478,9.999-9.999 s-4.477-9.999-9.999-9.999h-24.866l-4.32-13.678h59.925c0.761,0,1.518-0.024,2.271-0.069l7.009,22.196 c1.347,4.265,5.286,6.99,9.532,6.99c0.998,0,2.013-0.15,3.014-0.467c5.267-1.663,8.187-7.28,6.523-12.547l-7.16-22.672 c3.212-2.218,6.107-4.949,8.557-8.164c6.003-7.878,8.567-17.536,7.374-27.162h6.512c22.804,0,44.922-6.631,63.964-19.178 l72.572-47.816h33.574c9.901,0,19.246-4.812,24.998-12.872C512.045,191.039,513.556,180.638,510.336,171.275z M94.617,300.861 l24.108-13.703c3.946-2.242,5.885-6.86,4.727-11.248c-1.159-4.388-5.129-7.443-9.667-7.443h-6.289l8.26-3.39h25.188v-0.001 c3.533,0,7.066-0.096,10.599-0.236l7.856,28.546c0.724,2.631,1.727,5.13,2.964,7.475H94.617z M281.393,294.007 c-3.32,4.356-8.363,6.853-13.84,6.853h-72.097c-7.806,0-14.705-5.257-16.776-12.782l-6.821-24.786 c30.67-3.534,60.797-12.271,88.503-25.781c3.683-1.796,7.419-3.482,11.189-5.094l7.307,26.55h-51.255 c-5.523,0-9.999,4.478-9.999,9.999s4.477,9.999,9.999,9.999h56.755C285.762,284.208,284.686,289.683,281.393,294.007z M364.147,243.088c-15.767,10.388-34.08,15.879-52.961,15.879h-11.586l-9.276-33.701c25.955-8.729,53.355-13.295,80.69-13.295 h40.36L364.147,243.088z M490.015,187.482c-2.036,2.853-5.214,4.49-8.719,4.49H371.014c-32.481,0-65.047,5.964-95.519,17.339 c-0.475,0.134-0.927,0.308-1.365,0.504c-7.656,2.905-15.184,6.138-22.534,9.722c-34.267,16.709-72.531,25.541-110.654,25.541 h-27.02c-0.03,0-0.059,0-0.089,0h-8.288c-47.17,0-85.547-38.377-85.547-85.548s38.377-85.548,85.548-85.548h0.879 c37.009,0,73.376,6.501,108.092,19.325c36.942,13.645,75.64,20.564,115.021,20.564h72.329c40.422,0,76.412,25.682,89.557,63.907 C492.565,181.093,492.051,184.63,490.015,187.482z" style="fill: rgb(251, 251, 251);"/>
    </g>
  </g>
  <g transform="matrix(0.052008, 0, 0, 0.052008, 300, 171.300095)" style=""/>
  <g transform="matrix(0.052008, 0, 0, 0.052008, 300, 171.300095)" style=""/>
  <g transform="matrix(0.052008, 0, 0, 0.052008, 300, 171.300095)" style=""/>
  <g transform="matrix(0.052008, 0, 0, 0.052008, 300, 171.300095)" style=""/>
  <g transform="matrix(0.052008, 0, 0, 0.052008, 300, 171.300095)" style=""/>
  <g transform="matrix(0.052008, 0, 0, 0.052008, 300, 171.300095)" style=""/>
  <g transform="matrix(0.052008, 0, 0, 0.052008, 300, 171.300095)" style=""/>
  <g transform="matrix(0.052008, 0, 0, 0.052008, 300, 171.300095)" style=""/>
  <g transform="matrix(0.052008, 0, 0, 0.052008, 300, 171.300095)" style=""/>
  <g transform="matrix(0.052008, 0, 0, 0.052008, 300, 171.300095)" style=""/>
  <g transform="matrix(0.052008, 0, 0, 0.052008, 300, 171.300095)" style=""/>
  <g transform="matrix(0.052008, 0, 0, 0.052008, 300, 171.300095)" style=""/>
  <g transform="matrix(0.052008, 0, 0, 0.052008, 300, 171.300095)" style=""/>
  <g transform="matrix(0.052008, 0, 0, 0.052008, 300, 171.300095)" style=""/>
  <g transform="matrix(0.052008, 0, 0, 0.052008, 300, 171.300095)" style=""/>
  <g transform="matrix(0.003245, 0, 0, 0.003245, 56.406822, 239.263611)" style="">
    <g>
      <path d="M422.405,140.973c-1.86-1.861-4.44-2.93-7.07-2.93s-5.21,1.069-7.07,2.93c-1.87,1.859-2.93,4.439-2.93,7.07 c0,2.63,1.06,5.21,2.93,7.069c1.86,1.86,4.431,2.931,7.07,2.931c2.63,0,5.21-1.07,7.07-2.931c1.859-1.859,2.93-4.439,2.93-7.069 C425.335,145.412,424.265,142.832,422.405,140.973z" style="fill: rgb(251, 251, 251);"/>
    </g>
  </g>
  <g transform="matrix(0.003245, 0, 0, 0.003245, 56.406822, 239.263611)" style="">
    <g>
      <path d="M498.747,4.409c-7.626-4.813-16.833-5.734-25.26-2.526c-8.428,3.206-14.692,10.015-17.189,18.677l-9.592,33.268 l-104.644,88.413c-11.509,9.724-27.129,13.422-41.772,9.902l-92.977-22.364c-5.307-1.276-10.766-1.924-16.223-1.924H93.478 c-19.859,0-38.344,10.697-48.236,27.916l-7.787,13.548c-4.839,8.423-7.397,18.008-7.397,27.72v68.972H19.263 c-10.615,0-19.251,8.637-19.251,19.251v36.499c0,10.615,8.637,19.251,19.251,19.251H84.06v108.99 c0,34.186,27.812,61.998,61.999,61.998c34.186,0,61.997-27.812,61.997-61.998v-34.999c0-5.522-4.478-10-10-10s-10,4.478-10,10 v34.999c0,23.158-18.84,41.998-41.998,41.998c-23.158,0-41.998-18.84-41.998-41.998v-259.99c0-23.158,18.841-41.998,41.999-41.998 c23.157,0,41.997,18.84,41.997,41.998v144.994c0,5.522,4.478,10,10,10s10-4.478,10-10l0.073-62.992 c0-25.357,20.63-45.987,45.987-45.987h62.115c16.398,0,32.217-5.958,44.539-16.775l31.859-27.969 c4.15-3.644,4.561-9.962,0.917-14.111c-3.644-4.149-9.961-4.561-14.111-0.917l-31.859,27.969 c-8.672,7.613-19.803,11.806-31.345,11.806h-62.115c-17.906,0-34.16,7.18-46.061,18.798v-34.815 c0-16.264-6.305-31.078-16.587-42.148c3.758,0.029,7.513,0.479,11.167,1.358l92.977,22.364 c20.813,5.008,43.003-0.254,59.358-14.069l106.959-90.368c1.509-1.275,2.607-2.97,3.154-4.868l10.432-36.18 c0.739-2.563,2.593-4.578,5.086-5.526c2.494-0.95,5.219-0.677,7.474,0.747c2.994,1.891,4.488,5.482,3.718,8.938L481.422,76.72 l-43.878,38.519c-4.15,3.644-4.561,9.962-0.917,14.111c3.642,4.149,9.961,4.561,14.111,0.917l46.33-40.672 c1.593-1.398,2.7-3.268,3.162-5.337l11.079-49.646C513.915,22.934,508.866,10.797,498.747,4.409z M30.058,321.011H20.011v-35.003 h10.047V321.011z M84.056,293.539c-0.194-0.011-0.387-0.03-0.584-0.03H68.556c-5.522,0-10,4.478-10,10s4.478,10,10,10h14.915 c0.197,0,0.39-0.018,0.584-0.03v7.531H50.057v-47.253c0-9.374,7.626-16.999,16.999-16.999c9.374,0,16.999,7.626,16.999,16.999 V293.539z M84.059,190.012v50.9c-5.095-2.648-10.875-4.155-17.003-4.155c-6.127,0-11.906,1.506-16.999,4.153v-43.873 c0.001-6.22,1.64-12.359,4.739-17.754l7.787-13.548c6.337-11.03,18.176-17.881,30.896-17.881h7.179 C90.367,158.924,84.059,173.742,84.059,190.012z" style="fill: rgb(251, 251, 251);"/>
    </g>
  </g>
  <g transform="matrix(0.003245, 0, 0, 0.003245, 56.406822, 239.263611)" style="">
    <g>
      <path d="M146.057,414.337c-15.438,0-27.999,12.56-27.999,27.999c0,15.438,12.56,27.999,27.999,27.999 c15.438,0,27.999-12.561,27.999-27.999C174.056,426.898,161.496,414.337,146.057,414.337z M146.057,450.336c-4.411,0-8-3.589-8-8 c0-4.411,3.589-8,8-8s8,3.589,8,8C154.057,446.747,150.468,450.336,146.057,450.336z" style="fill: rgb(251, 251, 251);"/>
    </g>
  </g>
  <g transform="matrix(0.003245, 0, 0, 0.003245, 56.406822, 239.263611)" style="">
    <g>
      <path d="M146.057,169.543c-15.438,0-27.999,12.56-27.999,27.999c0,15.438,12.56,27.999,27.999,27.999 c15.438,0,27.999-12.561,27.999-27.999C174.056,182.103,161.496,169.543,146.057,169.543z M146.057,205.541c-4.411,0-8-3.589-8-8 s3.589-8,8-8s8,3.589,8,8S150.468,205.541,146.057,205.541z" style="fill: rgb(251, 251, 251);"/>
    </g>
  </g>
  <g transform="matrix(0.003245, 0, 0, 0.003245, 56.406822, 239.263611)" style="">
    <g>
      <path d="M205.124,366.433c-1.86-1.86-4.44-2.93-7.07-2.93s-5.21,1.069-7.07,2.93c-1.859,1.86-2.93,4.44-2.93,7.07 c0,2.63,1.07,5.21,2.93,7.069c1.86,1.86,4.44,2.931,7.07,2.931s5.21-1.07,7.07-2.931c1.859-1.859,2.93-4.439,2.93-7.069 C208.054,370.873,206.984,368.293,205.124,366.433z" style="fill: rgb(251, 251, 251);"/>
    </g>
  </g>
  <g transform="matrix(0.064752, 0, 0, 0.064752, 248.298477, 235.311218)" style=""/>
  <g transform="matrix(0.064752, 0, 0, 0.064752, 248.298477, 235.311218)" style=""/>
  <g transform="matrix(0.064752, 0, 0, 0.064752, 248.298477, 235.311218)" style=""/>
  <g transform="matrix(0.064752, 0, 0, 0.064752, 248.298477, 235.311218)" style=""/>
  <g transform="matrix(0.064752, 0, 0, 0.064752, 248.298477, 235.311218)" style=""/>
  <g transform="matrix(0.064752, 0, 0, 0.064752, 248.298477, 235.311218)" style=""/>
  <g transform="matrix(0.064752, 0, 0, 0.064752, 248.298477, 235.311218)" style=""/>
  <g transform="matrix(0.064752, 0, 0, 0.064752, 248.298477, 235.311218)" style=""/>
  <g transform="matrix(0.064752, 0, 0, 0.064752, 248.298477, 235.311218)" style=""/>
  <g transform="matrix(0.064752, 0, 0, 0.064752, 248.298477, 235.311218)" style=""/>
  <g transform="matrix(0.064752, 0, 0, 0.064752, 248.298477, 235.311218)" style=""/>
  <g transform="matrix(0.064752, 0, 0, 0.064752, 248.298477, 235.311218)" style=""/>
  <g transform="matrix(0.064752, 0, 0, 0.064752, 248.298477, 235.311218)" style=""/>
  <g transform="matrix(0.064752, 0, 0, 0.064752, 248.298477, 235.311218)" style=""/>
  <g transform="matrix(0.064752, 0, 0, 0.064752, 248.298477, 235.311218)" style=""/>
  <g transform="matrix(0.050118, 0, 0, 0.050118, 51.148396, 233.502136)" style="">
    <g>
      <path d="M344.505,118.437c-1.9-2.241-4.689-3.533-7.627-3.533H121.581C54.541,114.904,0,169.445,0,236.485 c0,63.673,49.202,116.064,111.581,121.167v108.252c0,5.523,4.477,10,10,10H216c5.523,0,10-4.477,10-10V358.066h73.878 c4.892,0,9.065-3.539,9.865-8.364l37-223.162C347.223,123.642,346.405,120.678,344.505,118.437z M206,455.904h-74.419v-97.838H206 V455.904z M246.127,338.066H121.581C65.569,338.066,20,292.497,20,236.485s45.569-101.581,101.581-101.581h124.546V338.066z M291.399,338.066h-25.272V134.904h58.957L291.399,338.066z" style="fill: rgb(251, 251, 251);"/>
    </g>
  </g>
  <g transform="matrix(0.050118, 0, 0, 0.050118, 51.148396, 233.502136)" style="">
    <g>
      <path d="M502,210.029h-62.914c-5.523,0-10,4.477-10,10s4.477,10,10,10H502c5.523,0,10-4.477,10-10S507.523,210.029,502,210.029z" style="fill: rgb(251, 251, 251);"/>
    </g>
  </g>
  <g transform="matrix(0.050118, 0, 0, 0.050118, 51.148396, 233.502136)" style="">
    <g>
      <path d="M409.93,212.96c-1.86-1.86-4.44-2.93-7.07-2.93s-5.21,1.07-7.07,2.93c-1.86,1.86-2.93,4.44-2.93,7.07s1.07,5.21,2.93,7.07 c1.86,1.86,4.43,2.93,7.07,2.93c2.63,0,5.21-1.07,7.07-2.93c1.86-1.86,2.93-4.44,2.93-7.07S411.79,214.82,409.93,212.96z" style="fill: rgb(251, 251, 251);"/>
    </g>
  </g>
  <g transform="matrix(0.050118, 0, 0, 0.050118, 51.148396, 233.502136)" style="">
    <g>
      <path d="M462.633,134.513c-2.114-5.103-7.963-7.527-13.065-5.412l-29.986,12.42c-5.103,2.113-7.526,7.963-5.413,13.065 c1.595,3.851,5.318,6.176,9.243,6.176c1.275,0,2.571-0.245,3.823-0.764l29.986-12.42 C462.324,145.465,464.746,139.615,462.633,134.513z" style="fill: rgb(251, 251, 251);"/>
    </g>
  </g>
  <g transform="matrix(0.050118, 0, 0, 0.050118, 51.148396, 233.502136)" style="">
    <g>
      <path d="M437.234,39.025c-3.905-3.905-10.237-3.905-14.143,0L377.19,84.926c-3.905,3.905-3.905,10.237,0,14.143 c1.954,1.953,4.513,2.929,7.072,2.929c2.559,0,5.119-0.976,7.071-2.929l45.901-45.901 C441.139,49.263,441.139,42.931,437.234,39.025z" style="fill: rgb(251, 251, 251);"/>
    </g>
  </g>
  <g transform="matrix(0.050118, 0, 0, 0.050118, 51.148396, 233.502136)" style="">
    <g>
      <path d="M457.028,292.442l-29.986-12.421c-5.1-2.114-10.951,0.31-13.065,5.412s0.31,10.952,5.412,13.065l29.986,12.421 c1.251,0.519,2.547,0.764,3.823,0.764c3.924,0,7.647-2.325,9.243-6.176C464.554,300.405,462.13,294.555,457.028,292.442z" style="fill: rgb(251, 251, 251);"/>
    </g>
  </g>
  <g transform="matrix(0.050118, 0, 0, 0.050118, 51.148396, 233.502136)" style="">
    <g>
      <path d="M436.879,386.742l-45.901-45.901c-3.906-3.906-10.237-3.905-14.142,0c-3.905,3.905-3.906,10.237,0,14.142l45.901,45.901 c1.953,1.953,4.512,2.929,7.071,2.929c2.559,0,5.119-0.977,7.071-2.929C440.784,396.979,440.784,390.647,436.879,386.742z" style="fill: rgb(251, 251, 251);"/>
    </g>
  </g>
  <g transform="matrix(0.050118, 0, 0, 0.050118, 51.148396, 233.502136)" style="">
    <g>
      <path d="M168.791,376.985c-16.542,0-30,13.458-30,30s13.458,30,30,30s30-13.458,30-30S185.333,376.985,168.791,376.985z M168.791,416.985c-5.514,0-10-4.486-10-10c0-5.514,4.485-10,10-10c5.514,0,10,4.486,10,10 C178.791,412.499,174.305,416.985,168.791,416.985z" style="fill: rgb(251, 251, 251);"/>
    </g>
  </g>
  <g transform="matrix(0.050118, 0, 0, 0.050118, 51.148396, 233.502136)" style="">
    <g>
      <path d="M121.581,160.597c-41.845,0-75.888,34.043-75.888,75.888c0,5.523,4.477,10,10,10s10-4.477,10-10 c0-30.816,25.071-55.888,55.888-55.888c5.523,0,10-4.477,10-10S127.104,160.597,121.581,160.597z" style="fill: rgb(251, 251, 251);"/>
    </g>
  </g>
  <g transform="matrix(0.050118, 0, 0, 0.050118, 51.148396, 233.502136)" style="">
    <g>
      <path d="M169.57,163.53c-1.86-1.87-4.44-2.93-7.07-2.93s-5.21,1.06-7.07,2.93c-1.86,1.86-2.93,4.43-2.93,7.07 c0,2.63,1.07,5.21,2.93,7.07s4.44,2.93,7.07,2.93s5.21-1.07,7.07-2.93s2.93-4.44,2.93-7.07S171.43,165.39,169.57,163.53z" style="fill: rgb(251, 251, 251);"/>
    </g>
  </g>
  <g transform="matrix(0.131822, 0, 0, 0.131822, 82.975853, 164.459686)" style=""/>
  <g transform="matrix(0.131822, 0, 0, 0.131822, 82.975853, 164.459686)" style=""/>
  <g transform="matrix(0.131822, 0, 0, 0.131822, 82.975853, 164.459686)" style=""/>
  <g transform="matrix(0.131822, 0, 0, 0.131822, 82.975853, 164.459686)" style=""/>
  <g transform="matrix(0.131822, 0, 0, 0.131822, 82.975853, 164.459686)" style=""/>
  <g transform="matrix(0.131822, 0, 0, 0.131822, 82.975853, 164.459686)" style=""/>
  <g transform="matrix(0.131822, 0, 0, 0.131822, 82.975853, 164.459686)" style=""/>
  <g transform="matrix(0.131822, 0, 0, 0.131822, 82.975853, 164.459686)" style=""/>
  <g transform="matrix(0.131822, 0, 0, 0.131822, 82.975853, 164.459686)" style=""/>
  <g transform="matrix(0.131822, 0, 0, 0.131822, 82.975853, 164.459686)" style=""/>
  <g transform="matrix(0.131822, 0, 0, 0.131822, 82.975853, 164.459686)" style=""/>
  <g transform="matrix(0.131822, 0, 0, 0.131822, 82.975853, 164.459686)" style=""/>
  <g transform="matrix(0.131822, 0, 0, 0.131822, 82.975853, 164.459686)" style=""/>
  <g transform="matrix(0.131822, 0, 0, 0.131822, 82.975853, 164.459686)" style=""/>
  <g transform="matrix(0.131822, 0, 0, 0.131822, 82.975853, 164.459686)" style=""/>
  <g transform="matrix(0.053529, 0, 0, 0.053529, 64.790298, 39.551193)" style="">
    <g>
      <path d="M422.405,140.973c-1.86-1.861-4.44-2.93-7.07-2.93s-5.21,1.069-7.07,2.93c-1.87,1.859-2.93,4.439-2.93,7.07 c0,2.63,1.06,5.21,2.93,7.069c1.86,1.86,4.431,2.931,7.07,2.931c2.63,0,5.21-1.07,7.07-2.931c1.859-1.859,2.93-4.439,2.93-7.069 C425.335,145.412,424.265,142.832,422.405,140.973z" style="fill: rgb(251, 251, 251);"/>
    </g>
  </g>
  <g transform="matrix(0.053529, 0, 0, 0.053529, 64.790298, 39.551193)" style="">
    <g>
      <path d="M498.747,4.409c-7.626-4.813-16.833-5.734-25.26-2.526c-8.428,3.206-14.692,10.015-17.189,18.677l-9.592,33.268 l-104.644,88.413c-11.509,9.724-27.129,13.422-41.772,9.902l-92.977-22.364c-5.307-1.276-10.766-1.924-16.223-1.924H93.478 c-19.859,0-38.344,10.697-48.236,27.916l-7.787,13.548c-4.839,8.423-7.397,18.008-7.397,27.72v68.972H19.263 c-10.615,0-19.251,8.637-19.251,19.251v36.499c0,10.615,8.637,19.251,19.251,19.251H84.06v108.99 c0,34.186,27.812,61.998,61.999,61.998c34.186,0,61.997-27.812,61.997-61.998v-34.999c0-5.522-4.478-10-10-10s-10,4.478-10,10 v34.999c0,23.158-18.84,41.998-41.998,41.998c-23.158,0-41.998-18.84-41.998-41.998v-259.99c0-23.158,18.841-41.998,41.999-41.998 c23.157,0,41.997,18.84,41.997,41.998v144.994c0,5.522,4.478,10,10,10s10-4.478,10-10l0.073-62.992 c0-25.357,20.63-45.987,45.987-45.987h62.115c16.398,0,32.217-5.958,44.539-16.775l31.859-27.969 c4.15-3.644,4.561-9.962,0.917-14.111c-3.644-4.149-9.961-4.561-14.111-0.917l-31.859,27.969 c-8.672,7.613-19.803,11.806-31.345,11.806h-62.115c-17.906,0-34.16,7.18-46.061,18.798v-34.815 c0-16.264-6.305-31.078-16.587-42.148c3.758,0.029,7.513,0.479,11.167,1.358l92.977,22.364 c20.813,5.008,43.003-0.254,59.358-14.069l106.959-90.368c1.509-1.275,2.607-2.97,3.154-4.868l10.432-36.18 c0.739-2.563,2.593-4.578,5.086-5.526c2.494-0.95,5.219-0.677,7.474,0.747c2.994,1.891,4.488,5.482,3.718,8.938L481.422,76.72 l-43.878,38.519c-4.15,3.644-4.561,9.962-0.917,14.111c3.642,4.149,9.961,4.561,14.111,0.917l46.33-40.672 c1.593-1.398,2.7-3.268,3.162-5.337l11.079-49.646C513.915,22.934,508.866,10.797,498.747,4.409z M30.058,321.011H20.011v-35.003 h10.047V321.011z M84.056,293.539c-0.194-0.011-0.387-0.03-0.584-0.03H68.556c-5.522,0-10,4.478-10,10s4.478,10,10,10h14.915 c0.197,0,0.39-0.018,0.584-0.03v7.531H50.057v-47.253c0-9.374,7.626-16.999,16.999-16.999c9.374,0,16.999,7.626,16.999,16.999 V293.539z M84.059,190.012v50.9c-5.095-2.648-10.875-4.155-17.003-4.155c-6.127,0-11.906,1.506-16.999,4.153v-43.873 c0.001-6.22,1.64-12.359,4.739-17.754l7.787-13.548c6.337-11.03,18.176-17.881,30.896-17.881h7.179 C90.367,158.924,84.059,173.742,84.059,190.012z" style="fill: rgb(251, 251, 251);"/>
    </g>
  </g>
  <g transform="matrix(0.053529, 0, 0, 0.053529, 64.790298, 39.551193)" style="">
    <g>
      <path d="M146.057,414.337c-15.438,0-27.999,12.56-27.999,27.999c0,15.438,12.56,27.999,27.999,27.999 c15.438,0,27.999-12.561,27.999-27.999C174.056,426.898,161.496,414.337,146.057,414.337z M146.057,450.336c-4.411,0-8-3.589-8-8 c0-4.411,3.589-8,8-8s8,3.589,8,8C154.057,446.747,150.468,450.336,146.057,450.336z" style="fill: rgb(251, 251, 251);"/>
    </g>
  </g>
  <g transform="matrix(0.053529, 0, 0, 0.053529, 64.790298, 39.551193)" style="">
    <g>
      <path d="M146.057,169.543c-15.438,0-27.999,12.56-27.999,27.999c0,15.438,12.56,27.999,27.999,27.999 c15.438,0,27.999-12.561,27.999-27.999C174.056,182.103,161.496,169.543,146.057,169.543z M146.057,205.541c-4.411,0-8-3.589-8-8 s3.589-8,8-8s8,3.589,8,8S150.468,205.541,146.057,205.541z" style="fill: rgb(251, 251, 251);"/>
    </g>
  </g>
  <g transform="matrix(0.053529, 0, 0, 0.053529, 64.790298, 39.551193)" style="">
    <g>
      <path d="M205.124,366.433c-1.86-1.86-4.44-2.93-7.07-2.93s-5.21,1.069-7.07,2.93c-1.859,1.86-2.93,4.44-2.93,7.07 c0,2.63,1.07,5.21,2.93,7.069c1.86,1.86,4.44,2.931,7.07,2.931s5.21-1.07,7.07-2.931c1.859-1.859,2.93-4.439,2.93-7.069 C208.054,370.873,206.984,368.293,205.124,366.433z" style="fill: rgb(251, 251, 251);"/>
    </g>
  </g>
  <g transform="matrix(0.053529, 0, 0, 0.053529, 64.790298, 39.551193)" style=""/>
  <g transform="matrix(0.053529, 0, 0, 0.053529, 64.790298, 39.551193)" style=""/>
  <g transform="matrix(0.053529, 0, 0, 0.053529, 64.790298, 39.551193)" style=""/>
  <g transform="matrix(0.053529, 0, 0, 0.053529, 64.790298, 39.551193)" style=""/>
  <g transform="matrix(0.053529, 0, 0, 0.053529, 64.790298, 39.551193)" style=""/>
  <g transform="matrix(0.053529, 0, 0, 0.053529, 64.790298, 39.551193)" style=""/>
  <g transform="matrix(0.053529, 0, 0, 0.053529, 64.790298, 39.551193)" style=""/>
  <g transform="matrix(0.053529, 0, 0, 0.053529, 64.790298, 39.551193)" style=""/>
  <g transform="matrix(0.053529, 0, 0, 0.053529, 64.790298, 39.551193)" style=""/>
  <g transform="matrix(0.053529, 0, 0, 0.053529, 64.790298, 39.551193)" style=""/>
  <g transform="matrix(0.053529, 0, 0, 0.053529, 64.790298, 39.551193)" style=""/>
  <g transform="matrix(0.053529, 0, 0, 0.053529, 64.790298, 39.551193)" style=""/>
  <g transform="matrix(0.053529, 0, 0, 0.053529, 64.790298, 39.551193)" style=""/>
  <g transform="matrix(0.053529, 0, 0, 0.053529, 64.790298, 39.551193)" style=""/>
  <g transform="matrix(0.053529, 0, 0, 0.053529, 64.790298, 39.551193)" style=""/>
  <g transform="matrix(0.149783, 0, 0, 0.149783, 421.539276, 235.311218)" style=""/>
  <g transform="matrix(0.149783, 0, 0, 0.149783, 421.539276, 235.311218)" style=""/>
  <g transform="matrix(0.149783, 0, 0, 0.149783, 421.539276, 235.311218)" style=""/>
  <g transform="matrix(0.149783, 0, 0, 0.149783, 421.539276, 235.311218)" style=""/>
  <g transform="matrix(0.149783, 0, 0, 0.149783, 421.539276, 235.311218)" style=""/>
  <g transform="matrix(0.149783, 0, 0, 0.149783, 421.539276, 235.311218)" style=""/>
  <g transform="matrix(0.149783, 0, 0, 0.149783, 421.539276, 235.311218)" style=""/>
  <g transform="matrix(0.149783, 0, 0, 0.149783, 421.539276, 235.311218)" style=""/>
  <g transform="matrix(0.149783, 0, 0, 0.149783, 421.539276, 235.311218)" style=""/>
  <g transform="matrix(0.149783, 0, 0, 0.149783, 421.539276, 235.311218)" style=""/>
  <g transform="matrix(0.149783, 0, 0, 0.149783, 421.539276, 235.311218)" style=""/>
  <g transform="matrix(0.149783, 0, 0, 0.149783, 421.539276, 235.311218)" style=""/>
  <g transform="matrix(0.149783, 0, 0, 0.149783, 421.539276, 235.311218)" style=""/>
  <g transform="matrix(0.149783, 0, 0, 0.149783, 421.539276, 235.311218)" style=""/>
  <g transform="matrix(0.149783, 0, 0, 0.149783, 421.539276, 235.311218)" style=""/>
</svg>