<?xml version="1.0" encoding="utf-8"?>
<svg viewBox="0 0 500 312" xmlns="http://www.w3.org/2000/svg">
  <g transform="matrix(0.134234, 0, 0, 0.134234, 394.033386, 82.840233)" style=""/>
  <g transform="matrix(0.134234, 0, 0, 0.134234, 394.033386, 82.840233)" style=""/>
  <g transform="matrix(0.134234, 0, 0, 0.134234, 394.033386, 82.840233)" style=""/>
  <g transform="matrix(0.134234, 0, 0, 0.134234, 394.033386, 82.840233)" style=""/>
  <g transform="matrix(0.134234, 0, 0, 0.134234, 394.033386, 82.840233)" style=""/>
  <g transform="matrix(0.134234, 0, 0, 0.134234, 394.033386, 82.840233)" style=""/>
  <g transform="matrix(0.134234, 0, 0, 0.134234, 394.033386, 82.840233)" style=""/>
  <g transform="matrix(0.134234, 0, 0, 0.134234, 394.033386, 82.840233)" style=""/>
  <g transform="matrix(0.134234, 0, 0, 0.134234, 394.033386, 82.840233)" style=""/>
  <g transform="matrix(0.134234, 0, 0, 0.134234, 394.033386, 82.840233)" style=""/>
  <g transform="matrix(0.134234, 0, 0, 0.134234, 394.033386, 82.840233)" style=""/>
  <g transform="matrix(0.134234, 0, 0, 0.134234, 394.033386, 82.840233)" style=""/>
  <g transform="matrix(0.134234, 0, 0, 0.134234, 394.033386, 82.840233)" style=""/>
  <g transform="matrix(0.134234, 0, 0, 0.134234, 394.033386, 82.840233)" style=""/>
  <g transform="matrix(0.134234, 0, 0, 0.134234, 394.033386, 82.840233)" style=""/>
  <g transform="matrix(0.249192, 0, 0, 0.249192, 372.415924, 184.413422)" style="">
    <g>
      <path d="M505.684,153.022c-3.808-1.514-8.151-0.551-10.965,2.426l-58.735,62.194c-1.06,1.122-1.845,2.474-2.295,3.951 l-12.88,42.257l-70.875,34.725c-1.963,0.962-3.557,2.54-4.537,4.494l-19.462,38.77h-36.27c-4.348,0-8.197,2.809-9.523,6.949 l-13.941,43.519h-37.366c10.949-33.314,4.749-71.077-18.601-99.348l40.248-40.248c2.425-2.425,3.438-5.925,2.684-9.271 c-0.755-3.347-3.172-6.072-6.405-7.222l-136.056-48.375l24.064-24.064c3.905-3.905,3.905-10.237,0-14.143 c-3.905-3.906-10.237-3.905-14.143,0l-30.788,30.788l-32.423-12.232c-3.77-1.645-8.163-0.814-11.07,2.094l-37.851,37.85 c-6.777,6.777-9.759,16.446-7.978,25.863s8.09,17.328,16.874,21.16c3.771,1.646,7.73,2.447,11.646,2.447 c7.5,0,14.844-2.939,20.417-8.512l31.678-31.678l11.823,44.124c-13.631,5.07-26.411,13.069-37.349,24.007 c-40.775,40.775-40.775,107.122,0,147.897c14.123,14.123,31.574,23.706,50.584,28.023l-37.637,33.017 c-3.13,2.746-4.231,7.144-2.764,11.041c1.467,3.897,5.195,6.477,9.359,6.477h426.845c5.523,0,10-4.477,10-10V162.315 C511.989,158.218,509.491,154.536,505.684,153.022z M35.309,234.952c-2.625,2.626-6.519,3.362-9.921,1.877 c-2.759-1.204-4.662-3.59-5.222-6.547c-0.56-2.958,0.34-5.875,2.468-8.003l33.029-33.029l17.647,7.701L35.309,234.952z M225.146,249.76l-29.057,29.057c-23.95-19.781-54.711-27.257-83.811-22.423l-13.849-51.688L225.146,249.76z M134.728,340.178 l-17.245-64.361c4.001-0.572,8.035-0.86,12.069-0.86c18.514,0,37.018,6.045,52.303,18.094L134.728,340.178z M144.021,373.965 c-3.865,3.865-9.003,5.994-14.469,5.994s-10.604-2.128-14.469-5.994c-3.865-3.865-5.993-9.003-5.993-14.469 c0-5.465,2.128-10.604,5.994-14.469c0.066-0.066,0.121-0.137,0.184-0.204l4.625,17.261c0.925,3.451,3.62,6.146,7.071,7.071 c0.856,0.229,1.725,0.341,2.588,0.341c2.617,0,5.171-1.029,7.072-2.929l12.61-12.61 C151.16,360.848,149.43,368.556,144.021,373.965z M69.746,419.302c-32.978-32.976-32.978-86.635,0-119.612 c8.364-8.365,18.062-14.597,28.413-18.719l12.7,47.396c-3.402-1.006-7.233-0.167-9.918,2.517 c-7.642,7.643-11.851,17.804-11.851,28.611c0,10.808,4.209,20.969,11.851,28.611c7.642,7.643,17.803,11.852,28.611,11.852 s20.969-4.209,28.611-11.851c13.336-13.336,15.396-33.742,6.185-49.265l31.649-31.649c26.143,33.166,23.944,81.526-6.639,112.109 c-15.975,15.975-37.214,24.773-59.806,24.773S85.72,435.277,69.746,419.302z M491.99,452.001h-93.333c-5.523,0-10,4.477-10,10 s4.477,10,10,10h93.333v20H101.709l20.807-18.252l104.084-38.16c3.939-1.444,6.558-5.193,6.558-9.389v-13.894h40.339 c4.348,0,8.197-2.809,9.523-6.949l13.941-43.519h35.143c3.782,0,7.24-2.134,8.937-5.514l20.718-41.272l71.749-35.153 c2.487-1.219,4.358-3.415,5.166-6.064l13.462-44.167l39.854-42.201V452.001z" style="fill: rgb(226, 165, 11);"/>
    </g>
  </g>
  <g transform="matrix(0.249192, 0, 0, 0.249192, 372.415924, 184.413422)" style="">
    <g>
      <path d="M158.859,125.552c-1.86-1.86-4.44-2.93-7.07-2.93c-2.64-0.001-5.21,1.07-7.08,2.93c-1.86,1.86-2.93,4.43-2.93,7.07 c0,2.63,1.07,5.2,2.93,7.07c1.87,1.86,4.44,2.93,7.08,2.93c2.63,0,5.21-1.07,7.07-2.93c1.86-1.87,2.93-4.44,2.93-7.07 C161.789,129.982,160.719,127.412,158.859,125.552z" style="fill: rgb(226, 165, 11);"/>
    </g>
  </g>
  <g transform="matrix(0.249192, 0, 0, 0.249192, 372.415924, 184.413422)" style="">
    <g>
      <path d="M398.783,90.266c-40.775-40.774-107.122-40.774-147.897,0c-7.043,7.043-12.867,14.849-17.477,23.154L113.486,61.103 l38.198-38.197c2.791-2.792,6.97-3.662,10.643-2.215c3.167,1.247,5.381,3.873,6.074,7.205c0.693,3.333-0.29,6.624-2.696,9.03 l-5.877,5.877c-3.905,3.905-3.905,10.237,0,14.143c3.905,3.906,10.237,3.905,14.143,0l5.877-5.877 c7.155-7.155,10.195-17.341,8.134-27.247c-2.061-9.906-8.913-18.033-18.328-21.74c-11.084-4.365-23.689-1.741-32.112,6.682 l-48.57,48.569c-2.338,2.338-3.37,5.682-2.755,8.931c0.615,3.249,2.796,5.983,5.828,7.306l133.388,58.191 c-11.764,36.234-3.282,77.667,25.453,106.403c20.387,20.387,47.168,30.581,73.948,30.581c26.78,0,53.561-10.194,73.949-30.581 c19.752-19.752,30.63-46.015,30.63-73.949C429.413,136.281,418.535,110.019,398.783,90.266z M384.639,224.021 c-16.491,16.491-38.145,24.735-59.807,24.733c-21.656-0.002-43.32-8.246-59.806-24.732 c-22.755-22.756-29.802-55.356-21.154-84.215l76.961,33.575c1.302,0.568,2.658,0.836,3.993,0.836c3.856,0,7.531-2.244,9.171-6.004 c2.208-5.062-0.105-10.956-5.167-13.165l-16.342-7.129c3.538-2.691,7.823-4.167,12.343-4.167c5.466,0,10.604,2.128,14.469,5.994 c3.865,3.865,5.993,9.003,5.993,14.469c0,5.465-2.128,10.604-5.994,14.469c-7.977,7.978-20.959,7.979-28.938,0 c-3.905-3.905-10.237-3.905-14.142,0c-3.905,3.905-3.905,10.237,0,14.142c7.888,7.888,18.25,11.832,28.611,11.832 c10.362,0,20.723-3.944,28.611-11.832c7.642-7.643,11.851-17.804,11.851-28.611c0-10.808-4.209-20.969-11.851-28.611 c-7.642-7.643-17.803-11.852-28.611-11.852c-10.808,0-20.969,4.209-28.611,11.851c-1.197,1.197-2.022,2.622-2.486,4.135 l-41.886-18.273c3.571-6.095,7.959-11.836,13.18-17.057c16.488-16.489,38.147-24.733,59.806-24.733s43.318,8.245,59.806,24.733 c15.975,15.975,24.772,37.214,24.772,59.806C409.411,186.807,400.613,208.047,384.639,224.021z" style="fill: rgb(226, 165, 11);"/>
    </g>
  </g>
  <g transform="matrix(0.249192, 0, 0, 0.249192, 372.415924, 184.413422)" style="">
    <g>
      <path d="M366.009,454.932c-1.86-1.86-4.44-2.93-7.07-2.93s-5.21,1.07-7.07,2.93s-2.93,4.44-2.93,7.07s1.07,5.21,2.93,7.07 c1.86,1.86,4.44,2.93,7.07,2.93s5.21-1.07,7.07-2.93c1.87-1.86,2.93-4.44,2.93-7.07S367.869,456.792,366.009,454.932z" style="fill: rgb(226, 165, 11);"/>
    </g>
  </g>
  <g transform="matrix(0.249192, 0, 0, 0.249192, 372.415924, 184.413422)" style=""/>
  <g transform="matrix(0.249192, 0, 0, 0.249192, 372.415924, 184.413422)" style=""/>
  <g transform="matrix(0.249192, 0, 0, 0.249192, 372.415924, 184.413422)" style=""/>
  <g transform="matrix(0.249192, 0, 0, 0.249192, 372.415924, 184.413422)" style=""/>
  <g transform="matrix(0.249192, 0, 0, 0.249192, 372.415924, 184.413422)" style=""/>
  <g transform="matrix(0.249192, 0, 0, 0.249192, 372.415924, 184.413422)" style=""/>
  <g transform="matrix(0.249192, 0, 0, 0.249192, 372.415924, 184.413422)" style=""/>
  <g transform="matrix(0.249192, 0, 0, 0.249192, 372.415924, 184.413422)" style=""/>
  <g transform="matrix(0.249192, 0, 0, 0.249192, 372.415924, 184.413422)" style=""/>
  <g transform="matrix(0.249192, 0, 0, 0.249192, 372.415924, 184.413422)" style=""/>
  <g transform="matrix(0.249192, 0, 0, 0.249192, 372.415924, 184.413422)" style=""/>
  <g transform="matrix(0.249192, 0, 0, 0.249192, 372.415924, 184.413422)" style=""/>
  <g transform="matrix(0.249192, 0, 0, 0.249192, 372.415924, 184.413422)" style=""/>
  <g transform="matrix(0.249192, 0, 0, 0.249192, 372.415924, 184.413422)" style=""/>
  <g transform="matrix(0.249192, 0, 0, 0.249192, 372.415924, 184.413422)" style=""/>
  <g transform="matrix(0, 0.249192, -0.249192, 0, 127.586815, 184.415894)" style="">
    <g>
      <path d="M505.684,153.022c-3.808-1.514-8.151-0.551-10.965,2.426l-58.735,62.194c-1.06,1.122-1.845,2.474-2.295,3.951 l-12.88,42.257l-70.875,34.725c-1.963,0.962-3.557,2.54-4.537,4.494l-19.462,38.77h-36.27c-4.348,0-8.197,2.809-9.523,6.949 l-13.941,43.519h-37.366c10.949-33.314,4.749-71.077-18.601-99.348l40.248-40.248c2.425-2.425,3.438-5.925,2.684-9.271 c-0.755-3.347-3.172-6.072-6.405-7.222l-136.056-48.375l24.064-24.064c3.905-3.905,3.905-10.237,0-14.143 c-3.905-3.906-10.237-3.905-14.143,0l-30.788,30.788l-32.423-12.232c-3.77-1.645-8.163-0.814-11.07,2.094l-37.851,37.85 c-6.777,6.777-9.759,16.446-7.978,25.863s8.09,17.328,16.874,21.16c3.771,1.646,7.73,2.447,11.646,2.447 c7.5,0,14.844-2.939,20.417-8.512l31.678-31.678l11.823,44.124c-13.631,5.07-26.411,13.069-37.349,24.007 c-40.775,40.775-40.775,107.122,0,147.897c14.123,14.123,31.574,23.706,50.584,28.023l-37.637,33.017 c-3.13,2.746-4.231,7.144-2.764,11.041c1.467,3.897,5.195,6.477,9.359,6.477h426.845c5.523,0,10-4.477,10-10V162.315 C511.989,158.218,509.491,154.536,505.684,153.022z M35.309,234.952c-2.625,2.626-6.519,3.362-9.921,1.877 c-2.759-1.204-4.662-3.59-5.222-6.547c-0.56-2.958,0.34-5.875,2.468-8.003l33.029-33.029l17.647,7.701L35.309,234.952z M225.146,249.76l-29.057,29.057c-23.95-19.781-54.711-27.257-83.811-22.423l-13.849-51.688L225.146,249.76z M134.728,340.178 l-17.245-64.361c4.001-0.572,8.035-0.86,12.069-0.86c18.514,0,37.018,6.045,52.303,18.094L134.728,340.178z M144.021,373.965 c-3.865,3.865-9.003,5.994-14.469,5.994s-10.604-2.128-14.469-5.994c-3.865-3.865-5.993-9.003-5.993-14.469 c0-5.465,2.128-10.604,5.994-14.469c0.066-0.066,0.121-0.137,0.184-0.204l4.625,17.261c0.925,3.451,3.62,6.146,7.071,7.071 c0.856,0.229,1.725,0.341,2.588,0.341c2.617,0,5.171-1.029,7.072-2.929l12.61-12.61 C151.16,360.848,149.43,368.556,144.021,373.965z M69.746,419.302c-32.978-32.976-32.978-86.635,0-119.612 c8.364-8.365,18.062-14.597,28.413-18.719l12.7,47.396c-3.402-1.006-7.233-0.167-9.918,2.517 c-7.642,7.643-11.851,17.804-11.851,28.611c0,10.808,4.209,20.969,11.851,28.611c7.642,7.643,17.803,11.852,28.611,11.852 s20.969-4.209,28.611-11.851c13.336-13.336,15.396-33.742,6.185-49.265l31.649-31.649c26.143,33.166,23.944,81.526-6.639,112.109 c-15.975,15.975-37.214,24.773-59.806,24.773S85.72,435.277,69.746,419.302z M491.99,452.001h-93.333c-5.523,0-10,4.477-10,10 s4.477,10,10,10h93.333v20H101.709l20.807-18.252l104.084-38.16c3.939-1.444,6.558-5.193,6.558-9.389v-13.894h40.339 c4.348,0,8.197-2.809,9.523-6.949l13.941-43.519h35.143c3.782,0,7.24-2.134,8.937-5.514l20.718-41.272l71.749-35.153 c2.487-1.219,4.358-3.415,5.166-6.064l13.462-44.167l39.854-42.201V452.001z" style="fill: rgb(226, 165, 11);"/>
    </g>
  </g>
  <g transform="matrix(0, 0.249192, -0.249192, 0, 127.586815, 184.415894)" style="">
    <g>
      <path d="M158.859,125.552c-1.86-1.86-4.44-2.93-7.07-2.93c-2.64-0.001-5.21,1.07-7.08,2.93c-1.86,1.86-2.93,4.43-2.93,7.07 c0,2.63,1.07,5.2,2.93,7.07c1.87,1.86,4.44,2.93,7.08,2.93c2.63,0,5.21-1.07,7.07-2.93c1.86-1.87,2.93-4.44,2.93-7.07 C161.789,129.982,160.719,127.412,158.859,125.552z" style="fill: rgb(226, 165, 11);"/>
    </g>
  </g>
  <g transform="matrix(0, 0.249192, -0.249192, 0, 127.586815, 184.415894)" style="">
    <g>
      <path d="M398.783,90.266c-40.775-40.774-107.122-40.774-147.897,0c-7.043,7.043-12.867,14.849-17.477,23.154L113.486,61.103 l38.198-38.197c2.791-2.792,6.97-3.662,10.643-2.215c3.167,1.247,5.381,3.873,6.074,7.205c0.693,3.333-0.29,6.624-2.696,9.03 l-5.877,5.877c-3.905,3.905-3.905,10.237,0,14.143c3.905,3.906,10.237,3.905,14.143,0l5.877-5.877 c7.155-7.155,10.195-17.341,8.134-27.247c-2.061-9.906-8.913-18.033-18.328-21.74c-11.084-4.365-23.689-1.741-32.112,6.682 l-48.57,48.569c-2.338,2.338-3.37,5.682-2.755,8.931c0.615,3.249,2.796,5.983,5.828,7.306l133.388,58.191 c-11.764,36.234-3.282,77.667,25.453,106.403c20.387,20.387,47.168,30.581,73.948,30.581c26.78,0,53.561-10.194,73.949-30.581 c19.752-19.752,30.63-46.015,30.63-73.949C429.413,136.281,418.535,110.019,398.783,90.266z M384.639,224.021 c-16.491,16.491-38.145,24.735-59.807,24.733c-21.656-0.002-43.32-8.246-59.806-24.732 c-22.755-22.756-29.802-55.356-21.154-84.215l76.961,33.575c1.302,0.568,2.658,0.836,3.993,0.836c3.856,0,7.531-2.244,9.171-6.004 c2.208-5.062-0.105-10.956-5.167-13.165l-16.342-7.129c3.538-2.691,7.823-4.167,12.343-4.167c5.466,0,10.604,2.128,14.469,5.994 c3.865,3.865,5.993,9.003,5.993,14.469c0,5.465-2.128,10.604-5.994,14.469c-7.977,7.978-20.959,7.979-28.938,0 c-3.905-3.905-10.237-3.905-14.142,0c-3.905,3.905-3.905,10.237,0,14.142c7.888,7.888,18.25,11.832,28.611,11.832 c10.362,0,20.723-3.944,28.611-11.832c7.642-7.643,11.851-17.804,11.851-28.611c0-10.808-4.209-20.969-11.851-28.611 c-7.642-7.643-17.803-11.852-28.611-11.852c-10.808,0-20.969,4.209-28.611,11.851c-1.197,1.197-2.022,2.622-2.486,4.135 l-41.886-18.273c3.571-6.095,7.959-11.836,13.18-17.057c16.488-16.489,38.147-24.733,59.806-24.733s43.318,8.245,59.806,24.733 c15.975,15.975,24.772,37.214,24.772,59.806C409.411,186.807,400.613,208.047,384.639,224.021z" style="fill: rgb(226, 165, 11);"/>
    </g>
  </g>
  <g transform="matrix(0, 0.249192, -0.249192, 0, 127.586815, 184.415894)" style="">
    <g>
      <path d="M366.009,454.932c-1.86-1.86-4.44-2.93-7.07-2.93s-5.21,1.07-7.07,2.93s-2.93,4.44-2.93,7.07s1.07,5.21,2.93,7.07 c1.86,1.86,4.44,2.93,7.07,2.93s5.21-1.07,7.07-2.93c1.87-1.86,2.93-4.44,2.93-7.07S367.869,456.792,366.009,454.932z" style="fill: rgb(226, 165, 11);"/>
    </g>
  </g>
  <g transform="matrix(0.14886, 0, 0, 0.14886, 207.29512, 222.320984)" style="">
    <g>
      <g>
        <path d="M258.546,3.438C256.646,1.254,253.895,0,251,0c-2.894,0-5.646,1.254-7.545,3.438 c-6.419,7.38-157.191,181.758-157.191,269.943c0,90.836,73.9,164.736,164.736,164.736s164.736-73.9,164.736-164.736 C415.736,185.197,264.964,10.818,258.546,3.438z M251,418.116c-79.807,0-144.736-64.928-144.736-144.736 c0-32.853,26.093-87.439,75.458-157.857c27.94-39.855,56.176-74.43,69.278-90.07c13.083,15.615,41.254,50.11,69.18,89.932 c49.429,70.484,75.556,125.118,75.556,157.995C395.736,353.187,330.807,418.116,251,418.116z" style="fill: rgb(255, 255, 255);"/>
        <path d="M141.916,291.261c-1.136-6.444-1.712-13.058-1.712-19.659c0-5.522-4.477-10-10-10s-10,4.478-10,10 c0,7.762,0.679,15.544,2.016,23.132c0.855,4.852,5.074,8.266,9.836,8.266c0.576,0,1.161-0.051,1.748-0.154 C139.243,301.887,142.875,296.7,141.916,291.261z" style="fill: rgb(255, 255, 255);"/>
        <path d="M195.117,368.21c-18.008-10.741-32.635-26.24-42.3-44.821c-2.548-4.9-8.587-6.805-13.486-4.258 c-4.9,2.548-6.806,8.587-4.257,13.486c11.38,21.878,28.599,40.125,49.798,52.77c1.605,0.957,3.37,1.413,5.113,1.413 c3.406,0,6.726-1.742,8.598-4.88C201.412,377.177,199.86,371.038,195.117,368.21z" style="fill: rgb(255, 255, 255);"/>
        <path d="M251,86c-19.299,0-35,15.701-35,35v22.981c0,19.299,15.701,35,35,35s35-15.701,35-35V121C286,101.701,270.299,86,251,86z M266,143.981c0,8.271-6.729,15-15,15s-15-6.729-15-15V121c0-8.271,6.729-15,15-15s15,6.729,15,15V143.981z" style="fill: rgb(255, 255, 255);"/>
        <path d="M251,195c-19.299,0-35,15.701-35,35v130.18c0,19.299,15.701,35,35,35s35-15.701,35-35V230 C286,210.701,270.299,195,251,195z M266,360.18c0,8.271-6.729,15-15,15s-15-6.729-15-15V230c0-8.271,6.729-15,15-15 s15,6.729,15,15V360.18z" style="fill: rgb(255, 255, 255);"/>
        <path d="M251,452c-5.523,0-10,4.478-10,10v30c0,5.522,4.477,10,10,10c5.522,0,10-4.478,10-10v-30 C261,456.478,256.522,452,251,452z" style="fill: rgb(255, 255, 255);"/>
      </g>
    </g>
  </g>
</svg>