<?xml version="1.0" encoding="iso-8859-1"?>
<!-- Generator: Adobe Illustrator 19.0.0, SVG Export Plug-In . SVG Version: 6.00 Build 0)  -->
<svg version="1.1" id="Capa_1" xmlns="http://www.w3.org/2000/svg" xmlns:xlink="http://www.w3.org/1999/xlink" x="0px" y="0px"
	 viewBox="0 0 512 512" style="enable-background:new 0 0 512 512;" xml:space="preserve">
<g>
	<g>
		<path d="M42.65,440.996c-5.522,0-10,4.477-10,10v0.547c0,5.523,4.478,10,10,10c5.522,0,10-4.477,10-10v-0.547
			C52.65,445.473,48.172,440.996,42.65,440.996z"/>
	</g>
</g>
<g>
	<g>
		<path d="M257.008,32.65h-0.55c-5.522,0-10,4.477-10,10c0,5.524,4.478,10,10,10h0.55c5.522,0,10-4.477,10-10
			C267.008,37.127,262.53,32.65,257.008,32.65z"/>
	</g>
</g>
<g>
	<g>
		<path d="M502,392h-68.818l-136-272h8.822c5.523,0,10-4.477,10-10V10c0-5.522-4.477-10-10-10h-100c-5.523,0-10,4.478-10,10v100
			c0,5.523,4.477,10,10,10h8.818L78.823,392H10c-5.522,0-10,4.478-10,10v100c0,5.523,4.477,10,10,10h100c5.522,0,10-4.477,10-10v-40
			h272v40c0,5.523,4.477,10,10,10h100c5.522,0,10-4.477,10-10V402C512,396.478,507.522,392,502,392z M216.003,52.65h15.502
			c5.522,0,10-4.477,10-10c0-5.523-4.478-10-10-10h-15.502V20h80v80h-80V52.65z M100.001,492H52.65v-15.502c0-5.521-4.477-10-10-10
			c-5.523,0-10,4.479-10,10V492H20v-80h80.001V492z M402,392c-5.523,0-10,4.478-10,10v40H120.001v-40c0-5.522-4.478-10-10-10h-8.817
			l135.999-272h37.639l136,272H402z M492,492h-80v-39.961c0-0.014,0.002-0.026,0.002-0.039S412,451.975,412,451.961V412h47.349
			v15.506c0,5.522,4.478,10,10,10c5.523,0,10-4.478,10-10V412H492V492z"/>
	</g>
</g>
<g>
	<g>
		<path d="M469.349,442.459c-5.522,0-10,4.477-10,10v0.549c0,5.523,4.478,10,10,10c5.523,0,10-4.477,10-10v-0.549
			C479.349,446.935,474.872,442.459,469.349,442.459z"/>
	</g>
</g>
<g>
</g>
<g>
</g>
<g>
</g>
<g>
</g>
<g>
</g>
<g>
</g>
<g>
</g>
<g>
</g>
<g>
</g>
<g>
</g>
<g>
</g>
<g>
</g>
<g>
</g>
<g>
</g>
<g>
</g>
</svg>
